<svg xmlns="http://www.w3.org/2000/svg" width="50" height="50" fill="none" xmlns:v="https://vecta.io/nano"><path d="M43.454 29.768l-.015-.034c-1.243-2.645-3.268-3.715-4.087-4.054-.848-.36-1.485-.5-1.758-.548l-.096-.03-.088-.02-.045-.008-.03-.005-.04-.003-.035-.003h-.135c-.307-.03-.924-.088-1.78-.002-1.255.1-3.072.738-4.428 2.226l-.024.027a6.87 6.87 0 0 0-1.366 2.582 1.49 1.49 0 0 0-.082.48c-.082.232-.088.44-.068.603l-.005.042a1.98 1.98 0 0 0-.006.572c-.008.44.1.83.188 1.153l.067.254a1.13 1.13 0 0 0 .101.267l.013.056a1.47 1.47 0 0 0 .206.444 1.09 1.09 0 0 0 .205.39l.06.073c.034.07.1.176.18.3.277.365.588.647.863.896l.1.1a1.06 1.06 0 0 0 .104.084c.357.256.716.422 1.033.568l.157.073.136.054c.333.107.65.153.908.2l.287.045a1.13 1.13 0 0 0 .194.021l.1.001c1.98 0 3.4-1.298 3.737-2.54.16-.587-.197-1.2-.796-1.346s-1.215.193-1.374.78c-.086.316-.62.9-1.53.907l-.282-.043-.472-.086-.095-.044-.62-.322-.06-.055-.56-.562c-.035-.073-.094-.187-.2-.3-.044-.117-.1-.2-.142-.28a2.27 2.27 0 0 0-.1-.27l-.056-.2c-.057-.207-.12-.442-.1-.567.01-.1.004-.198-.015-.296l.003-.023c.012-.094.028-.223.023-.378l.027-.124c.027-.118.035-.222.037-.297a4.68 4.68 0 0 1 .917-1.755c.92-1 2.152-1.425 2.93-1.486l.027-.002a6.39 6.39 0 0 1 1.334.001l.114.01.117.026a6.6 6.6 0 0 1 1.338.417c.582.24 2 .998 2.926 2.936.4.92.572 1.97.522 3.043l-.001.053-.01.038c-.018.08-.045.2-.057.34l-.028.296a4.33 4.33 0 0 0-.133.518l-.078.3a1.08 1.08 0 0 0-.095.237c-.133.495-.454 1.006-.794 1.546l-.048.077a5.41 5.41 0 0 0-.359.484l-.08.078-.268.28-.14.165-.13.106a3.55 3.55 0 0 0-.31.278l-.126.117c-.517.4-1.138.76-1.97 1.14-.623.24-1.352.414-2.287.544-.82.064-1.688-.028-2.438-.132-.786-.2-1.613-.463-2.37-.856-.88-.522-1.54-1.012-2.08-1.54-.704-.766-1.205-1.44-1.578-2.118l-.01-.02a2.4 2.4 0 0 1-.105-.23L26.236 35l-.12-.236-.077-.25c-.045-.153-.098-.285-.145-.402l-.077-.207-.17-.723c-.152-.923-.266-1.75-.166-2.5a1.16 1.16 0 0 0 .008-.186c-.008-.176.033-.384.08-.626l.102-.644.003-.034c.007-.027.026-.08.04-.12l.108-.35.018-.062.145-.038a1.41 1.41 0 0 1 .136-.028c.18-.034.423-.08.688-.208.12-.053.262-.1.412-.152.296-.102.63-.216.968-.413.976-.415 1.782-1.027 2.655-1.724a1.12 1.12 0 0 0 .096-.086l.468-.43.025-.02c.17-.152.3-.3.402-.438l.138-.162.014-.015.255-.266a1.11 1.11 0 0 0 .119-.147l.208-.308.014-.02a2.77 2.77 0 0 1 .145-.194l.298-.416c.512-.812.93-1.73 1.315-2.893l.016-.052c.252-.912.38-1.904.406-3.12v-.057c-.036-1.096-.283-2.143-.52-3.022a1.06 1.06 0 0 0-.044-.129c-.338-.825-.768-1.786-1.386-2.656l-.037-.05c-.714-.895-1.365-1.558-2.05-2.085l-.05-.037c-.9-.623-1.7-1.052-2.455-1.35a3.46 3.46 0 0 0-.436-.138l-.158-.046-.03-.01-.286-.104a1.14 1.14 0 0 0-.248-.06l-.236-.037-.055-.01c-.02-.003-.08-.02-.123-.03-.132-.036-.312-.086-.53-.103l-.044-.003c-.153-.006-.298-.022-.443-.047-.055-.01-.1-.015-.165-.016l-.17-.005c-.748-.02-1.52-.043-2.307.148-.313.03-.576.115-.793.186l-.244.073a1.75 1.75 0 0 0-.592.2l-.204.09-.056.018c-.12.037-.295.1-.485.203-1.255.645-2.346 1.536-3.155 2.58l-.022.03c-1.72 2.377-1.652 4.63-1.542 5.493a8.52 8.52 0 0 0 .394 1.764l.018.087c.002.008.005.015.007.023l.02.064.016.044.012.032c.004.01.01.02.014.03l.017.035.035.065.015.025.02.032c.128.275.385.828.888 1.5.716 1.013 2.188 2.236 4.184 2.642l.036.007a6.89 6.89 0 0 0 1.154.096 7.37 7.37 0 0 0 1.813-.228c.214-.04.375-.122.466-.17a1.39 1.39 0 0 0 .569-.244l.04-.017c.124-.05.313-.13.5-.28.394-.214.688-.502.93-.74l.2-.182c.07-.063.13-.135.18-.214l.047-.044c.152-.147.24-.3.3-.396a1.1 1.1 0 0 0 .242-.369l.035-.087a1.66 1.66 0 0 0 .167-.297c.184-.418.278-.823.36-1.18l.033-.14a1.09 1.09 0 0 0 .022-.129c.048-.43.015-.817-.013-1.158l-.014-.17a1.07 1.07 0 0 0-.021-.143c-.07-.335-.2-.63-.286-.864l-.103-.266a.89.89 0 0 0-.08-.175c-.978-1.74-2.873-2.316-4.16-1.977-.6.158-.954.76-.792 1.348s.778.934 1.377.776c.323-.085 1.1.08 1.567.844l.103.26.16.443.01.104.024.685-.018.078c-.064.275-.124.536-.217.76a1.64 1.64 0 0 0-.177.315 1.54 1.54 0 0 0-.177.261c-.067.068-.13.14-.187.218l-.155.15c-.156.153-.332.326-.45.38a1.13 1.13 0 0 0-.253.159l-.022.01c-.1.037-.212.088-.347.17l-.125.04c-.117.036-.212.08-.28.116a4.86 4.86 0 0 1-2 .1c-1.344-.28-2.337-1.112-2.78-1.742l-.016-.022c-.376-.508-.565-.914-.666-1.132l-.048-.102-.035-.1c-.077-.23-.22-.66-.3-1.342-.08-.614-.122-2.203 1.134-3.95.617-.8 1.457-1.47 2.43-1.964l.048-.026.038-.01c.08-.025.2-.062.33-.122l.274-.123c.203-.042.374-.098.527-.148l.306-.084a1.15 1.15 0 0 0 .256-.038c.504-.135 1.116-.118 1.764-.1l.093.003a5.66 5.66 0 0 0 .607.062l.108.028.383.087.215.036.16.058c.15.058.288.094.4.124l.166.048.02.007c.594.23 1.222.577 1.975 1.092.525.408 1.042.94 1.624 1.667.467.665.82 1.446 1.103 2.133.206.77.397 1.597.428 2.438-.022 1.006-.124 1.813-.32 2.534-.326.98-.67 1.743-1.084 2.396l-.01.018c-.033.054-.1.127-.15.205l-.26.353-.148.22-.183.2a4.17 4.17 0 0 0-.283.324l-.144.17-.554.507c-.74.6-1.416 1.1-2.136 1.395a1.13 1.13 0 0 0-.169.086c-.152.094-.356.165-.594.246l-.62.235-.03.015a2.49 2.49 0 0 1-.127.026l-.364.083-.064.016-.105-.103a1.75 1.75 0 0 1-.093-.101c-.12-.136-.282-.32-.528-.48a5.67 5.67 0 0 1-.341-.273c-.238-.2-.505-.425-.85-.614-.855-.622-1.8-.998-2.852-1.4-.04-.015-.082-.028-.125-.038l-.616-.182-.03-.01a3.62 3.62 0 0 0-.589-.123l-.212-.036-.022-.005-.362-.083a1.2 1.2 0 0 0-.188-.027l-.403-.024a2.92 2.92 0 0 1-.243-.026l-.518-.044c-.975-.028-1.997.077-3.216.332l-.054.012c-.934.243-1.876.63-2.962 1.216l-.05.03c-.95.577-1.753 1.3-2.414 1.952-.033.032-.064.066-.093.102-.56.7-1.196 1.544-1.657 2.503l-.025.056c-.435 1.052-.695 1.935-.82 2.78l-.007.06c-.097 1.08-.086 1.957.033 2.756.023.172.064.32.097.44l.04.156.004.028.05.295a1.14 1.14 0 0 0 .072.244l.084.215.02.053c.008.02.023.077.034.12.034.13.08.3.174.502l.02.037a3.21 3.21 0 0 1 .18.398 1.26 1.26 0 0 0 .07.15l.08.146c.355.644.722 1.3 1.284 1.882a3.45 3.45 0 0 0 .561.58l.186.17a1.7 1.7 0 0 0 .475.402l.18.127.044.04c.093.083.228.205.423.3 1.2.743 2.532 1.222 3.86 1.385l.037.004.857.04c2.483 0 4.135-1.006 4.773-1.478a8.78 8.78 0 0 0 1.362-1.216l.065-.056.054-.055.042-.046.02-.023c.008-.01.014-.02.02-.03l.022-.03.042-.065.013-.023.02-.035c.18-.246.54-.74.9-1.508.538-1.114.883-2.974.245-4.868l-.012-.034c-.336-.896-.9-1.74-1.6-2.448a1.55 1.55 0 0 0-.385-.31 1.37 1.37 0 0 0-.5-.36l-.035-.026a2.12 2.12 0 0 0-.504-.292c-.386-.227-.787-.33-1.117-.418l-.256-.07c-.1-.027-.2-.043-.285-.047l-.056-.017a1.56 1.56 0 0 0-.496-.048 1.14 1.14 0 0 0-.447-.02l-.095.014c-.08-.006-.2-.012-.346.007-.46.052-.862.174-1.218.282l-.147.045a1.14 1.14 0 0 0-.127.046c-.405.175-.73.396-1.02.6l-.143.096a1.13 1.13 0 0 0-.116.089c-.26.228-.46.476-.622.675l-.183.22a1.1 1.1 0 0 0-.115.154c-1.05 1.698-.612 3.594.332 4.516a1.14 1.14 0 0 0 1.588-.002c.438-.43.437-1.126-.002-1.555-.237-.23-.478-.972-.037-1.75l.18-.218.312-.358.086-.058.595-.364.084-.025.774-.194a1.72 1.72 0 0 0 .368-.008c.127.02.237.022.318.02a2.42 2.42 0 0 0 .288.05l.2.056c.213.056.454.12.56.2.083.057.173.102.268.135l.018.014a2.5 2.5 0 0 0 .323.21l.096.085a1.61 1.61 0 0 0 .242.179 4.7 4.7 0 0 1 1.094 1.655c.425 1.28.185 2.537-.152 3.228l-.012.025a6.11 6.11 0 0 1-.668 1.13l-.066.1-.08.086c-.165.18-.473.515-1.037.925-.504.373-1.888 1.205-4.06 1.013-1.008-.127-2.028-.5-2.953-1.078l-.046-.027-.03-.027c-.063-.056-.155-.14-.274-.22l-.247-.172c-.136-.15-.27-.266-.4-.37l-.227-.217a1.11 1.11 0 0 0-.162-.199c-.37-.36-.662-.887-.97-1.445l-.045-.08a5.36 5.36 0 0 0-.249-.547l-.03-.105-.115-.37-.076-.2-.028-.164c-.023-.155-.06-.3-.1-.4l-.04-.165-.003-.02c-.094-.62-.1-1.326-.022-2.22.1-.65.3-1.354.662-2.2.354-.728.87-1.417 1.335-2 .58-.56 1.216-1.137 1.942-1.582.9-.484 1.665-.8 2.402-.995 1.03-.213 1.877-.302 2.662-.28h.023a2.6 2.6 0 0 1 .256.026l.44.043.27.016.26.06c.157.04.3.06.427.078l.222.038.726.216c.892.333 1.68.65 2.3 1.114a1.07 1.07 0 0 0 .16.1c.16.08.324.22.514.38l.518.408.028.02.086.095.255.266.046.047-.04.143c-.005.022-.027.084-.043.13-.06.17-.14.398-.16.687-.014.13-.042.273-.07.425-.058.302-.123.64-.12 1.027-.122 1.036.017 2.025.197 3.114a1.07 1.07 0 0 0 .028.124l.147.614.006.03c.05.22.125.4.186.56l.074.197.007.022.108.35a1.07 1.07 0 0 0 .07.172l.18.354c.03.056.063.135.098.218l.22.46c.463.84 1.067 1.655 1.902 2.56l.038.04c.68.67 1.493 1.276 2.557 1.904l.05.028c.985.517 2.036.83 2.933 1.07a1.17 1.17 0 0 0 .136.028c.678.095 1.45.184 2.253.184l.8-.03.062-.007c1.148-.158 2.06-.38 2.868-.695l.057-.024c1.005-.46 1.775-.906 2.422-1.407.14-.106.25-.214.34-.3l.12-.1.024-.02.236-.2a1.1 1.1 0 0 0 .178-.181l.186-.223c.013-.016.057-.058.1-.1.098-.094.233-.223.356-.398l.024-.035a3.43 3.43 0 0 1 .263-.352 1.12 1.12 0 0 0 .097-.132l.088-.14c.393-.624.798-1.268 1.024-2.032.13-.28.186-.547.232-.766l.057-.242c.075-.184.114-.382.118-.604l.016-.152.007-.064.013-.057c.027-.12.067-.296.063-.513.057-1.387-.186-2.757-.705-3.966z" fill="#67add7"/></svg>