<svg xmlns="http://www.w3.org/2000/svg" width="50" height="50" fill="none"><path fill-rule="evenodd" d="M25.05 11.93c.682 0 1.235-.553 1.235-1.235V7.853c0-.682-.553-1.235-1.235-1.235s-1.235.553-1.235 1.235v2.842c0 .682.553 1.235 1.235 1.235zm0 .65c-6.848 0-12.42 5.572-12.42 12.42S18.2 37.42 25.05 37.42 37.47 31.85 37.47 25s-5.572-12.42-12.42-12.42zm9.938 12.915c-.112 2.277-1.08 4.437-2.688 6.052l-.02.02a7.19 7.19 0 0 1-10.154 0c-2.143-2.143-2.143-5.63 0-7.774 1.618-1.618 4.25-1.618 5.87 0a3.08 3.08 0 0 1 0 4.346c-.792.792-2.04.857-2.906.194-.333-.255-.65-.79-.666-1.2s.134-.81.42-1.1c.446-.467.517-1.194.102-1.69-.472-.565-1.314-.592-1.823-.084-.754.754-1.17 1.757-1.17 2.823s.415 2.07 1.17 2.823a4.69 4.69 0 0 0 6.621 0 5.55 5.55 0 0 0 0-7.84 6.63 6.63 0 0 0-9.363 0 7.98 7.98 0 0 0 0 11.267c.372.372.768.707 1.183 1.006-3.864-1.45-6.594-5.24-6.458-9.633.164-5.287 4.505-9.555 9.795-9.634C30.454 14.97 35 19.464 35 25c0 .166-.004.33-.012.495zm-11.173 13.8c0-.682.553-1.235 1.235-1.235s1.235.553 1.235 1.235v2.842c0 .682-.553 1.235-1.235 1.235s-1.235-.553-1.235-1.235v-2.842zM16.827 13.23c.23.396.644.618 1.07.618a1.23 1.23 0 0 0 .616-.166c.59-.34.793-1.096.452-1.687l-1.42-2.462c-.34-.59-1.096-.793-1.687-.452s-.793 1.096-.452 1.687l1.42 2.462zm14.757 23.1c.6-.34 1.346-.14 1.687.452l1.42 2.462c.34.59.14 1.346-.452 1.687a1.23 1.23 0 0 1-.616.166c-.427 0-.842-.22-1.07-.618l-1.42-2.462c-.34-.59-.14-1.346.452-1.687zM9.58 17.496l2.462 1.42a1.23 1.23 0 0 0 .616.166c.427 0 .842-.222 1.07-.618.34-.59.14-1.346-.452-1.687l-2.462-1.42c-.59-.34-1.346-.14-1.687.452s-.14 1.346.452 1.687zm28.473 13.588l2.462 1.42c.59.34.793 1.096.452 1.687-.23.396-.644.618-1.07.618a1.23 1.23 0 0 1-.616-.166l-2.462-1.42c-.59-.34-.793-1.096-.452-1.687s1.096-.793 1.687-.452zM11.98 25c0-.682-.553-1.235-1.235-1.235H7.902c-.682 0-1.235.553-1.235 1.235s.553 1.235 1.235 1.235h2.842c.682 0 1.235-.553 1.235-1.235zm27.375-1.235h2.842c.682 0 1.235.553 1.235 1.235s-.553 1.235-1.235 1.235h-2.842c-.682 0-1.235-.553-1.235-1.235s.553-1.235 1.235-1.235zm-27.31 7.318l-2.462 1.42c-.59.34-.793 1.096-.452 1.687.23.396.644.618 1.07.618a1.23 1.23 0 0 0 .616-.166l2.462-1.42c.59-.34.793-1.096.452-1.687s-1.096-.793-1.687-.452zm26.012-12.166a1.23 1.23 0 0 1-.616.166c-.427 0-.842-.222-1.07-.618-.34-.59-.14-1.346.452-1.687l2.462-1.42c.59-.34 1.346-.14 1.687.452s.14 1.346-.452 1.687l-2.462 1.42zm-19.54 17.4c-.59-.34-1.346-.14-1.687.452l-1.42 2.462c-.34.59-.14 1.346.452 1.687a1.23 1.23 0 0 0 .616.166c.427 0 .842-.22 1.07-.618l1.42-2.462c.34-.59.14-1.346-.452-1.687zM32.2 13.848a1.23 1.23 0 0 1-.616-.166c-.59-.34-.793-1.096-.452-1.687l1.42-2.46c.34-.59 1.096-.793 1.687-.452s.793 1.096.452 1.687l-1.42 2.462c-.23.396-.644.618-1.07.618z" fill="#67add7"/></svg>