<svg xmlns="http://www.w3.org/2000/svg" width="50" height="50" fill="none" xmlns:v="https://vecta.io/nano"><path fill-rule="evenodd" d="M31 18.788l.578-.222A15.08 15.08 0 0 1 37 17.565c3.96 0 7.686 1.5 10.5 4.254l-1.52 1.5a12.85 12.85 0 0 0-2.332-1.8l-.253-.152-.9 1.783-1.923-.946.88-1.74-.294-.1c-.894-.302-1.827-.505-2.773-.606l-.332-.035.2 2.15-2.14.203-.23-2.347-.273.03c-.826.087-1.645.253-2.43.494l-.292.1.97 2.152-1.963.862-.978-2.167-.262.148a12.79 12.79 0 0 0-1.683 1.136l-.235.188 3.22 3.176-.944.932c-1.37 1.352-2.33 3.1-2.776 5.053a8.75 8.75 0 0 1-2.396 4.285 9.01 9.01 0 0 1-6.282 2.576c-.062 0-.123-.001-.184-.002l-.116-.003-7.154 7.057A6.12 6.12 0 0 1 7.783 47.5a6.12 6.12 0 0 1-4.327-1.766 5.99 5.99 0 0 1 0-8.537L10.6 30.16v-.1c0-2.325 1.092-4.934 2.72-6.493a8.94 8.94 0 0 1 4.333-2.291c1.902-.404 3.67-1.37 5.108-2.8l.875-.864 3.44 3.392.2-.233a12.61 12.61 0 0 0 1.15-1.66l.15-.258-2.197-.965.874-1.937 2.18.958.1-.288a12.47 12.47 0 0 0 .501-2.398l.03-.27-2.38-.226.206-2.1 2.18.207-.035-.328a12.36 12.36 0 0 0-.614-2.736l-.1-.3-1.763.867-.96-1.897 1.807-.9-.154-.25A12.73 12.73 0 0 0 26.398 4l1.52-1.5a14.54 14.54 0 0 1 4.312 10.358 14.52 14.52 0 0 1-1.014 5.359l-.225.57zM7.784 45.38c1.062 0 2.06-.407 2.807-1.146L20.877 34.1a3.86 3.86 0 0 0 .83-4.338l-.16-.36-1.576 1.555-1.52-1.5 1.577-1.556-.367-.158a4 4 0 0 0-1.591-.328 3.97 3.97 0 0 0-2.807 1.146L4.976 38.698a3.86 3.86 0 0 0 0 5.538 3.97 3.97 0 0 0 2.808 1.146zm21-19.34l.16-.2-5.338-5.264-.192.158c-1.555 1.285-3.394 2.18-5.318 2.6a6.79 6.79 0 0 0-3.288 1.739c-.33.316-.636.7-.913 1.14l-.804 1.285 1.204-.932a6.19 6.19 0 0 1 7.093-.323l.185.117 1.802-1.777 1.52 1.5-1.802 1.777.12.183c1.438 2.198 1.284 5.038-.383 7.07L21.772 36.4l1.414-.9c.415-.26.8-.565 1.142-.904a6.64 6.64 0 0 0 1.82-3.252c.45-1.975 1.363-3.813 2.635-5.312zM8.465 39.097a1.22 1.22 0 0 1 .86-.351c.312 0 .622.117.86.35a1.18 1.18 0 0 1 0 1.697l-1.6 1.577a1.22 1.22 0 0 1-.86.35 1.22 1.22 0 0 1-.86-.35 1.19 1.19 0 0 1 0-1.697l1.598-1.577z" fill="#67add7"/></svg>