<svg xmlns="http://www.w3.org/2000/svg" width="136" height="36" fill="#fff" fill-rule="evenodd"><path d="M2.72 26.572c.153-.152.153-.395 0-.547-1.253-1.246-1.957-2.917-1.957-4.7 0-3.677 3.027-6.686 6.726-6.686 1.315 0 2.996.517 4.158 1.276a21.76 21.76 0 0 1 2.018 1.52l-2.14 4.042c-1.1 1.884-2.537 2.4-3.73 2.4a2.59 2.59 0 0 1-2.599-2.583 2.59 2.59 0 0 1 2.599-2.583c.245 0 .5.06.734.122.52.122.795-.608.214-.73-.306-.06-.6-.152-.948-.152-1.865 0-3.363 1.5-3.363 3.343s1.498 3.343 3.363 3.343c2.048 0 5.686-.638 8.102-4.954.978 1.124 1.865 2.28 2.7 3.464L16.54 28.8c-.795 2.006-1.804 3.95-3.883 5.4-.397.273-1.284.73-2.262 1.064-.5.152-.367.912.275.7 4.983-1.763 8.377-5.136 10.028-9.755 2.232 3.29 5.442 7.444 11.902 7.444 5.503 0 10.333-4.437 10.333-9.907 0-6.412-5.044-9.877-9.814-9.877-4.005 0-6.94 3.04-6.94 6.625 0 3.495 2.66 6.14 6.176 6.14a1.08 1.08 0 0 0 1.07-1.064 1.07 1.07 0 1 0-2.14 0c0 .1 0 .152.03.243-2.568-.456-4.372-2.583-4.372-5.288 0-3.2 2.752-5.895 6.176-5.895 4.28 0 6.726 4.315 6.726 8.388 0 4.984-4.433 9.026-9.477 9.026-4.372 0-7.46-4-9.355-6.716L26.78 9.25c.275-.8.55-1.58.887-2.37l4.922-.577c.428-.03.367-.67-.06-.638-.153.03-2.415.243-4.555.486.917-2.036 2.2-3.95 4.74-5.197-.06.577.367 1.124.948 1.185s1.13-.365 1.192-.942-.367-1.124-.948-1.185c-.153-.03-.306 0-.46.06-3.73 1.307-6.542 3.495-8.407 6.412-.642.06-1.07.122-1.07.122-2.048.213-5.503 1.337-7.704 5.987l-2.262 4.255c-.612-.517-1.254-1.003-1.957-1.5-1.284-.85-3.118-1.398-4.555-1.398-4.127 0-7.5 3.343-7.5 7.445a7.31 7.31 0 0 0 2.171 5.227c.153.1.397.1.55-.06zm17.1-14.435c1.53-3.1 3.088-4.7 4.25-4.832 0 0 .183-.03.52-.06-.5.88-.917 1.793-1.253 2.765l-4.433 12.247c-.825-1.124-1.68-2.25-2.63-3.312l3.546-6.807zm35.006-7.29h-.474l-4.506 10.718h1.287l1.4-3.277H56.7l1.4 3.277h1.32L54.826 4.846zm-1.83 6.315l1.626-4.028 1.626 4.028h-3.252zM90.77 4.846l-4.54 10.718h1.287l1.4-3.277h4.167l1.4 3.277h1.32L91.2 4.846h-.44zm-1.4 6.315l1.626-4.028 1.626 4.028H89.38zM67.1 15.564h-6.2V5.017h1.253v9.42h4.98v1.126H67.1zm8.368 0H68.58V5.017h6.708v1.126H69.8v3.482h3.523v1.126H69.8v3.686h5.658v1.126zm50.478 0h-6.9V5.017h6.707v1.126h-5.488v3.482h3.523v1.126h-3.523v3.686h5.658v1.126h.034zm-40.8 0h-1.423L80.92 11.23l-2.846 4.335H76.6l3.6-5.393-3.354-5.154h1.423l2.6 4.096 2.575-4.096h1.423L81.6 10.17l3.557 5.393zm19.242-2.594V5.017h1.254v10.718h-.44l-6.674-8.1v7.92h-1.253V4.846h.44l6.674 8.124zm3.862-7.953v10.547h3.117c1.762 0 3.117-.512 4.167-1.502 1.016-1 1.525-2.253 1.525-3.8s-.5-2.8-1.525-3.8-2.405-1.468-4.167-1.468h-3.117zm6.336 2.287c.78.75 1.185 1.775 1.185 3.004s-.406 2.22-1.185 3.004-1.864 1.195-3.22 1.195h-1.863V6.2l1.83-.034c1.4-.034 2.473.34 3.253 1.126zm14.194 3.823h2.236l3.252 4.437h1.423L132.372 11c.678-.205 1.22-.546 1.626-1.058s.576-1.126.576-1.843c0-.887-.305-1.638-.914-2.22s-1.423-.853-2.44-.853h-3.692v10.547h1.253v-4.437zm0-4.984h2.406c.677 0 1.185.17 1.558.546s.542.82.542 1.4-.203 1.058-.542 1.4c-.373.34-.88.512-1.558.512H128.8V6.143zM97.512 20.9l-4.54 10.718h1.287l1.4-3.277h4.167l1.4 3.277h1.32L97.953 20.9h-.44zm-1.4 6.35l1.628-4.04 1.626 4.028h-3.252zm-31.44-6.35c-1.525 0-2.812.512-3.862 1.57s-1.558 2.355-1.558 3.9.508 2.833 1.558 3.9 2.337 1.57 3.862 1.57 2.778-.512 3.862-1.57c1.05-1.058 1.592-2.355 1.592-3.9s-.508-2.833-1.592-3.9c-1.084-1.024-2.37-1.57-3.862-1.57zm2.98 8.534c-.78.82-1.762 1.23-2.98 1.23-1.186 0-2.202-.4-2.98-1.23s-1.186-1.843-1.186-3.072.407-2.253 1.186-3.072 1.762-1.23 2.98-1.23a4.02 4.02 0 0 1 2.981 1.229c.78.82 1.186 1.843 1.186 3.038 0 1.263-.407 2.287-1.186 3.106zm9.215-3.106h4.8v2.8c-.474.82-1.118 1.502-1.965 1.98-.847.512-1.795.75-2.812.75-1.525 0-2.812-.512-3.862-1.57s-1.558-2.355-1.558-3.9.508-2.833 1.558-3.9 2.44-1.57 3.862-1.57c.745 0 1.728.24 2.44.614.745.375 1.355.922 1.83 1.604l-.95.75c-.847-1.16-1.965-1.74-3.32-1.74-1.22 0-2.202.4-2.98 1.23s-1.186 1.843-1.186 3.072.407 2.253 1.186 3.106c.78.82 1.796 1.263 3.015 1.263.745 0 1.457-.17 2.033-.512a4.01 4.01 0 0 0 1.457-1.365V27.5H76.88v-1.195zm10.028-5.222h-3.117V31.64h3.117c1.762 0 3.117-.512 4.167-1.502 1.016-1 1.525-2.253 1.525-3.8s-.508-2.8-1.525-3.8c-1.05-1-2.44-1.468-4.167-1.468zm3.218 8.295c-.78.785-1.863 1.195-3.252 1.195H85v-8.33l1.83-.034c1.4 0 2.473.375 3.252 1.16.78.75 1.186 1.775 1.186 3.004.034 1.195-.34 2.22-1.152 3.004zm21.004-8.294h1.253v10.718h-.44l-6.674-8.1v7.92h-1.22V20.9h.44l6.674 8.124v-7.92h-.034zm8.64-.205c-1.525 0-2.812.512-3.862 1.57s-1.56 2.355-1.56 3.9.5 2.833 1.56 3.9 2.337 1.57 3.862 1.57c1.5 0 2.778-.512 3.862-1.57 1.05-1.058 1.592-2.355 1.592-3.9s-.508-2.833-1.592-3.9a5.35 5.35 0 0 0-3.862-1.57zm2.98 8.534c-.78.82-1.762 1.23-2.98 1.23-1.186 0-2.202-.4-2.98-1.23s-1.186-1.843-1.186-3.072.406-2.253 1.186-3.072 1.76-1.23 2.98-1.23c1.186 0 2.168.4 2.98 1.23.78.82 1.186 1.843 1.186 3.038 0 1.263-.373 2.287-1.186 3.106zm11-8.33h1.355l-4.54 10.718h-.474l-4.54-10.718h1.355l3.422 8.26 3.42-8.26zm-75.716 2.97c0-.888-.6-2.97-3.32-2.97h-4.303V31.64h4.303c2.7 0 3.32-2.082 3.32-2.97 0-.58-.407-1.74-1.423-2.32 1.016-.546 1.423-1.707 1.423-2.287zm-1.254 4.608c0 .546-.44 1.843-2.168 1.843h-2.947v-3.652h2.947c1.626-.034 2.168 1.263 2.168 1.8zm-2.168-2.867h-2.947V22.19h2.947c1.762 0 2.168 1.23 2.168 1.775 0 .58-.542 1.843-2.168 1.843z"/></svg>