<svg width="0" height="0" class="hidden">
  <symbol viewBox="0 0 18 18" fill="none" xmlns="http://www.w3.org/2000/svg" id="freeship">
    <path d="M17.034 3.83a.563.563 0 0 0-.349-.52L8.731.042a.563.563 0 0 0-.428 0L.35 3.31a.563.563 0 0 0-.35.52v10.34c0 .228.138.433.35.52l7.953 3.268a.561.561 0 0 0 .427 0l7.955-3.268a.563.563 0 0 0 .35-.52V3.83zM8.517 6.538l-2.93-1.204L11.92 2.57l3.127 1.284-6.53 2.683zm-7.39-1.819l2.528 1.039v2.93a.563.563 0 0 0 1.126 0V6.22l3.173 1.303v9.074l-6.828-2.805V4.718zm7.39-3.546l1.952.802-6.333 2.763-2.149-.883 6.53-2.682zm.563 6.351l6.828-2.805v9.074L9.08 16.597V7.523z"
      fill="#4E5B67"></path>
  </symbol>
  <symbol viewBox="0 0 16 14" fill="none" xmlns="http://www.w3.org/2000/svg" id="primerka">
    <path d="M14.937 9.473L10.61 6.87a5.064 5.064 0 0 0-1.983-.685v-.652c0-.367.21-.709.549-.892a2.454 2.454 0 0 0 1.292-2.288 2.474 2.474 0 0 0-2.35-2.35 2.467 2.467 0 0 0-2.585 2.466.625.625 0 0 0 1.25 0 1.218 1.218 0 0 1 2.436-.059c.022.473-.223.907-.639 1.132a2.271 2.271 0 0 0-1.203 1.991v.652a5.063 5.063 0 0 0-1.976.68L1.068 9.456a2.194 2.194 0 0 0 1.124 4.078l11.61.013h.003A2.197 2.197 0 0 0 16 11.356a2.21 2.21 0 0 0-1.063-1.883zm-1.132 2.825l-11.611-.013a.946.946 0 0 1-.484-1.755l4.332-2.593a3.813 3.813 0 0 1 3.924.004l4.326 2.603a.946.946 0 0 1-.487 1.754z"
      fill="#4E5B67"></path>
  </symbol>
  <symbol viewBox="0 0 18 18" fill="none" xmlns="http://www.w3.org/2000/svg" id="call-us">
    <path fill-rule="evenodd" clip-rule="evenodd" d="M4.219 7.137h-1.39a6.17 6.17 0 0 1 1.784-3.902A6.21 6.21 0 0 1 9 1.406c1.675 0 3.247.686 4.387 1.829a6.17 6.17 0 0 1 1.784 3.902h-1.39a.703.703 0 0 0-.703.703v7.348a.704.704 0 0 1-.703.703H10.23v.022a1.406 1.406 0 1 0 0 1.362v.022h2.145c1.163 0 2.11-.946 2.11-2.11v-.035h.703A2.816 2.816 0 0 0 18 12.34V9.95a2.818 2.818 0 0 0-1.407-2.436A7.572 7.572 0 0 0 13.9 1.792 7.536 7.536 0 0 0 8.967 0 7.536 7.536 0 0 0 4.1 1.791a7.572 7.572 0 0 0-2.694 5.724A2.814 2.814 0 0 0 0 9.949v2.39a2.816 2.816 0 0 0 2.813 2.813h1.406a.703.703 0 0 0 .703-.703V7.84a.703.703 0 0 0-.703-.702zm-.703 6.61h-.704a1.409 1.409 0 0 1-1.406-1.407V9.95c0-.776.631-1.407 1.407-1.407h.703v5.203zm13.078-1.407c0 .775-.631 1.406-1.407 1.406h-.703V8.543h.704c.775 0 1.406.63 1.406 1.406v2.39z"
      fill="#4E5B67"></path>
  </symbol>
</svg>