<svg aria-hidden="true" style="position: absolute; width: 0; height: 0; overflow: hidden;" version="1.1" xmlns="http://www.w3.org/2000/svg" xmlns:xlink="http://www.w3.org/1999/xlink">
<defs>
<symbol id="ab-adv-1" viewBox="0 0 16 16">
<path fill="#67add7" style="fill: var(--color1, #67add7)" d="M8.016 3.818c0.218 0 0.395-0.177 0.395-0.395v-0.909c0-0.218-0.177-0.395-0.395-0.395s-0.395 0.177-0.395 0.395v0.909c0 0.218 0.177 0.395 0.395 0.395zM8.016 4.026c-2.191 0-3.974 1.783-3.974 3.974s1.782 3.974 3.974 3.974 3.974-1.782 3.974-3.974-1.783-3.974-3.974-3.974zM11.196 8.158c-0.036 0.729-0.346 1.42-0.86 1.937l-0.006 0.006c-0.416 0.415-0.99 0.672-1.625 0.672s-1.208-0.257-1.625-0.672l0 0c-0.686-0.686-0.686-1.802 0-2.488 0.518-0.518 1.36-0.518 1.878 0 0.177 0.178 0.287 0.424 0.287 0.695s-0.11 0.517-0.287 0.695l0-0c-0.253 0.253-0.653 0.274-0.93 0.062-0.107-0.082-0.208-0.253-0.213-0.384s0.043-0.259 0.134-0.352c0.143-0.149 0.165-0.382 0.033-0.541-0.151-0.181-0.42-0.189-0.583-0.027-0.241 0.241-0.374 0.562-0.374 0.903s0.133 0.662 0.374 0.903c0.271 0.27 0.646 0.438 1.059 0.438s0.788-0.167 1.059-0.438l-0 0c0.321-0.321 0.519-0.765 0.519-1.254s-0.198-0.933-0.519-1.254l0 0c-0.384-0.383-0.913-0.619-1.498-0.619s-1.114 0.237-1.498 0.619l0-0c-0.46 0.462-0.745 1.099-0.745 1.803s0.285 1.341 0.745 1.803l-0-0c0.119 0.119 0.246 0.226 0.379 0.322-1.236-0.464-2.11-1.677-2.067-3.083 0.052-1.692 1.442-3.058 3.134-3.083 1.777-0.032 3.232 1.406 3.232 3.177 0 0.053-0.001 0.106-0.004 0.158zM7.621 12.574c0-0.218 0.177-0.395 0.395-0.395s0.395 0.177 0.395 0.395v0.909c0 0.218-0.177 0.395-0.395 0.395s-0.395-0.177-0.395-0.395v-0.909zM5.385 4.234c0.074 0.127 0.206 0.198 0.342 0.198 0.073-0 0.141-0.020 0.199-0.054l-0.002 0.001c0.189-0.109 0.254-0.351 0.145-0.54l-0.454-0.788c-0.109-0.189-0.351-0.254-0.54-0.145s-0.254 0.351-0.145 0.54l0.454 0.788zM10.107 11.626c0.192-0.109 0.431-0.045 0.54 0.145l0.454 0.788c0.109 0.189 0.045 0.431-0.145 0.54-0.057 0.033-0.124 0.053-0.197 0.053h-0c-0.137 0-0.269-0.070-0.342-0.198l-0.454-0.788c-0.109-0.189-0.045-0.431 0.145-0.54zM3.066 5.599l0.788 0.454c0.057 0.033 0.124 0.053 0.197 0.053h0c0.137 0 0.269-0.071 0.342-0.198 0.109-0.189 0.045-0.431-0.145-0.54l-0.788-0.454c-0.189-0.109-0.431-0.045-0.54 0.145s-0.045 0.431 0.145 0.54zM12.177 9.947l0.788 0.454c0.189 0.109 0.254 0.351 0.145 0.54-0.074 0.127-0.206 0.198-0.342 0.198-0.073-0-0.141-0.020-0.199-0.054l0.002 0.001-0.788-0.454c-0.189-0.109-0.254-0.351-0.145-0.54s0.351-0.254 0.54-0.145zM3.834 8c0-0.218-0.177-0.395-0.395-0.395h-0.91c-0.218 0-0.395 0.177-0.395 0.395s0.177 0.395 0.395 0.395h0.909c0.218 0 0.395-0.177 0.395-0.395zM12.594 7.605h0.909c0.218 0 0.395 0.177 0.395 0.395s-0.177 0.395-0.395 0.395h-0.909c-0.218 0-0.395-0.177-0.395-0.395s0.177-0.395 0.395-0.395zM3.854 9.947l-0.788 0.454c-0.189 0.109-0.254 0.351-0.145 0.54 0.074 0.127 0.206 0.198 0.342 0.198 0.073-0 0.141-0.020 0.199-0.054l-0.002 0.001 0.788-0.454c0.189-0.109 0.254-0.351 0.145-0.54s-0.351-0.254-0.54-0.145zM12.178 6.053c-0.057 0.033-0.124 0.053-0.197 0.053h-0c-0.137 0-0.269-0.071-0.342-0.198-0.109-0.189-0.045-0.431 0.145-0.54l0.788-0.454c0.189-0.109 0.431-0.045 0.54 0.145s0.045 0.431-0.145 0.54l-0.788 0.454zM5.925 11.621c-0.189-0.109-0.431-0.045-0.54 0.145l-0.454 0.788c-0.109 0.189-0.045 0.431 0.145 0.54 0.057 0.033 0.125 0.053 0.197 0.053h0c0.137 0 0.269-0.070 0.342-0.198l0.454-0.788c0.109-0.189 0.045-0.431-0.145-0.54zM10.304 4.431c-0.073-0-0.141-0.020-0.199-0.054l0.002 0.001c-0.189-0.109-0.254-0.351-0.145-0.54l0.454-0.787c0.109-0.189 0.351-0.254 0.54-0.145s0.254 0.351 0.145 0.54l-0.454 0.788c-0.074 0.127-0.206 0.198-0.342 0.198z"></path>
</symbol>
<symbol id="ab-adv-2" viewBox="0 0 16 16">
<path fill="#67add7" style="fill: var(--color1, #67add7)" d="M5.402 8.013v-1.319c0-0.002 0-0.004 0-0.007 0-1.115-0.345-2.149-0.934-3.002l0.012 0.018c-0.041-0.059-0.065-0.132-0.065-0.212 0-0.207 0.168-0.374 0.374-0.374 0 0 0.001 0 0.001 0h-0c0.629 0 1.22 0.16 1.735 0.449l1.19-1.324c0.069-0.076 0.168-0.124 0.278-0.124 0 0 0 0 0 0h-0c0.111 0 0.21 0.048 0.278 0.124l0 0 1.194 1.33c0.517-0.289 1.112-0.454 1.745-0.454 0 0 0.001 0 0.001 0 0.207 0 0.374 0.168 0.374 0.374 0 0.079-0.024 0.152-0.066 0.213l0.001-0.001c-0.578 0.835-0.923 1.87-0.923 2.985 0 0.002 0 0.005 0 0.007v-0 1.319c-0.003 1.434-1.164 2.595-2.598 2.597h-0c-1.434-0.002-2.596-1.164-2.598-2.598v-0zM8.849 4.007l-0.857-0.954-0.851 0.947c0.354 0.308 0.647 0.684 0.859 1.108 0.21-0.42 0.5-0.794 0.849-1.1zM8 7.077c-0 0-0 0-0 0-0.207 0-0.374-0.168-0.374-0.374 0-0 0-0 0-0v0c0-1.319-0.906-2.431-2.127-2.747 0.429 0.845 0.653 1.779 0.653 2.738v1.319c0 1.020 0.829 1.849 1.849 1.849s1.849-0.829 1.849-1.849v-1.319c0-0.959 0.224-1.892 0.653-2.738-1.222 0.316-2.127 1.427-2.127 2.747 0 0.207-0.167 0.374-0.374 0.374h-0zM8.803 11.821c0-0.72 0.586-1.305 1.305-1.305 0.849 0.001 1.537 0.689 1.538 1.538v0c-0.001 1.009-0.819 1.827-1.828 1.828h-0c-0.755 0-1.423-0.384-1.817-0.967-0.394 0.583-1.062 0.967-1.817 0.967-1.009-0.001-1.827-0.819-1.828-1.828v-0c0.001-0.849 0.689-1.537 1.538-1.538h0c0.72 0 1.305 0.586 1.305 1.305 0 0.207-0.168 0.375-0.375 0.375s-0.375-0.168-0.375-0.375v0c-0.001-0.307-0.249-0.555-0.555-0.556h-0c-0.435 0-0.788 0.354-0.788 0.788 0 0.595 0.484 1.079 1.079 1.079 0.795 0 1.443-0.647 1.443-1.442v-0.575c0-0.207 0.168-0.375 0.375-0.375s0.375 0.168 0.375 0.375v0 0.575c0 0.795 0.647 1.442 1.442 1.442 0.595 0 1.079-0.484 1.079-1.079 0-0.435-0.354-0.788-0.788-0.788-0.307 0.001-0.555 0.249-0.556 0.555v0c0 0.207-0.168 0.375-0.375 0.375s-0.375-0.168-0.375-0.375v0z"></path>
</symbol>
<symbol id="ab-adv-3" viewBox="0 0 16 16">
<path fill="#67add7" style="fill: var(--color1, #67add7)" d="M13.905 9.526l-0.005-0.011c-0.398-0.846-1.046-1.189-1.308-1.297-0.271-0.115-0.475-0.157-0.563-0.175l-0.031-0.010-0.028-0.006-0.014-0.003-0.010-0.002-0.013-0.001-0.011-0.001h-0.026c-0.003 0-0.005 0-0.008 0s-0.006 0-0.010 0c-0.098-0.010-0.296-0.028-0.57-0.001-0.402 0.032-0.983 0.236-1.417 0.712l-0.008 0.009c-0.196 0.231-0.346 0.507-0.433 0.811l-0.004 0.016c-0.023 0.065-0.026 0.122-0.026 0.154-0.026 0.074-0.028 0.141-0.022 0.193l-0.002 0.013c-0.005 0.042-0.013 0.106-0.002 0.183-0.003 0.141 0.032 0.266 0.060 0.369l0.021 0.081c0.008 0.032 0.019 0.061 0.033 0.087l-0.001-0.002 0.004 0.018c0.017 0.065 0.046 0.113 0.066 0.142 0.014 0.048 0.037 0.090 0.066 0.125l-0-0.001 0.019 0.023c0.011 0.022 0.032 0.056 0.058 0.096 0.089 0.117 0.188 0.207 0.276 0.287l0.032 0.032c0.011 0.010 0.021 0.019 0.033 0.027 0.114 0.082 0.229 0.135 0.331 0.182l0.050 0.023c0.014 0.006 0.032 0.013 0.044 0.017 0.107 0.034 0.208 0.049 0.291 0.064l0.092 0.014c0.018 0.004 0.040 0.006 0.062 0.007h0l0.029 0c0.634 0 1.088-0.415 1.196-0.813 0.051-0.188-0.063-0.381-0.255-0.431s-0.389 0.062-0.44 0.25c-0.028 0.101-0.198 0.285-0.49 0.29l-0.090-0.014-0.151-0.028-0.030-0.014-0.198-0.103-0.019-0.018-0.179-0.18c-0.011-0.023-0.030-0.060-0.061-0.099-0.014-0.037-0.032-0.067-0.045-0.090-0.009-0.029-0.019-0.058-0.032-0.086l-0.018-0.067c-0.018-0.066-0.038-0.141-0.032-0.181 0.003-0.032 0.001-0.063-0.005-0.095l0.001-0.007c0.004-0.030 0.009-0.071 0.007-0.121l0.009-0.040c0.009-0.038 0.011-0.071 0.012-0.095 0.061-0.216 0.162-0.404 0.295-0.564l-0.002 0.002c0.294-0.32 0.689-0.456 0.938-0.476l0.009-0.001c0.204-0.021 0.352-0.007 0.427 0l0.036 0.003 0.037 0.008c0.077 0.016 0.221 0.046 0.428 0.133 0.186 0.077 0.643 0.319 0.936 0.94 0.125 0.294 0.183 0.63 0.167 0.974l-0 0.017-0.003 0.012c-0.006 0.026-0.014 0.064-0.018 0.109l-0.009 0.095c-0.015 0.044-0.030 0.1-0.041 0.157l-0.001 0.009-0.025 0.096c-0.012 0.022-0.023 0.047-0.030 0.073l-0.001 0.002c-0.043 0.158-0.145 0.322-0.254 0.495l-0.015 0.025c-0.038 0.046-0.076 0.096-0.111 0.149l-0.004 0.006-0.026 0.025-0.086 0.090-0.045 0.053-0.042 0.034c-0.036 0.029-0.069 0.058-0.099 0.089l-0 0-0.040 0.037c-0.165 0.128-0.364 0.243-0.63 0.365-0.199 0.077-0.433 0.132-0.732 0.174-0.262 0.020-0.54-0.009-0.78-0.042-0.252-0.067-0.516-0.148-0.758-0.274-0.282-0.167-0.493-0.324-0.666-0.493-0.225-0.245-0.386-0.461-0.505-0.678l-0.003-0.006c-0.010-0.019-0.022-0.044-0.032-0.068l-0.002-0.005-0.060-0.127-0.038-0.076-0.025-0.080c-0.014-0.049-0.031-0.091-0.046-0.129l-0.025-0.066-0.054-0.231c-0.049-0.295-0.085-0.56-0.053-0.803 0.003-0.020 0.003-0.040 0.003-0.060-0.003-0.056 0.011-0.123 0.026-0.2l0.033-0.206 0.001-0.011c0.002-0.009 0.008-0.026 0.013-0.038l0.035-0.112 0.006-0.020c0.018-0.004 0.032-0.008 0.046-0.012 0.007-0.002 0.028-0.006 0.044-0.009 0.058-0.011 0.135-0.026 0.22-0.067 0.038-0.017 0.084-0.032 0.132-0.049 0.095-0.033 0.202-0.069 0.31-0.132 0.312-0.133 0.57-0.329 0.85-0.552 0.011-0.009 0.021-0.018 0.031-0.027l0-0 0.15-0.138 0.008-0.006c0.054-0.049 0.096-0.096 0.129-0.14l0.044-0.052 0.004-0.005 0.082-0.085c0.014-0.014 0.026-0.029 0.037-0.046l0.001-0.001 0.067-0.099 0.004-0.006c0.016-0.024 0.032-0.044 0.048-0.064l-0.001 0.002 0.095-0.133c0.164-0.26 0.298-0.554 0.421-0.926l0.005-0.017c0.081-0.292 0.122-0.609 0.13-0.998v-0.018c-0.012-0.351-0.091-0.686-0.166-0.967-0.004-0.016-0.009-0.030-0.015-0.043l0.001 0.002c-0.108-0.264-0.246-0.572-0.444-0.85l-0.012-0.016c-0.228-0.286-0.437-0.499-0.656-0.667l-0.016-0.012c-0.291-0.199-0.541-0.337-0.786-0.432-0.052-0.021-0.1-0.034-0.14-0.044l-0.051-0.015-0.010-0.003-0.092-0.033c-0.023-0.009-0.050-0.015-0.078-0.019l-0.002-0-0.076-0.012-0.018-0.003c-0.006-0.001-0.026-0.006-0.039-0.010-0.042-0.012-0.1-0.028-0.17-0.033l-0.014-0.001c-0.049-0.002-0.095-0.007-0.142-0.015-0.018-0.003-0.032-0.005-0.053-0.005l-0.054-0.002c-0.239-0.006-0.486-0.014-0.738 0.047-0.1 0.010-0.184 0.037-0.254 0.060l-0.078 0.023c-0.064 0.009-0.126 0.030-0.189 0.064l-0.065 0.028-0.018 0.006c-0.038 0.012-0.094 0.029-0.155 0.065-0.402 0.206-0.751 0.492-1.010 0.826l-0.007 0.010c-0.55 0.761-0.529 1.482-0.493 1.758 0.024 0.21 0.069 0.401 0.132 0.584l-0.006-0.019 0.006 0.028c0.001 0.003 0.002 0.005 0.002 0.007l0.006 0.020 0.005 0.014 0.004 0.010c0.001 0.003 0.003 0.006 0.004 0.010l0.005 0.011 0.011 0.021 0.005 0.008 0.006 0.010c0.041 0.088 0.123 0.265 0.284 0.483 0.229 0.324 0.7 0.716 1.339 0.845l0.012 0.002c0.11 0.020 0.237 0.031 0.367 0.031 0.001 0 0.002 0 0.003 0h-0c0.206-0 0.406-0.027 0.597-0.077l-0.016 0.004c0.068-0.013 0.12-0.039 0.149-0.054 0.069-0.013 0.131-0.040 0.183-0.079l-0.001 0.001 0.013-0.005c0.040-0.016 0.1-0.042 0.163-0.090 0.126-0.068 0.22-0.161 0.298-0.237l0.061-0.058c0.022-0.020 0.042-0.043 0.058-0.068l0.015-0.014c0.049-0.047 0.077-0.096 0.096-0.127 0.033-0.033 0.059-0.072 0.077-0.116l0.001-0.002 0.011-0.028c0.014-0.020 0.035-0.053 0.053-0.095 0.059-0.134 0.089-0.263 0.115-0.378l0.011-0.045c0.003-0.011 0.005-0.025 0.007-0.040l0-0.002c0.015-0.138 0.005-0.261-0.004-0.371l-0.004-0.054c-0.001-0.017-0.004-0.033-0.007-0.048l0 0.002c-0.022-0.107-0.064-0.202-0.092-0.276l-0.033-0.085c-0.006-0.019-0.015-0.038-0.026-0.056-0.313-0.557-0.919-0.741-1.331-0.633-0.192 0.051-0.305 0.243-0.253 0.431s0.249 0.299 0.441 0.248c0.103-0.027 0.352 0.026 0.501 0.27l0.033 0.083 0.051 0.142 0.003 0.033 0.008 0.219-0.006 0.025c-0.020 0.088-0.040 0.172-0.069 0.243-0.021 0.029-0.040 0.062-0.055 0.097l-0.001 0.003c-0.021 0.024-0.039 0.052-0.055 0.081l-0.001 0.003c-0.021 0.022-0.042 0.045-0.060 0.070l-0.050 0.048c-0.050 0.049-0.106 0.104-0.144 0.122-0.031 0.014-0.058 0.031-0.082 0.051l0.001-0-0.007 0.003c-0.029 0.012-0.068 0.028-0.111 0.054l-0.040 0.013c-0.037 0.012-0.068 0.026-0.090 0.037-0.214 0.055-0.436 0.066-0.64 0.032-0.43-0.090-0.748-0.356-0.89-0.557l-0.005-0.007c-0.12-0.163-0.181-0.292-0.213-0.362l-0.015-0.033-0.011-0.035c-0.025-0.074-0.070-0.211-0.096-0.429-0.026-0.196-0.039-0.705 0.363-1.264 0.197-0.253 0.466-0.47 0.778-0.628l0.015-0.008 0.012-0.003c0.026-0.008 0.064-0.020 0.106-0.039l0.088-0.039c0.065-0.013 0.12-0.031 0.169-0.047l0.098-0.027c0.030-0.001 0.058-0.005 0.085-0.013l-0.003 0.001c0.161-0.043 0.357-0.038 0.564-0.032l0.030 0.001c0.055 0.009 0.122 0.016 0.19 0.020l0.004 0 0.035 0.009 0.123 0.028 0.069 0.012 0.051 0.019c0.048 0.019 0.092 0.030 0.128 0.040l0.053 0.015 0.006 0.002c0.19 0.074 0.391 0.185 0.632 0.349 0.168 0.131 0.333 0.301 0.52 0.533 0.149 0.213 0.262 0.463 0.353 0.683 0.066 0.246 0.127 0.511 0.137 0.78-0.007 0.322-0.040 0.58-0.102 0.811-0.104 0.314-0.214 0.558-0.347 0.767l-0.003 0.006c-0.011 0.017-0.032 0.041-0.048 0.066l-0.083 0.113-0.047 0.070-0.059 0.064c-0.031 0.032-0.061 0.066-0.088 0.101l-0.002 0.003-0.046 0.054-0.177 0.162c-0.237 0.192-0.453 0.352-0.684 0.446-0.021 0.009-0.039 0.018-0.056 0.028l0.002-0.001c-0.049 0.030-0.114 0.053-0.19 0.079l-0.198 0.075-0.010 0.005c-0.009 0.002-0.027 0.006-0.041 0.008l-0.116 0.027-0.020 0.005c-0.012-0.013-0.022-0.023-0.034-0.033-0.010-0.010-0.020-0.021-0.029-0.032l-0.001-0.001c-0.038-0.044-0.090-0.102-0.169-0.154-0.041-0.031-0.077-0.059-0.111-0.089l0.002 0.002c-0.076-0.064-0.162-0.136-0.272-0.196-0.274-0.199-0.576-0.319-0.913-0.448-0.013-0.005-0.026-0.009-0.040-0.012l-0.197-0.058-0.010-0.003c-0.053-0.017-0.117-0.030-0.183-0.039l-0.006-0.001-0.068-0.012-0.007-0.002-0.116-0.027c-0.020-0.004-0.040-0.007-0.060-0.009l-0.129-0.008c-0.030-0.002-0.057-0.005-0.083-0.009l0.005 0.001-0.166-0.014c-0.312-0.009-0.639 0.025-1.029 0.106l-0.017 0.004c-0.299 0.078-0.6 0.202-0.948 0.389l-0.016 0.010c-0.304 0.185-0.561 0.419-0.772 0.625-0.011 0.010-0.020 0.021-0.030 0.033-0.179 0.224-0.383 0.494-0.53 0.801l-0.008 0.018c-0.139 0.337-0.222 0.619-0.262 0.89l-0.002 0.019c-0.031 0.346-0.028 0.626 0.011 0.882 0.007 0.055 0.020 0.102 0.031 0.141l0.013 0.050 0.001 0.009 0.016 0.094c0.004 0.027 0.013 0.053 0.023 0.078l0.027 0.069 0.006 0.017c0.003 0.006 0.007 0.025 0.011 0.038 0.011 0.042 0.026 0.099 0.056 0.161l0.006 0.012c0.019 0.035 0.039 0.077 0.055 0.12l0.002 0.007c0.006 0.016 0.013 0.032 0.022 0.048l0.026 0.047c0.114 0.206 0.231 0.419 0.411 0.602 0.053 0.070 0.112 0.13 0.178 0.184l0.002 0.002 0.060 0.054c0.040 0.050 0.090 0.092 0.152 0.129l0.058 0.041 0.014 0.013c0.030 0.027 0.073 0.066 0.135 0.096 0.384 0.238 0.81 0.391 1.235 0.443l0.012 0.001 0.274 0.013c0.795 0 1.323-0.322 1.527-0.473 0.163-0.118 0.305-0.246 0.434-0.387l0.002-0.002 0.021-0.018 0.017-0.018 0.013-0.015 0.006-0.007c0.003-0.003 0.004-0.006 0.006-0.010l0.007-0.010 0.013-0.021 0.004-0.007 0.006-0.011c0.058-0.079 0.173-0.237 0.285-0.483 0.172-0.356 0.283-0.952 0.078-1.558l-0.004-0.011c-0.108-0.287-0.285-0.557-0.512-0.783-0.035-0.039-0.076-0.072-0.121-0.098l-0.002-0.001c-0.043-0.049-0.097-0.088-0.157-0.114l-0.003-0.001-0.011-0.008c-0.046-0.037-0.1-0.068-0.157-0.092l-0.004-0.002c-0.124-0.073-0.252-0.106-0.357-0.134l-0.082-0.022c-0.029-0.009-0.061-0.014-0.091-0.015l-0.018-0.005c-0.038-0.010-0.082-0.016-0.127-0.016-0.011 0-0.022 0-0.033 0.001l0.002-0c-0.047-0.012-0.095-0.014-0.143-0.006l-0.030 0.004c-0.026-0.002-0.064-0.004-0.111 0.002-0.147 0.017-0.276 0.056-0.39 0.090l-0.047 0.014c-0.016 0.005-0.030 0.010-0.043 0.016l0.002-0.001c-0.13 0.056-0.234 0.127-0.326 0.189l-0.046 0.031c-0.014 0.009-0.026 0.019-0.038 0.029l0-0c-0.083 0.073-0.147 0.152-0.199 0.216l-0.059 0.070c-0.013 0.015-0.025 0.031-0.036 0.048l-0.001 0.001c-0.336 0.543-0.196 1.15 0.106 1.445 0.066 0.064 0.155 0.103 0.254 0.103s0.189-0.039 0.254-0.103l-0 0c0.14-0.138 0.14-0.36-0.001-0.498-0.076-0.074-0.153-0.311-0.012-0.56l0.058-0.070 0.1-0.115 0.028-0.019 0.19-0.116 0.027-0.008 0.248-0.062c0.014 0.001 0.030 0.002 0.047 0.002 0.025 0 0.050-0.002 0.074-0.005l-0.003 0c0.041 0.006 0.076 0.007 0.102 0.006 0.030 0.007 0.064 0.013 0.092 0.016l0.064 0.018c0.068 0.018 0.145 0.038 0.179 0.061 0.027 0.018 0.055 0.033 0.086 0.043l0.006 0.004c0.025 0.018 0.059 0.044 0.103 0.067l0.031 0.027c0.023 0.021 0.048 0.040 0.075 0.056l0.002 0.001c0.149 0.146 0.268 0.322 0.347 0.519l0.004 0.010c0.136 0.41 0.059 0.812-0.049 1.033l-0.004 0.008c-0.063 0.138-0.135 0.257-0.217 0.367l0.004-0.005-0.021 0.029-0.026 0.028c-0.053 0.058-0.151 0.165-0.332 0.296-0.161 0.119-0.604 0.386-1.299 0.324-0.323-0.041-0.649-0.16-0.945-0.345l-0.015-0.009-0.010-0.009c-0.020-0.018-0.050-0.045-0.088-0.070l-0.079-0.055c-0.044-0.048-0.086-0.085-0.125-0.118l-0.073-0.069c-0.015-0.024-0.033-0.045-0.052-0.064l-0-0c-0.118-0.115-0.212-0.284-0.31-0.462l-0.014-0.026c-0.028-0.071-0.054-0.128-0.084-0.184l0.005 0.009-0.010-0.034-0.037-0.118-0.024-0.064-0.009-0.052c-0.007-0.050-0.019-0.093-0.029-0.128l-0.013-0.053-0.001-0.006c-0.030-0.198-0.032-0.424-0.007-0.71 0.032-0.208 0.096-0.433 0.212-0.707 0.113-0.233 0.278-0.453 0.427-0.64 0.186-0.179 0.389-0.364 0.621-0.506 0.288-0.155 0.533-0.256 0.769-0.318 0.33-0.068 0.601-0.097 0.852-0.090h0.007c0.020 0 0.050 0.004 0.082 0.008l0.141 0.014 0.086 0.005 0.083 0.019c0.050 0.013 0.096 0.019 0.137 0.025l0.071 0.012 0.232 0.069c0.285 0.107 0.538 0.208 0.736 0.356 0.016 0.012 0.034 0.023 0.051 0.032 0.051 0.026 0.104 0.070 0.164 0.122l0.166 0.131 0.009 0.006c0.006 0.006 0.019 0.020 0.028 0.030l0.082 0.085 0.015 0.015c-0.006 0.017-0.010 0.031-0.013 0.046-0.002 0.007-0.009 0.027-0.014 0.042-0.019 0.054-0.045 0.127-0.051 0.22-0.004 0.042-0.013 0.087-0.022 0.136-0.019 0.097-0.039 0.205-0.038 0.329-0.039 0.332 0.005 0.648 0.063 0.996 0.003 0.016 0.006 0.029 0.010 0.042l-0.001-0.002 0.047 0.196 0.002 0.010c0.016 0.070 0.040 0.131 0.060 0.179l0.024 0.063 0.002 0.007 0.035 0.112c0.007 0.021 0.014 0.040 0.023 0.057l-0.001-0.002 0.054 0.106 0.004 0.008c0.010 0.018 0.020 0.043 0.031 0.070l0.070 0.147c0.148 0.269 0.341 0.53 0.609 0.819l0.012 0.013c0.218 0.214 0.478 0.408 0.818 0.609l0.016 0.009c0.315 0.165 0.652 0.266 0.939 0.342 0.012 0.003 0.026 0.006 0.041 0.009l0.002 0c0.217 0.030 0.464 0.059 0.721 0.059l0.256-0.010 0.020-0.002c0.367-0.051 0.659-0.122 0.918-0.222l0.018-0.008c0.322-0.147 0.568-0.29 0.775-0.45 0.045-0.034 0.080-0.068 0.109-0.096l0.038-0.035 0.008-0.006 0.076-0.061c0.021-0.017 0.040-0.036 0.056-0.057l0.001-0.001 0.060-0.071c0.004-0.005 0.018-0.019 0.029-0.029 0.031-0.030 0.075-0.071 0.114-0.127l0.008-0.011c0.026-0.040 0.054-0.077 0.084-0.113 0.012-0.013 0.022-0.028 0.031-0.042l0.028-0.045c0.126-0.2 0.255-0.406 0.328-0.65 0.042-0.090 0.060-0.175 0.074-0.245l0.018-0.077c0.024-0.059 0.036-0.122 0.038-0.193l0.005-0.049 0.002-0.020 0.004-0.018c0.009-0.038 0.021-0.095 0.020-0.164 0.018-0.444-0.060-0.882-0.226-1.269z"></path>
</symbol>
<symbol id="ab-adv-4" viewBox="0 0 16 16">
<path fill="#67add7" style="fill: var(--color1, #67add7)" d="M9.917 6.012l0.185-0.071c0.513-0.203 1.107-0.32 1.729-0.32 0.003 0 0.007 0 0.010 0h-0.001c1.267 0 2.46 0.48 3.36 1.361l-0.486 0.48c-0.22-0.214-0.464-0.404-0.728-0.566l-0.018-0.010-0.081-0.049-0.288 0.571-0.615-0.303 0.282-0.557-0.094-0.032c-0.286-0.097-0.585-0.162-0.887-0.194l-0.106-0.011 0.064 0.688-0.685 0.065-0.074-0.751-0.087 0.010c-0.264 0.028-0.526 0.081-0.778 0.158l-0.093 0.032 0.31 0.689-0.628 0.276-0.313-0.693-0.084 0.047c-0.188 0.106-0.369 0.228-0.539 0.364l-0.075 0.060 1.030 1.016-0.302 0.298c-0.438 0.433-0.746 0.992-0.888 1.617-0.127 0.541-0.396 1.007-0.766 1.371l-0 0c-0.518 0.508-1.227 0.822-2.010 0.824h-0c-0.020 0-0.039-0-0.059-0.001l-0.037-0.001-2.289 2.258c-0.353 0.347-0.838 0.561-1.372 0.561-0.004 0-0.007-0-0.011-0h0.001c-0.002 0-0.005 0-0.008 0-0.537 0-1.023-0.216-1.376-0.565l0 0c-0.763-0.753-0.763-1.979 0-2.732l2.286-2.252v-0.035c0-0.744 0.349-1.579 0.87-2.078 0.373-0.357 0.843-0.615 1.368-0.73l0.019-0.003c0.609-0.129 1.174-0.438 1.635-0.893l0.28-0.276 1.101 1.085 0.061-0.075c0.138-0.168 0.261-0.347 0.368-0.531l0.048-0.083-0.703-0.309 0.28-0.62 0.698 0.307 0.029-0.092c0.072-0.221 0.129-0.481 0.159-0.749l0.002-0.018 0.010-0.086-0.762-0.072 0.066-0.675 0.698 0.066-0.011-0.105c-0.032-0.298-0.098-0.593-0.196-0.876l-0.032-0.096-0.564 0.277-0.307-0.607 0.578-0.285-0.049-0.080c-0.175-0.277-0.368-0.517-0.586-0.732l-0-0 0.486-0.48c0.89 0.888 1.38 2.064 1.38 3.315 0 0.003 0 0.006 0 0.009 0 0.614-0.119 1.2-0.336 1.737l0.011-0.031-0.072 0.182zM2.491 14.522c0.34 0 0.659-0.13 0.898-0.367l3.292-3.246c0.372-0.367 0.476-0.912 0.266-1.388l-0.051-0.115-0.504 0.498-0.486-0.48 0.505-0.498-0.117-0.051c-0.15-0.066-0.324-0.105-0.508-0.105-0.001 0-0.001 0-0.002 0h0c-0.002 0-0.003-0-0.005-0-0.348 0-0.664 0.14-0.893 0.367l-3.292 3.247c-0.231 0.225-0.375 0.539-0.375 0.886s0.143 0.661 0.374 0.886l0 0c0.229 0.227 0.545 0.367 0.893 0.367 0.002 0 0.004 0 0.006-0h-0zM9.211 8.333l0.051-0.061-1.708-1.684-0.061 0.051c-0.498 0.411-1.086 0.698-1.702 0.829-0.412 0.089-0.769 0.285-1.053 0.557l0.001-0.001c-0.106 0.101-0.204 0.224-0.292 0.365l-0.257 0.411 0.385-0.298c0.656-0.508 1.569-0.55 2.27-0.103l0.059 0.037 0.577-0.569 0.486 0.48-0.577 0.569 0.038 0.059c0.46 0.703 0.411 1.612-0.123 2.262l-0.339 0.412 0.452-0.285c0.133-0.083 0.256-0.181 0.365-0.289 0.291-0.287 0.492-0.646 0.582-1.041 0.144-0.632 0.436-1.22 0.843-1.7zM2.709 12.511c0.070-0.069 0.167-0.112 0.274-0.112 0 0 0.001 0 0.001 0h-0c0.1 0 0.199 0.037 0.275 0.112 0.071 0.069 0.115 0.165 0.115 0.272s-0.044 0.203-0.115 0.271l-0 0-0.512 0.505c-0.070 0.069-0.167 0.112-0.274 0.112-0.001 0-0.001 0-0.002 0h0c-0.104 0-0.202-0.040-0.275-0.112-0.070-0.069-0.114-0.165-0.114-0.272s0.044-0.202 0.114-0.271l0-0 0.511-0.505z"></path>
</symbol>
</defs>
</svg>
