<svg xmlns="http://www.w3.org/2000/svg" width="18" height="18"><path d="M17.034 3.83c0-.228-.138-.434-.35-.52L8.73.042c-.137-.056-.29-.056-.428 0L.35 3.3c-.21.087-.35.293-.35.52v10.34c0 .228.138.434.35.52l7.954 3.268a.56.56 0 0 0 .427 0c.007-.002-.294.12 7.955-3.267.21-.087.35-.293.35-.52V3.83zM8.517 6.537l-2.93-1.204L11.92 2.57l3.127 1.285-6.53 2.682zm-7.39-1.82l2.53 1.04v2.93c0 .31.252.563.563.563S4.78 9 4.78 8.688V6.22l3.173 1.303v9.074l-6.828-2.805V4.718zm7.39-3.546l1.952.802-6.334 2.763-2.148-.883 6.53-2.682zm.563 6.35l6.828-2.805v9.074L9.08 16.597V7.523z" fill="#4e5b67"/></svg>