<svg xmlns="http://www.w3.org/2000/svg" width="16" height="14"><path d="M14.937 9.473L10.6 6.87c-.608-.366-1.284-.598-1.983-.685v-.652c0-.367.2-.71.55-.892.84-.455 1.336-1.332 1.292-2.288C10.4 1.086 9.386.06 8.118.003a2.47 2.47 0 0 0-2.585 2.466c0 .345.28.625.625.625s.625-.28.625-.625A1.22 1.22 0 0 1 8.06 1.251c.62.03 1.13.538 1.16 1.16.022.473-.223.906-.64 1.13-.742.402-1.204 1.165-1.204 1.992v.652c-.697.086-1.37.317-1.976.68L1.068 9.457C.4 9.85.001 10.57 0 11.338c-.001 1.213.98 2.196 2.192 2.197l11.613.014A2.2 2.2 0 0 0 16 11.356c.001-.766-.407-1.488-1.063-1.883zm-1.13 2.825l-11.612-.014c-.52-.001-.944-.425-.944-.946a.95.95 0 0 1 .46-.81h0l4.333-2.593c1.208-.723 2.716-.722 3.923.005l4.327 2.603a.95.95 0 0 1 .458.81c-.001.52-.424.944-.945.944z" fill="#4e5b67"/></svg>