<svg xmlns="http://www.w3.org/2000/svg" width="16" height="15" fill="#4e5b67" opacity=".7"><path fill-rule="evenodd" d="M1 7.864a7.01 7.01 0 007 7 7.01 7.01 0 007-7c0-2.013-.868-3.93-2.382-5.26a.67.67 0 00-.943.061.67.67 0 00.061.943c1.226 1.076 1.928 2.628 1.928 4.257A5.67 5.67 0 018 13.528a5.67 5.67 0 01-5.664-5.664c0-1.63.703-3.18 1.928-4.257a.67.67 0 00.061-.943.67.67 0 00-.943-.061C1.868 3.933 1 5.85 1 7.864zm6.332-.7A.67.67 0 008 7.833a.67.67 0 00.668-.668V1.668A.67.67 0 008 1a.67.67 0 00-.668.668v5.497z"/><path d="M12.618 2.603l-.066.075.066-.075zm-.943.06l.075.066-.075-.066zm.06.943l-.066.075.066-.075zM8 13.528v-.1.1zM2.336 7.864h-.1.1zm1.928-4.257l.066.075-.066-.075zm.06-.943l.075-.066-.075.066zm-.943-.06l.066.075-.066-.075zm3.95 4.562h-.1.1zm0-5.497zM8 14.764a6.91 6.91 0 01-6.9-6.9H.9a7.11 7.11 0 007.1 7.1v-.2zm6.9-6.9a6.91 6.91 0 01-6.9 6.9v.2a7.11 7.11 0 007.1-7.1h-.2zm-2.348-5.185c1.492 1.31 2.348 3.2 2.348 5.185h.2c0-2.042-.88-3.987-2.416-5.336l-.132.15zm-.802.052a.57.57 0 01.802-.052l.132-.15a.77.77 0 00-1.084.07l.15.132zm.052.802a.57.57 0 01-.052-.802l-.15-.132a.77.77 0 00.07 1.084l.132-.15zm1.962 4.332c0-1.658-.715-3.237-1.962-4.332l-.132.15a5.57 5.57 0 011.894 4.182h.2zM8 13.628a5.77 5.77 0 005.764-5.764h-.2A5.57 5.57 0 018 13.428v.2zM2.236 7.864A5.77 5.77 0 008 13.628v-.2a5.57 5.57 0 01-5.564-5.564h-.2zm1.962-4.332C2.95 4.627 2.236 6.206 2.236 7.864h.2c0-1.6.7-3.124 1.894-4.182l-.132-.15zm.052-.802a.57.57 0 01-.052.802l.132.15a.77.77 0 00.07-1.084l-.15.132zm-.802-.052a.57.57 0 01.802.052l.15-.132a.77.77 0 00-1.084-.07l.132.15zM1.1 7.864c0-1.984.856-3.874 2.348-5.185l-.132-.15C1.78 3.877.9 5.822.9 7.864h.2zm6.9-.13a.57.57 0 01-.568-.568h-.2A.77.77 0 008 7.933v-.2zm.568-.568A.57.57 0 018 7.733v.2a.77.77 0 00.768-.768h-.2zm0-5.497v5.497h.2V1.668h-.2zM8 1.1a.57.57 0 01.568.568h.2A.77.77 0 008 .9v.2zm-.568.568A.57.57 0 018 1.1V.9a.77.77 0 00-.768.768h.2zm0 5.497V1.668h-.2v5.497h.2z"/></svg>