<svg width="22" height="19" viewBox="0 0 22 19" fill="none" xmlns="http://www.w3.org/2000/svg">
<path fill-rule="evenodd" clip-rule="evenodd" d="M1.29815 1.07297L4.04315 3.76047C2.1817 5.17665 0.78309 7.09428 0.0190445 9.2779C-0.00634818 9.35039 -0.00634818 9.65172 0.0190445 9.72378C0.305586 10.5452 0.684196 11.3331 1.14794 12.0729C3.19916 15.3668 6.77179 17.4816 10.7025 17.5836H10.7154H10.9995H11.2835H11.2964C13.1775 17.5327 15.016 17.0231 16.6453 16.1009L19.6059 19L20.7016 17.927L2.39391 0L1.29815 1.07297ZM11.2547 16.0247H11.2418H10.9999H10.7584H10.7451C9.08345 15.9776 7.46152 15.5162 6.03282 14.6841C4.59064 13.8412 3.38049 12.6662 2.50753 11.2612L2.50495 11.2578C2.15628 10.7009 1.86286 10.1125 1.62868 9.50084C1.86294 8.88932 2.15637 8.30113 2.50495 7.7443L2.50753 7.74093C3.20203 6.62633 4.10949 5.65332 5.18022 4.87517L7.55681 7.20275C7.01102 7.98827 6.76225 8.93564 6.85337 9.88152C6.9445 10.8274 7.36982 11.7125 8.056 12.3842C8.74218 13.0559 9.6462 13.4721 10.6122 13.5611C11.5782 13.65 12.5456 13.4062 13.3476 12.8715L15.4729 14.9525C14.1674 15.6169 12.7253 15.9834 11.2547 16.0247ZM12.1873 11.7353C11.702 11.9834 11.1485 12.0733 10.6073 11.992C10.0662 11.9108 9.56564 11.6626 9.17852 11.2835C8.7914 10.9044 8.5379 10.4143 8.45492 9.88439C8.37194 9.3545 8.4638 8.8125 8.71713 8.33726L12.1873 11.7353ZM21.9819 9.27794C21.6952 8.45655 21.3166 7.66874 20.853 6.92886C18.8018 3.63534 15.2291 1.52058 11.2984 1.41859H11.2855C11.2385 1.41859 11.1914 1.41764 11.1441 1.4167L11.1441 1.4167C11.0967 1.41575 11.0491 1.41479 11.0015 1.41479C10.9064 1.41479 10.8121 1.41479 10.7174 1.41859H10.7045C9.19989 1.45848 7.71867 1.79293 6.34814 2.40222L7.56613 3.5953C8.58307 3.21602 9.65803 3.00729 10.7458 2.9779H10.7605C10.8107 2.9779 10.8567 2.97692 10.8992 2.97602L10.8992 2.97602C10.9357 2.97525 10.9697 2.97453 11.0015 2.97453C11.0703 2.97453 11.15 2.97453 11.2425 2.9779H11.2563C12.9177 3.02486 14.5395 3.48613 15.9681 4.31806C17.4102 5.16107 18.6203 6.33604 19.4934 7.74096V7.74434C19.8421 8.30108 20.1356 8.88929 20.3697 9.50088C20.1367 10.1122 19.8446 10.7002 19.4973 11.257C19.4964 11.2582 19.4957 11.2594 19.4951 11.2608C18.9867 12.0761 18.3637 12.8174 17.6445 13.4628L18.7729 14.5674C19.5807 13.8335 20.2811 12.9939 20.8543 12.0725C21.3176 11.3327 21.6961 10.545 21.9827 9.72382C22.0068 9.65091 22.0068 9.35043 21.9819 9.27794ZM14.9446 10.8199L13.5747 9.47808C13.5685 8.81682 13.2975 8.18435 12.82 7.71674C12.3424 7.24913 11.6965 6.98376 11.0212 6.97771L9.65088 5.63629C10.3886 5.38945 11.1823 5.35011 11.9418 5.52273C12.7012 5.69535 13.396 6.07301 13.9473 6.61283C14.4986 7.15266 14.8843 7.83303 15.0606 8.57669C15.2369 9.32035 15.1967 10.0975 14.9446 10.8199Z" fill="#4E5B67"/>
</svg>
