<svg width="20" height="15" viewBox="0 0 20 15" fill="none" xmlns="http://www.w3.org/2000/svg">
<path fill-rule="evenodd" clip-rule="evenodd" d="M18.9569 4.96013C19.3783 5.62563 19.7225 6.33425 19.9832 7.07306C20.0059 7.13826 20.0059 7.4093 19.9816 7.47412C19.721 8.21276 19.3769 8.92125 18.9557 9.58668C17.0921 12.5495 13.8438 14.452 10.2696 14.5438H10.2579C10.2152 14.5457 10.1073 14.5457 9.99966 14.5457C9.93374 14.5457 9.86783 14.545 9.81676 14.5444C9.78446 14.5441 9.75809 14.5438 9.74142 14.5438H9.72968C6.15626 14.452 2.90837 12.5499 1.0436 9.58705C0.622005 8.92163 0.277809 8.21299 0.0173135 7.47412C-0.00577116 7.4093 -0.00577116 7.13826 0.0173135 7.07306C0.278062 6.3341 0.622382 5.62536 1.04399 4.95975C2.90837 1.99732 6.15626 0.0951465 9.73007 0.00341163H9.74181C9.82789 0 9.91358 0 10 0C10.0865 0 10.173 0 10.2583 0.0037907H10.27C13.8442 0.0955256 17.0921 1.9977 18.9569 4.96013ZM17.7213 8.8581C17.7218 8.85689 17.7224 8.85574 17.7232 8.85469L17.7244 8.85318C18.0402 8.35236 18.3057 7.82342 18.5175 7.27359C18.3047 6.72348 18.0379 6.1944 17.7209 5.69363V5.6906C16.9272 4.42691 15.827 3.37005 14.516 2.61179C13.2173 1.86335 11.7429 1.44832 10.2325 1.40597H10.2199C10.1358 1.40294 10.0634 1.40294 10.0008 1.40294C9.97191 1.40294 9.94107 1.40358 9.90788 1.40428C9.86923 1.40509 9.8274 1.40597 9.78172 1.40597H9.76842C8.2578 1.44826 6.7833 1.86329 5.48446 2.61179C4.17337 3.36995 3.07322 4.42683 2.27961 5.6906L2.27726 5.69363C1.96036 6.19449 1.69361 6.72355 1.48064 7.27359C1.69353 7.82379 1.96028 8.35298 2.27726 8.85393L2.27961 8.85697C3.07322 10.1207 4.17337 11.1776 5.48446 11.9358C6.7833 12.6843 8.2578 13.0993 9.76842 13.1416H9.78055H10H10.2199H10.2317C11.7424 13.0994 13.2171 12.6843 14.516 11.9358C15.8271 11.1779 16.9273 10.1214 17.7213 8.8581ZM7.89552 4.21966C8.51849 3.81638 9.25091 3.60113 10.0002 3.60113C11.0049 3.60113 11.9684 3.9878 12.6788 4.67609C13.3893 5.36438 13.7884 6.2979 13.7884 7.27128C13.7884 7.99717 13.5662 8.70675 13.15 9.31031C12.7337 9.91386 12.1421 10.3843 11.4498 10.6621C10.7576 10.9398 9.99595 11.0125 9.2611 10.8709C8.52626 10.7293 7.85126 10.3798 7.32146 9.86647C6.79167 9.35319 6.43088 8.69923 6.28471 7.98729C6.13854 7.27535 6.21356 6.53741 6.50028 5.86677C6.787 5.19614 7.27255 4.62294 7.89552 4.21966ZM8.69981 9.15672C9.08471 9.40588 9.53723 9.53888 10.0002 9.53888V9.54039C10.621 9.53969 11.2161 9.30035 11.6549 8.87492C12.0937 8.44948 12.3404 7.87273 12.3407 7.27128C12.3407 6.82279 12.2034 6.38438 11.9462 6.01147C11.6891 5.63857 11.3235 5.34792 10.8958 5.1763C10.4682 5.00467 9.99755 4.95976 9.54353 5.04726C9.08951 5.13475 8.67246 5.35072 8.34513 5.66785C8.0178 5.98498 7.79488 6.38902 7.70457 6.8289C7.61426 7.26877 7.66061 7.7247 7.83776 8.13905C8.01491 8.5534 8.31491 8.90755 8.69981 9.15672Z" fill="#4E5B67"/>
</svg>
