<svg width="8" height="12" viewBox="0 0 8 12" fill="none" xmlns="http://www.w3.org/2000/svg">
<path fill-rule="evenodd" clip-rule="evenodd" d="M3.45332 0.14982L0.151107 3.42323C-0.0503691 3.62295 -0.0503691 3.94686 0.151107 4.14658C0.352625 4.34634 0.679297 4.34634 0.880814 4.14658L3.30221 1.7463L3.30221 11.4885C3.30221 11.771 3.53324 12 3.81818 12C4.10308 12 4.33415 11.771 4.33415 11.4885L4.33415 1.7463L6.75554 4.14649C6.95706 4.34625 7.28373 4.34625 7.48525 4.14649C7.58592 4.04665 7.63636 3.91572 7.63636 3.78482C7.63636 3.65393 7.58592 3.52303 7.48525 3.42315L4.18303 0.14982C3.98151 -0.0499411 3.65484 -0.0499411 3.45332 0.14982Z" fill="#4E5B67"/>
</svg>
