<svg xmlns="http://www.w3.org/2000/svg" width="18" height="18"><path fill-rule="evenodd" d="M4.22 7.137H2.83a6.17 6.17 0 0 1 1.783-3.902A6.21 6.21 0 0 1 9 1.406a6.21 6.21 0 0 1 4.387 1.829 6.17 6.17 0 0 1 1.783 3.902h-1.39c-.388 0-.703.315-.703.703v7.348c0 .388-.315.703-.703.703H10.23v.022c-.24-.433-.7-.725-1.23-.725-.777 0-1.406.63-1.406 1.406S8.223 18 9 18c.53 0 .99-.293 1.23-.725v.022h2.145c1.163 0 2.11-.946 2.11-2.11v-.035h.703c1.55 0 2.813-1.262 2.813-2.812V9.95c0-.11-.006-.217-.018-.322-.104-.903-.636-1.677-1.39-2.113a7.54 7.54 0 0 0-1.242-4.087c-.4-.6-.888-1.16-1.452-1.635C12.536.636 10.826.004 9.02 0a9.64 9.64 0 0 0-.05 0C7.166.007 5.46.64 4.1 1.79c-.563.475-1.05 1.025-1.452 1.635a7.54 7.54 0 0 0-1.242 4.088C.567 8 0 8.9 0 9.95v2.39c0 1.55 1.262 2.813 2.813 2.813H4.22c.388 0 .703-.315.703-.703V7.84c0-.388-.315-.703-.703-.703zm-.703 6.61h-.703a1.41 1.41 0 0 1-1.406-1.406V9.95a1.41 1.41 0 0 1 1.406-1.406h.703v5.203zm13.078-1.406a1.41 1.41 0 0 1-1.406 1.406h-.703V8.543h.703a1.41 1.41 0 0 1 1.406 1.406v2.39z" fill="#4e5b67"/></svg>