<svg xmlns="http://www.w3.org/2000/svg" width="50" height="50" fill="none" xmlns:v="https://vecta.io/nano"><path fill-rule="evenodd" d="M16.88 25.042V20.92a16.53 16.53 0 0 0-2.883-9.348 1.17 1.17 0 0 1 .968-1.831c1.965 0 3.814.5 5.422 1.403l3.72-4.137a1.17 1.17 0 0 1 .871-.388h0a1.17 1.17 0 0 1 .871.389l3.73 4.155c1.615-.904 3.476-1.42 5.454-1.42a1.17 1.17 0 0 1 .968 1.831 16.53 16.53 0 0 0-2.883 9.348v4.123A8.13 8.13 0 0 1 25 33.161a8.13 8.13 0 0 1-8.119-8.119zm10.774-12.52L24.977 9.54l-2.66 2.958c1.105.963 2.022 2.138 2.683 3.463.655-1.313 1.562-2.48 2.654-3.438zM25 22.117a1.17 1.17 0 0 1-1.171-1.171c0-4.122-2.83-7.596-6.647-8.583 1.34 2.642 2.04 5.558 2.04 8.556v4.123c0 3.186 2.592 5.777 5.777 5.777s5.777-2.592 5.777-5.777V20.92c0-2.998.7-5.914 2.04-8.556-3.818.987-6.647 4.46-6.647 8.583A1.17 1.17 0 0 1 25 22.117zm2.5 14.825c0-2.25 1.83-4.078 4.078-4.078a4.81 4.81 0 0 1 4.805 4.805 5.72 5.72 0 0 1-5.714 5.714c-2.36 0-4.446-1.2-5.678-3.023-1.232 1.823-3.318 3.023-5.678 3.023a5.72 5.72 0 0 1-5.714-5.714 4.81 4.81 0 0 1 4.805-4.805c2.25 0 4.078 1.83 4.078 4.078a1.17 1.17 0 1 1-2.342 0 1.74 1.74 0 0 0-1.736-1.736c-1.358 0-2.463 1.105-2.463 2.463 0 1.86 1.513 3.372 3.372 3.372 2.485 0 4.508-2.022 4.508-4.507v-1.797a1.17 1.17 0 1 1 2.342 0v1.797c0 2.485 2.022 4.507 4.507 4.507 1.86 0 3.372-1.512 3.372-3.372 0-1.358-1.105-2.463-2.463-2.463a1.74 1.74 0 0 0-1.736 1.736 1.17 1.17 0 1 1-2.342 0z" fill="#67add7"/></svg>