<svg xmlns="http://www.w3.org/2000/svg" width="538" height="450" fill="none" xmlns:v="https://vecta.io/nano"><path opacity=".1" fill-rule="evenodd" d="M34.093 332.154c1.915-1.9 1.915-4.938 0-6.837-15.706-15.575-24.516-36.468-24.516-58.88 0-45.964 37.924-83.57 84.275-83.57 16.47 0 37.54 6.458 52.098 15.954 9.193 6.078 17.62 12.536 25.282 18.994l-26.815 50.522c-13.8 23.552-31.794 30-46.734 30-18.004 0-32.56-14.435-32.56-32.29s14.557-32.29 32.56-32.29c3.065 0 6.13.76 9.194 1.52 6.512 1.52 9.96-7.598 2.68-9.117-3.83-.76-7.66-1.9-11.875-1.9-23.367 0-42.137 18.613-42.137 41.785s18.77 41.786 42.137 41.786c25.666 0 71.25-7.978 101.513-61.92 12.258 14.055 23.367 28.5 33.7 43.305l-25.665 70.656c-9.96 25.07-22.6 49.383-48.65 67.616-4.98 3.42-16.09 9.117-28.347 13.296-6.13 1.9-4.597 11.396 3.448 8.737 62.44-22.033 104.96-64.198 125.646-121.938 27.964 41.026 68.186 93.068 149.013 93.068 68.952 0 129.477-55.46 129.477-123.838 0-80.152-63.206-123.457-122.965-123.457-50.182 0-86.956 37.987-86.956 82.812 0 43.684 33.327 76.733 77.38 76.733 7.278 0 13.407-6.078 13.407-13.295 0-7.598-6.13-13.296-13.407-13.296-7.662 0-13.408 6.078-13.408 13.296 0 1.14 0 1.9.383 3.04-32.177-5.698-54.778-32.29-54.778-66.098 0-39.886 34.476-73.694 77.38-73.694 53.63 0 84.275 53.94 84.275 104.844 0 62.298-55.545 112.82-118.75 112.82-54.78 0-93.468-50.143-117.22-83.95l72.4-200.95c3.448-9.876 6.895-19.753 11.11-29.63l61.674-7.218c5.363-.38 4.597-8.357-.766-7.977-1.915.38-30.262 3.04-57.077 6.078C362 51.43 378.088 27.5 409.882 11.925c-.766 7.217 4.597 14.055 11.875 14.815s14.174-4.558 14.94-11.776S432.1.91 424.822.15c-1.915-.38-3.83 0-5.746.76C372.342 17.243 337.1 44.594 313.732 81.06c-8.044.76-13.407 1.52-13.407 1.52-25.665 2.66-68.952 16.714-96.533 74.834l-28.347 53.18c-7.66-6.458-15.706-12.535-24.516-18.613-16.09-10.637-39.073-17.474-57.077-17.474C42.137 174.51 0 216.294 0 267.577c0 24.69 9.577 47.863 27.198 65.337 1.915 1.14 4.98 1.14 6.895-.76zm214.135-180.437c19.153-38.747 38.7-58.88 53.246-60.4 0 0 2.3-.38 6.512-.76-6.13 11.016-11.492 22.412-15.705 34.568l-55.545 153.087c-10.343-14.055-21.07-28.1-32.944-41.406l44.436-85.1z" fill="#67add7"/></svg>