<svg xmlns="http://www.w3.org/2000/svg" width="170" height="45" fill="#4e5b67" fill-rule="evenodd"><path d="M3.4 33.215a.48.48 0 0 0 0-.684C1.834 30.974.955 28.885.955 26.644c0-4.596 3.783-8.357 8.407-8.357 1.643 0 3.745.646 5.197 1.595a27.17 27.17 0 0 1 2.522 1.899l-2.675 5.052c-1.376 2.355-3.172 3-4.662 3-1.796 0-3.248-1.443-3.248-3.23s1.452-3.23 3.248-3.23c.306 0 .6.076.917.152.65.152.994-.76.268-.912-.382-.076-.764-.2-1.185-.2a4.18 4.18 0 0 0-4.204 4.18c0 2.32 1.873 4.18 4.204 4.18 2.56 0 7.108-.798 10.127-6.192a50.76 50.76 0 0 1 3.363 4.33l-2.56 7.066c-.994 2.507-2.255 4.938-4.853 6.762-.497.342-1.605.912-2.828 1.33-.6.2-.46 1.14.344.874 6.23-2.203 10.47-6.42 12.535-12.194 2.8 4.103 6.802 9.307 14.866 9.307 6.88 0 12.917-5.546 12.917-12.384 0-8.015-6.305-12.346-12.267-12.346-5.006 0-8.675 3.8-8.675 8.28 0 4.368 3.325 7.673 7.72 7.673a1.35 1.35 0 0 0 1.337-1.33c0-.76-.6-1.33-1.337-1.33-.764 0-1.338.608-1.338 1.33a.83.83 0 0 0 .038.304c-3.2-.57-5.465-3.23-5.465-6.6 0-4 3.44-7.37 7.72-7.37 5.35 0 8.407 5.394 8.407 10.484 0 6.23-5.54 11.282-11.847 11.282-5.465 0-9.324-5.014-11.694-8.395l7.223-20.095c.344-.988.688-1.975 1.108-2.963l6.153-.722c.535-.038.46-.836-.077-.798-.2.038-3.02.304-5.694.608C36.113 5.14 37.72 2.746 40.9 1.188a1.36 1.36 0 0 0 1.185 1.481c.726.076 1.414-.456 1.5-1.178A1.36 1.36 0 0 0 42.38.015c-.2-.038-.382 0-.573.076-4.662 1.633-8.178 4.368-10.5 8.015-.803.076-1.338.152-1.338.152-2.56.266-6.88 1.67-9.63 7.483L17.5 21.06a31.28 31.28 0 0 0-2.446-1.86c-1.605-1.064-3.898-1.747-5.694-1.747C4.204 17.45 0 21.63 0 26.758c0 2.47.955 4.786 2.713 6.534.2.114.497.114.688-.076zM24.762 15.17c1.9-3.875 3.86-5.888 5.312-6.04 0 0 .23-.038.65-.076-.612 1.102-1.147 2.24-1.567 3.457l-5.54 15.3c-1.032-1.405-2.102-2.8-3.286-4.14l4.433-8.5zm43.77-9.113h-.593l-5.632 13.398h1.6l1.736-4.096h5.2l1.736 4.096h1.65L68.533 6.058zm-2.287 7.893l2.033-5.035 2.033 5.035h-4.065zm47.217-7.893l-5.675 13.398h1.6l1.736-4.096h5.2l1.736 4.096h1.65l-5.717-13.398h-.55zm-1.736 7.893l2.032-5.035 2.033 5.035h-4.065zm-27.865 5.504h-7.75V6.27h1.567v11.776h6.225v1.408h-.042zm10.46 0h-8.597V6.27H94.1v1.4h-6.86v4.352h4.404v1.408H87.25v4.608h7.072v1.408zm63.097 0h-8.638V6.27h8.384v1.4h-6.86v4.352h4.404v1.408h-4.404v4.608h7.072v1.408h.042zm-50.986 0h-1.778l-3.515-5.42-3.557 5.42h-1.82l4.5-6.742L96.06 6.27h1.78l3.26 5.12 3.218-5.12h1.78L102 12.713l4.446 6.742zm24.054-3.243V6.27h1.566v13.4h-.55L123.16 9.556v9.9h-1.566V6.058h.55l8.343 10.155zm4.827-9.942v13.184h3.896c2.202 0 3.896-.64 5.2-1.877 1.27-1.237 1.905-2.816 1.905-4.736s-.635-3.5-1.905-4.736-3.007-1.835-5.2-1.835h-3.896zm7.92 2.86c.974.94 1.482 2.22 1.482 3.755s-.508 2.773-1.482 3.755-2.33 1.493-4.023 1.493h-2.33V7.764l2.287-.043c1.736-.043 3.1.427 4.065 1.408zm17.743 4.78h2.795l4.066 5.547h1.778l-4.15-5.717c.847-.256 1.525-.683 2.033-1.323s.72-1.408.72-2.304c0-1.1-.38-2.048-1.144-2.773s-1.778-1.067-3.05-1.067H159.4v13.184h1.566V13.9zm0-6.23h3.007c.847 0 1.482.213 1.948.683s.678 1.024.678 1.75-.254 1.323-.678 1.75c-.466.427-1.1.64-1.948.64h-3.007V7.68zM121.9 26.1l-5.674 13.398h1.6l1.736-4.096h5.2l1.736 4.096h1.65L122.44 26.1h-.55zm-1.736 7.936l2.032-5.035 2.033 5.035h-4.065zM80.856 26.1c-1.906 0-3.515.64-4.828 1.963s-1.948 2.944-1.948 4.864.635 3.54 1.948 4.864 2.922 1.963 4.828 1.963 3.472-.64 4.828-1.963c1.313-1.323 2-2.944 2-4.864s-.635-3.54-2-4.864c-1.355-1.28-2.964-1.963-4.828-1.963zm3.727 10.667c-.974 1.024-2.202 1.536-3.727 1.536-1.482 0-2.753-.512-3.727-1.536s-1.482-2.304-1.482-3.84.508-2.816 1.482-3.84 2.202-1.536 3.727-1.536c1.482 0 2.7.512 3.727 1.536.974 1.024 1.482 2.304 1.482 3.797 0 1.58-.508 2.86-1.482 3.883zm11.52-3.883h6.013v3.5c-.593 1.024-1.398 1.877-2.456 2.475-1.06.64-2.244.94-3.515.94-1.906 0-3.515-.64-4.828-1.963s-1.948-2.944-1.948-4.864.635-3.54 1.948-4.864 3.05-1.963 4.828-1.963a7.17 7.17 0 0 1 3.049.768c.932.47 1.694 1.152 2.287 2.005l-1.186.94c-1.06-1.45-2.456-2.176-4.15-2.176-1.525 0-2.753.512-3.727 1.536s-1.482 2.304-1.482 3.84.508 2.816 1.482 3.883c.974 1.024 2.244 1.58 3.77 1.58.932 0 1.82-.213 2.54-.64.762-.427 1.355-.98 1.82-1.707V34.4H96.1v-1.493zm12.534-6.528h-3.896V39.55h3.896c2.202 0 3.896-.64 5.2-1.877 1.27-1.237 1.906-2.816 1.906-4.736s-.635-3.5-1.906-4.736c-1.313-1.237-3.05-1.835-5.2-1.835zm4.023 10.368c-.974.98-2.33 1.493-4.065 1.493h-2.33v-10.4l2.287-.043c1.736 0 3.1.47 4.065 1.45.974.94 1.482 2.22 1.482 3.755.043 1.493-.423 2.773-1.44 3.755zm26.256-10.368h1.566v13.397h-.55L131.6 29.65v9.9h-1.525V26.1h.55l8.342 10.155v-9.9h-.042zm10.798-.256c-1.905 0-3.515.64-4.827 1.963s-1.948 2.944-1.948 4.864.635 3.54 1.948 4.864 2.922 1.963 4.827 1.963c1.863 0 3.473-.64 4.828-1.963 1.312-1.323 2-2.944 2-4.864s-.635-3.54-2-4.864c-1.313-1.28-2.922-1.963-4.828-1.963zm3.727 10.667c-.974 1.024-2.202 1.536-3.727 1.536-1.482 0-2.752-.512-3.726-1.536s-1.483-2.304-1.483-3.84.5-2.816 1.483-3.84 2.202-1.536 3.726-1.536c1.482 0 2.7.512 3.727 1.536.974 1.024 1.482 2.304 1.482 3.797 0 1.58-.466 2.86-1.482 3.883zm13.763-10.4h1.693l-5.674 13.397h-.593l-5.674-13.397h1.693l4.277 10.326 4.278-10.326zM72.556 30.08c0-1.1-.762-3.712-4.15-3.712h-5.378v13.184h5.378c3.388 0 4.15-2.603 4.15-3.712 0-.725-.508-2.176-1.78-2.9 1.27-.683 1.78-2.133 1.78-2.86zm-1.567 5.76c0 .683-.55 2.304-2.7 2.304h-3.684V33.58h3.684c2.033-.043 2.7 1.58 2.7 2.26zm-2.7-3.584h-3.684v-4.523h3.684c2.202 0 2.7 1.536 2.7 2.22 0 .725-.678 2.304-2.7 2.304z"/></svg>