<svg xmlns="http://www.w3.org/2000/svg" width="50" height="40" fill="none" xmlns:v="https://vecta.io/nano"><path opacity=".5" fill-rule="evenodd" d="M11.7 17.434c1.136 0 2.303.17 3.47.507 2.846.82 5.2 2.67 6.63 5.208 1.445 2.567 1.803 5.542 1 8.38-1.328 4.745-5.692 8.06-10.614 8.06-.016 0-.03-.001-.047-.001h-.001c-3.99-.156-7.09-1.714-9.213-4.63C-.86 29.742-.408 21.46 1.133 15.95 3.76 6.56 9.982 0 16.265 0a8.69 8.69 0 0 1 1.171.08c.355.05.673.25.87.55s.255.67.158 1.017L17.32 5.738c-.132.472-.53.822-1.014.895-5.235.778-7.863 7.688-8.957 11.693 1.135-.49 2.598-.892 4.352-.892zm30.246.507c2.846.82 5.2 2.67 6.63 5.208a10.96 10.96 0 0 1 1.011 8.379c-1.328 4.745-5.692 8.06-10.614 8.06-.016 0-.032-.001-.048-.001h-.001c-3.988-.155-7.09-1.713-9.213-4.63-3.797-5.215-3.345-13.498-1.805-19.007C30.535 6.56 36.758 0 43.04 0a8.68 8.68 0 0 1 1.17.08 1.24 1.24 0 0 1 .87.549c.197.3.255.67.158 1.017l-1.144 4.092c-.133.472-.53.822-1.014.895-5.235.778-7.863 7.688-8.957 11.693a10.91 10.91 0 0 1 4.352-.892 12.56 12.56 0 0 1 3.47.507z" fill="#67add7"/></svg>