<svg width="22" height="19" fill="none" xmlns="http://www.w3.org/2000/svg"><path fill-rule="evenodd" clip-rule="evenodd" d="M1.298 1.073L4.043 3.76A11.862 11.862 0 00.02 9.278a1.314 1.314 0 000 .446c.287.821.665 1.61 1.129 2.349 2.051 3.294 5.624 5.409 9.555 5.51h.593c1.882-.05 3.72-.56 5.35-1.482L19.605 19l1.096-1.073L2.394 0 1.298 1.073zm9.957 14.952h-.51a9.925 9.925 0 01-4.712-1.34 10.212 10.212 0 01-3.525-3.424l-.003-.003A10.15 10.15 0 011.629 9.5c.234-.612.527-1.2.876-1.757l.003-.003A10.238 10.238 0 015.18 4.875l2.377 2.328a4.016 4.016 0 00.499 5.181 4.235 4.235 0 005.292.487l2.125 2.082a9.917 9.917 0 01-4.218 1.072zm.932-4.29a2.619 2.619 0 01-3.008-.451 2.5 2.5 0 01-.724-1.4 2.473 2.473 0 01.262-1.547l3.47 3.398zm9.795-2.457a11.663 11.663 0 00-1.129-2.35c-2.051-3.293-5.624-5.407-9.555-5.51h-.012l-.142-.001-.143-.002c-.095 0-.189 0-.284.004h-.013c-1.504.04-2.985.374-4.356.983l1.218 1.193a9.864 9.864 0 013.18-.617h.014l.14-.002.101-.001c.07 0 .149 0 .242.003h.013a9.924 9.924 0 014.712 1.34 10.216 10.216 0 013.525 3.423v.003c.35.557.643 1.145.877 1.757a10.146 10.146 0 01-.875 1.76 10.239 10.239 0 01-1.85 2.202l1.128 1.104a11.776 11.776 0 002.081-2.495c.464-.74.842-1.527 1.129-2.348a1.362 1.362 0 00-.001-.446zm-7.037 1.542l-1.37-1.342a2.498 2.498 0 00-.755-1.761 2.605 2.605 0 00-1.799-.74l-1.37-1.34a4.254 4.254 0 012.29-.114c.76.172 1.455.55 2.006 1.09a4.06 4.06 0 011.114 1.964c.176.743.136 1.52-.116 2.243z" fill="#4E5B67"/></svg>