<svg width="20" height="15" fill="none" xmlns="http://www.w3.org/2000/svg"><path fill-rule="evenodd" clip-rule="evenodd" d="M18.957 4.96a10.45 10.45 0 011.026 2.113 1.15 1.15 0 01-.001.401 10.494 10.494 0 01-1.026 2.113 10.604 10.604 0 01-8.686 4.957h-.012c-.043.002-.15.002-.258.002l-.183-.002H9.73a10.607 10.607 0 01-8.686-4.957A10.424 10.424 0 01.017 7.474a1.17 1.17 0 010-.4c.261-.74.605-1.449 1.027-2.114A10.606 10.606 0 019.73.003h.012C9.828 0 9.914 0 10 0c.086 0 .173 0 .258.004h.012a10.607 10.607 0 018.687 4.956zM17.72 8.858l.002-.003.001-.002c.316-.5.582-1.03.793-1.58a9.076 9.076 0 00-.796-1.58v-.002a9.243 9.243 0 00-3.205-3.08 9.094 9.094 0 00-4.284-1.205h-.012c-.084-.003-.157-.003-.22-.003l-.092.001-.126.002h-.014a9.094 9.094 0 00-4.284 1.206A9.24 9.24 0 002.28 5.69l-.003.003c-.317.5-.583 1.03-.796 1.58.213.55.48 1.079.796 1.58l.003.003a9.24 9.24 0 003.204 3.079 9.094 9.094 0 004.284 1.206h.464a9.094 9.094 0 004.284-1.206 9.243 9.243 0 003.205-3.078zM7.896 4.22A3.876 3.876 0 0110 3.6a3.85 3.85 0 012.679 1.075 3.613 3.613 0 011.11 2.595 3.59 3.59 0 01-.639 2.04 3.765 3.765 0 01-1.7 1.351 3.902 3.902 0 01-2.189.209 3.827 3.827 0 01-1.94-1.005 3.636 3.636 0 01-1.036-1.879 3.564 3.564 0 01.215-2.12A3.698 3.698 0 017.896 4.22zM8.7 9.157c.385.249.837.382 1.3.382v.001a2.38 2.38 0 001.655-.665 2.235 2.235 0 00.686-1.604c0-.448-.138-.887-.395-1.26a2.326 2.326 0 00-1.05-.835 2.41 2.41 0 00-1.352-.129 2.365 2.365 0 00-1.199.62c-.327.318-.55.722-.64 1.162-.09.44-.044.896.133 1.31.177.414.477.769.862 1.018z" fill="#4E5B67"/></svg>