<svg xmlns="http://www.w3.org/2000/svg" width="24" height="24" fill="none"><path fill-rule="evenodd" d="M4.71.042c0 .07 1.255.06 1.28-.01s.17.067.17.166c0 .04.02.07.045.07s.045.082.045.18.02.18.045.18.045.06.045.136.02.136.045.136.045.082.045.18.02.18.045.18.045.06.045.136.02.136.045.136.045.082.045.18.02.18.045.18.045.082.045.18.02.18.045.18.045.06.045.136.02.136.045.136.045.082.045.18.02.18.045.18.045.06.045.136.02.136.045.136.045.082.045.18c0 .15.015.18.09.18s.09-.03.09-.18c0-.1.02-.18.045-.18s.045-.082.045-.18.02-.18.045-.18.045-.082.045-.18.02-.18.045-.18.045-.06.045-.136.02-.136.045-.136.045-.082.045-.18.02-.18.045-.18.045-.082.045-.18.02-.18.045-.18.045-.082.045-.18.02-.18.045-.18.045-.06.045-.136.02-.136.045-.136S7.97.73 7.97.63 8 .45 8.015.45 8.06.368 8.06.27V.09h.86c.543 0 .86.017.86.045S9.76.18 9.735.18 9.69.22 9.69.27s-.02.09-.045.09S9.6.42 9.6.495 9.58.63 9.555.63 9.51.69 9.51.766s-.02.136-.045.136-.045.06-.045.136-.02.136-.045.136-.045.06-.045.136-.02.136-.045.136-.045.06-.045.136-.02.136-.045.136-.045.06-.045.136-.02.136-.045.136-.045.06-.045.136-.02.136-.045.136-.045.06-.045.136-.02.136-.045.136-.045.04-.045.09-.02.09-.045.09-.045.06-.045.136-.02.136-.045.136-.045.06-.045.136-.02.136-.045.136-.045.06-.045.136-.02.136-.045.136-.045.06-.045.136-.02.136-.045.136-.045.06-.045.136-.02.136-.045.136-.045.06-.045.136-.02.136-.045.136-.045.06-.045.136-.02.136-.045.136-.045.06-.045.136-.02.136-.045.136-.045.06-.045.136-.02.136-.045.136-.045.664-.045 1.902v1.902H6.34v-1.86L6.294 5.25c-.025 0-.045-.06-.045-.136s-.02-.136-.045-.136-.045-.04-.045-.09-.02-.09-.045-.09-.045-.06-.045-.136-.02-.136-.045-.136-.045-.06-.045-.136-.02-.136-.045-.136-.045-.06-.045-.136-.02-.136-.045-.136-.045-.06-.045-.136-.02-.136-.045-.136-.045-.06-.045-.136-.02-.136-.045-.136-.045-.06-.045-.136-.02-.136-.045-.136-.045-.06-.045-.136-.02-.136-.045-.136-.045-.06-.045-.136-.02-.136-.045-.136-.045-.06-.045-.136-.02-.136-.045-.136-.045-.06-.045-.136-.02-.136-.045-.136-.045-.06-.045-.136-.02-.136-.045-.136-.045-.06-.045-.136-.02-.136-.045-.136-.045-.06-.045-.136-.02-.136-.045-.136-.045-.06-.045-.136S4.879.99 4.854.99 4.8.952 4.8.902s-.02-.09-.045-.09S4.71.73 4.71.63 4.69.45 4.664.45 4.62.41 4.62.36 4.6.27 4.575.27c-.063 0-.056-.127.01-.204S4.71-.02 4.71.044zm7.426 2.174c0 .025.102.045.226.045s.226.02.226.045.04.045.09.045.09.02.09.045.04.045.09.045.09.02.09.045.03.045.07.045c.1 0 .565.475.565.565 0 .038.02.07.045.07s.045.04.045.09.02.09.045.09.045.102.045.226.02.226.045.226.045.634.045 1.81l-.045 1.81c-.025 0-.045.12-.045.272s-.02.272-.045.272-.045.057-.045.126-.037.153-.09.19-.09.092-.09.125c0 .077-.296.373-.373.373-.033 0-.09.04-.125.09s-.117.09-.19.09-.126.02-.126.045-.06.045-.136.045-.136.02-.136.045-.226.045-.59.045-.59-.017-.59-.045-.082-.045-.18-.045-.18-.02-.18-.045-.036-.045-.08-.045-.1-.04-.146-.09-.092-.09-.124-.09c-.082 0-.464-.4-.464-.474 0-.038-.02-.07-.045-.07s-.045-.04-.045-.09-.02-.09-.045-.09-.045-.06-.045-.136-.02-.136-.045-.136-.045-.74-.045-2.128l.045-2.128c.025 0 .045-.06.045-.136s.02-.136.045-.136.045-.04.045-.09.02-.09.045-.09.045-.03.045-.07c0-.085.29-.383.373-.383.033 0 .09-.04.125-.09s.102-.09.146-.09.08-.02.08-.045.06-.045.136-.045.136-.02.136-.045.12-.045.272-.045.272-.02.272-.045.12-.045.272-.045.272.02.272.045zm4.1.2c.054.055.065.47.065 2.652 0 2.727-.001 2.717.197 2.717.037 0 .08.025.094.057.02.045.032.045.053 0 .015-.03.08-.057.15-.057s.15-.04.187-.09.092-.09.125-.09.1-.05.17-.11l.11-.11V2.35h.66c.51 0 .674.015.724.065s.065.557.065 3.306v3.24h-1.45v-.317c0-.174-.012-.317-.026-.317s-.105.082-.2.18-.202.18-.236.18-.09.04-.127.09-.102.09-.146.09-.08.02-.08.045-.06.045-.136.045-.136.02-.136.045-.18.045-.453.045-.453-.018-.453-.045-.03-.045-.07-.045c-.09 0-.292-.202-.292-.292 0-.038-.02-.07-.045-.07s-.045-.06-.045-.136-.02-.136-.045-.136-.045-1.026-.045-2.99V2.35h.66c.512 0 .674.015.725.065zm-4.86 1.182l-.147.154v1.926l.045 1.926c.025 0 .045.032.045.07 0 .092.11.2.2.2.04 0 .07.02.07.045s.082.045.18.045.18-.02.18-.045.03-.045.07-.045.12-.05.18-.11l.11-.11V3.66l-.11-.11c-.095-.095-.152-.11-.396-.108-.263.003-.296.015-.432.157zM20.106 11c0 .025.12.045.272.045s.272.02.272.045.06.045.136.045.136.02.136.045.06.045.136.045.136.02.136.045.04.045.09.045.09.02.09.045.057.045.126.045.153.037.19.09.102.09.146.09.08.02.08.045.032.045.072.045.13.06.2.136.15.136.177.136c.066 0 .728.662.728.728 0 .028.06.107.136.177s.136.16.136.2.02.072.045.072.045.04.045.09.02.09.045.09.045.04.045.09.02.09.045.09.045.04.045.09.02.09.045.09.045.06.045.136.02.136.045.136.045.06.045.136.02.136.045.136.045.102.045.226.02.226.045.226.045.815.045 2.355l-.045 2.355c-.025 0-.045.102-.045.226s-.02.226-.045.226-.045.06-.045.136-.02.136-.045.136-.045.06-.045.136-.02.136-.045.136-.045.04-.045.09-.02.1-.045.1-.045.04-.045.09-.02.09-.045.09-.045.04-.045.1-.02.09-.045.09-.045.033-.045.072-.06.13-.136.2-.136.15-.136.177c0 .066-.662.728-.728.728-.028 0-.108.06-.177.136s-.16.136-.2.136-.072.02-.072.045-.036.045-.08.045-.1.04-.146.09-.117.09-.19.09-.126.02-.126.045-.04.045-.09.045-.09.02-.09.045-.06.045-.136.045-.136.02-.136.045-.06.045-.136.045-.136.02-.136.045-.12.045-.272.045-.272.02-.272.045-2.732.045-8.106.045-8.106-.015-8.106-.045-.12-.05-.271-.05-.272-.02-.272-.045-.06-.045-.136-.045-.136-.02-.136-.045-.06-.045-.136-.045-.136-.02-.136-.045-.06-.045-.136-.045-.136-.02-.136-.045-.04-.045-.09-.045-.09-.02-.09-.045-.036-.045-.08-.045-.1-.04-.146-.09-.097-.09-.136-.09-.1-.04-.136-.09-.092-.09-.124-.09c-.07 0-.827-.748-.827-.82 0-.028-.06-.107-.136-.177s-.136-.16-.136-.2-.02-.072-.045-.072-.045-.04-.045-.09-.02-.1-.045-.1-.045-.04-.045-.09-.02-.09-.045-.09-.045-.04-.045-.1-.02-.09-.045-.09-.045-.04-.045-.09-.02-.09-.045-.09-.045-.08-.045-.18-.02-.18-.045-.18-.045-.082-.045-.18-.02-.18-.045-.18S0 18.623 0 17.023l.045-2.445c.025 0 .045-.082.045-.18s.02-.18.045-.18.045-.082.045-.18.02-.18.045-.18.045-.04.045-.1.02-.09.045-.09.045-.04.045-.09.02-.09.045-.09.045-.04.045-.09.02-.09.045-.09.045-.04.045-.09.02-.09.045-.09.045-.033.045-.072.06-.13.136-.2.136-.15.136-.177c0-.07.756-.82.827-.82.032 0 .088-.04.124-.09s.097-.1.136-.1.1-.04.136-.09.102-.09.146-.09.08-.02.08-.045.04-.045.09-.045.09-.02.09-.045.06-.045.136-.045.136-.02.136-.045.06-.045.136-.045.136-.02.136-.045.06-.045.136-.045.136-.02.136-.045.12-.045.272-.045.272-.02.272-.045 2.732-.045 8.106-.045l8.106.045zM3.442 13.13v.543h.66c.512 0 .674.015.725.065s.065.575.065 3.44v3.377H6.16v-6.883h1.358v-.498c0-.302.018-.498.045-.498s.045-.02.045-.045-.725-.045-2.083-.045H3.442v.543zm9.057 3.44v3.985h1.177v-.226c0-.125.012-.226.027-.226s.084.06.154.136.16.136.2.136.072.02.072.045.04.045.09.045.09.02.09.045.082.045.18.045.18.02.18.045.082.045.18.045.18-.02.18-.045.077-.045.17-.045c.12 0 .19-.027.236-.1.036-.05.1-.09.146-.09s.08-.034.08-.08.04-.1.09-.146.09-.117.09-.19.02-.126.045-.126.045-.755.045-2.174l-.045-2.174c-.025 0-.045-.06-.045-.136s-.02-.136-.045-.136-.045-.03-.045-.07c0-.1-.293-.383-.383-.383-.038 0-.07-.02-.07-.045s-.06-.045-.136-.045-.136-.02-.136-.045-.102-.045-.227-.045-.226.02-.226.045-.06.045-.136.045-.136.02-.136.045-.032.045-.07.045-.15.08-.245.18c-.32.333-.317.343-.317-1.087v-1.268h-1.177v3.985zm5.796-2.038c0 .025-.102.045-.226.045s-.226.02-.226.045-.06.045-.136.045-.136.02-.136.045-.03.045-.07.045-.2.132-.362.293-.293.324-.293.362-.02.07-.045.07-.045.06-.045.136-.02.136-.045.136-.045.65-.045 1.857l.045 1.857c.025 0 .045.06.045.136s.02.136.045.136.045.04.045.09.02.09.045.09.045.03.045.07c0 .1.384.474.474.474.038 0 .07.02.07.045s.04.045.09.045.09.02.09.045.12.045.272.045.272.02.272.045.08.045.18.045.18-.02.18-.045.12-.045.272-.045.272-.02.272-.045.04-.045.09-.045.09-.02.09-.045.04-.045.1-.045.09-.02.09-.045.032-.045.07-.045c.09 0 .292-.202.292-.292 0-.04.02-.07.045-.07s.045-.04.045-.09.02-.09.045-.09.045-.06.045-.136.02-.136.045-.136.045-.18.045-.453v-.453h-1.177v.408c0 .24-.018.407-.045.407s-.045.04-.045.09c0 .06-.03.09-.09.09-.05 0-.09.02-.09.045s-.113.045-.25.045c-.206 0-.27-.02-.362-.11-.06-.06-.11-.143-.11-.18s-.02-.07-.045-.07-.045-.302-.045-.815v-.815h2.264V16.66l-.045-1.087c-.025 0-.045-.04-.045-.09s-.02-.09-.045-.09-.045-.04-.045-.09-.02-.09-.045-.09-.045-.03-.045-.07a.49.49 0 00-.282-.292c-.033 0-.09-.04-.125-.09s-.117-.09-.19-.09-.126-.02-.126-.045-.102-.045-.226-.045-.226-.02-.226-.045-.082-.045-.18-.045-.18.02-.18.045zM8.15 17.34l.045 2.672c.025 0 .045.052.045.115 0 .128.27.43.383.43.038 0 .07.02.07.045s.12.045.272.045.272-.02.272-.045.06-.045.136-.045.136-.02.136-.045.04-.045.09-.045.09-.02.09-.045.033-.045.072-.045.13-.06.2-.136.16-.136.2-.136.072-.038.072-.09c0-.06.03-.09.09-.09.082 0 .09.03.09.317v.317H11.5v-5.887h-1.087v4.486l-.157.157c-.086.086-.188.157-.226.157s-.07.02-.07.045-.04.045-.09.045-.09.02-.09.045c0 .088-.232.044-.342-.066l-.11-.11v-4.76H8.15v2.672zm6.454-1.7l.157.157v1.835l-.045 1.835c-.025 0-.045.032-.045.07 0 .136-.122.2-.382.2-.14 0-.252-.02-.252-.045s-.03-.045-.07-.045-.12-.05-.18-.11l-.11-.11v-1.862c0-1.96.003-1.99.2-1.99.04 0 .07-.02.07-.045s.113-.045.25-.045c.226 0 .266.016.408.157zm4.166 0l.157.157v1.044H17.84v-.523c0-.495.006-.53.11-.634.06-.06.143-.11.18-.11s.07-.02.07-.045.092-.045.205-.045c.174 0 .23.024.362.157z" fill="#fff"/></svg>