<svg xmlns="http://www.w3.org/2000/svg" width="18" height="18"><path fill-rule="evenodd" d="M4.22 7.137H2.83a6.17 6.17 0 011.783-3.902A6.21 6.21 0 019 1.406a6.21 6.21 0 014.387 1.829 6.17 6.17 0 011.783 3.902h-1.39a.703.703 0 00-.703.703v7.348a.703.703 0 01-.703.703H10.23v.022a1.406 1.406 0 100 1.362v.022h2.145c1.163 0 2.11-.946 2.11-2.11v-.035h.703a2.817 2.817 0 002.813-2.812V9.95a2.816 2.816 0 00-1.408-2.435 7.54 7.54 0 00-1.242-4.087 7.79 7.79 0 00-1.452-1.635A7.524 7.524 0 009.02 0a9.64 9.64 0 00-.05 0A7.55 7.55 0 004.1 1.79a7.628 7.628 0 00-1.452 1.635 7.54 7.54 0 00-1.242 4.088A2.806 2.806 0 000 9.95v2.39a2.817 2.817 0 002.813 2.813H4.22a.703.703 0 00.703-.703V7.84a.703.703 0 00-.703-.703zm-.703 6.61h-.703a1.41 1.41 0 01-1.406-1.406V9.95a1.41 1.41 0 011.406-1.406h.703v5.203zm13.078-1.406a1.41 1.41 0 01-1.406 1.406h-.703V8.543h.703a1.41 1.41 0 011.406 1.406v2.39z" fill="#4e5b67"/></svg>