<svg width="35" height="38" viewBox="0 0 35 36" fill="#fff" stroke="#4E5B67" xmlns="http://www.w3.org/2000/svg"><path d="M16.677 13.38a1 1 0 001.646 0c.807-1.171 2.038-1.88 3.38-1.88 2.275 0 4.297 2.09 4.297 4.9 0 .829-.405 1.859-1.175 3.012-.757 1.132-1.795 2.275-2.887 3.304a28.552 28.552 0 01-3.106 2.544c-.45.315-.832.554-1.118.71a4.117 4.117 0 01-.212.11 4.07 4.07 0 01-.213-.11 12.78 12.78 0 01-1.118-.717 28.987 28.987 0 01-3.108-2.56c-1.093-1.034-2.13-2.18-2.888-3.31C9.402 18.23 9 17.21 9 16.4c0-2.811 2.022-4.901 4.296-4.901 1.343 0 2.574.709 3.38 1.88zm.674 12.763s.003-.002.01-.003a.102.102 0 01-.01.003zm.291-.003a.083.083 0 010 0z" stroke-width="2" stroke-linejoin="round"/></svg>