<svg width="20" height="20" fill="none" xmlns="http://www.w3.org/2000/svg"><path fill-rule="evenodd" clip-rule="evenodd" d="M7.442 0h5.118c.72 0 1.305.586 1.305 1.305v1.697h5.457V4.57h-1.659l-1.295 14.716a.783.783 0 01-.78.715h-11.2a.783.783 0 01-.78-.715L2.311 4.57H.68V3.002h5.457V1.305C6.137.585 6.722 0 7.442 0zm.261 3.002H12.3V1.567H7.703v1.435zm7.167 15.431H5.104L3.884 4.57h12.207l-1.22 13.864zM7.755 6.838l.34 9.269-1.566.057-.34-9.269 1.566-.057zm6.056.057l-1.565-.057-.34 9.269 1.566.057.34-9.269zm-3.028-.028H9.217v9.269h1.566v-9.27z" fill="#67ADD7"/></svg>