<svg width="40" height="40" fill="none" xmlns="http://www.w3.org/2000/svg"><path d="M30.251 8.686C27.19 5.664 23.117 4 18.786 4h-.95v2.428a13.765 13.765 0 00-8.798 3.952C6.434 12.95 5 16.366 5 20c0 3.634 1.434 7.05 4.038 9.62.157.155.317.305.48.452l-1.524 1.906.745.58C11.625 34.81 15.099 36 18.786 36c4.331 0 8.403-1.664 11.465-4.686C33.313 28.292 35 24.274 35 20s-1.687-8.292-4.749-11.314zm-19.57 22.959l2.979-3.724h11.206v-1.875h-1.27v-4.72L20.91 20l2.686-1.325v-4.721h1.27v-1.875h-5.13V5.905a14.293 14.293 0 019.171 4.107C31.611 12.68 33.1 16.227 33.1 20c0 3.773-1.489 7.32-4.193 9.988-2.703 2.668-6.297 4.137-10.12 4.137-2.937 0-5.72-.854-8.106-2.48zM6.9 20c0-6.152 4.824-11.212 10.935-11.692v3.771h-5.13v1.875h1.27v4.72L16.662 20l-2.686 1.325V24.5l-3.273 4.091C8.365 26.448 6.9 23.39 6.9 20zm14.795 2.484v3.562h-5.82v-3.562l2.91-1.436 2.91 1.436zm-2.91-3.532l-2.91-1.436v-3.562h5.82v3.562l-2.91 1.436z" fill="#67ADD7"/></svg>