<svg width="40" height="40" fill="none" xmlns="http://www.w3.org/2000/svg"><path d="M30.916 16.613v-.697A10.91 10.91 0 0020 5C13.98 5 9.084 9.897 9.084 15.916v.697a5.636 5.636 0 00-4.076 5.73c.16 2.987 2.667 5.324 5.615 5.324a2.627 2.627 0 002.632-2.627v-6.014a2.625 2.625 0 00-2.407-2.618v-.492c0-5.046 4.106-9.151 9.152-9.151a9.146 9.146 0 019.152 9.151v.492a2.625 2.625 0 00-2.407 2.618v6.014a2.626 2.626 0 002.407 2.617c0 2.388-1.87 4.049-3.968 4.049h-1.92a2.415 2.415 0 00-2.244-1.53h-2.04a2.415 2.415 0 00-2.411 2.412A2.415 2.415 0 0018.98 35h2.04c1.018 0 1.89-.635 2.243-1.53h1.921a5.74 5.74 0 005.732-5.732v-.29c2.252-.649 3.945-2.674 4.076-5.106a5.637 5.637 0 00-4.075-5.73zM11.49 19.026v6.014c0 .446-.343.872-.935.861a3.879 3.879 0 01-3.784-3.653 3.866 3.866 0 013.862-4.084h.016a.855.855 0 01.841.861zm9.53 14.21h-2.04a.648.648 0 010-1.295h2.04a.648.648 0 010 1.294zm12.21-10.988a3.879 3.879 0 01-3.785 3.653c-.582.012-.935-.406-.935-.861v-6.014c0-.474.377-.86.838-.862h.018a3.866 3.866 0 013.864 4.084z" fill="#67ADD7"/><path d="M20.663 26.738l4.326-4.125a3.18 3.18 0 000-4.65c-1.24-1.182-3.388-1.42-4.989.107-1.58-1.506-3.73-1.307-4.99-.107a3.18 3.18 0 000 4.65l4.327 4.125a.97.97 0 001.326 0zm-4.327-7.512a1.632 1.632 0 012.227 0l.774.739a.97.97 0 001.325 0l.775-.739a1.632 1.632 0 012.227 0 1.452 1.452 0 010 2.123L20 24.843l-3.664-3.494a1.452 1.452 0 010-2.123z" fill="#67ADD7"/></svg>