<svg width="24" height="24" fill="none" xmlns="http://www.w3.org/2000/svg"><path fill-rule="evenodd" clip-rule="evenodd" d="M16.24 2.59c.788-.787 2.142-.786 2.927 0l2.727 2.729c.39.39.606.911.606 1.463 0 .553-.215 1.073-.606 1.464l-12.33 12.23a.707.707 0 01-.302.177l-6.364 1.82a.704.704 0 01-.871-.871l1.818-6.37a.71.71 0 01.178-.302L16.24 2.59zm.999 1.012l-1.81 1.825 3.644 3.643 1.826-1.81a.653.653 0 00.192-.465.653.653 0 00-.193-.466L18.17 3.602a.681.681 0 00-.932 0zm-2.801 2.826l-8.225 8.3h.128c.267 0 .51.15.63.388l.472.945 8.314-8.314-1.32-1.319zM8.439 17.057l.944.472c.239.12.39.363.39.63v.128l8.299-8.225-1.32-1.319-8.313 8.314zm-.075 2.389v-.852l-1.429-.714a.705.705 0 01-.315-.315l-.715-1.429h-.85l-.53 1.852 1.987 1.987 1.852-.53zm-4.282.092l-.351 1.232 1.23-.352-.879-.88zm8.871 1.212h7v1.5h-7v-1.5z" fill="#67ADD7"/></svg>