<svg width="30" height="30" fill="none" xmlns="http://www.w3.org/2000/svg"><path fill-rule="evenodd" clip-rule="evenodd" d="M22.594 15.418v-4.457l-6.109 3.799a2.807 2.807 0 01-1.485.427 2.807 2.807 0 01-1.485-.427l-6.109-3.8v7.973c0 .775.631 1.406 1.407 1.406h12.374c.776 0 1.407-.631 1.407-1.406v-3.516zM24 18.934a2.816 2.816 0 01-2.813 2.812H8.813A2.816 2.816 0 016 18.934v-8.121A2.816 2.816 0 018.813 8h12.374A2.816 2.816 0 0124 10.813v8.121zm-9.743-5.368a1.397 1.397 0 001.486 0l6.264-3.896a1.397 1.397 0 00-.82-.264H8.813a1.4 1.4 0 00-.819.264l6.264 3.896z" fill="#67ADD7"/></svg>