<svg xmlns="http://www.w3.org/2000/svg" width="36" height="33" fill="none"><path fill-rule="evenodd" d="M18 2.348a1.174 1.174 0 10-.001-2.349A1.174 1.174 0 0018 2.348zM12.52 5.87a1.174 1.174 0 11-2.349-.001 1.174 1.174 0 012.349.001zm13.696 0a1.173 1.173 0 11-1.172-1.174c.648 0 1.174.526 1.174 1.174zM30.3 21.824c3.09 1.078 5.22 3.046 5.327 3.145.495.463.496 1.25 0 1.715-.168.157-4.163 3.838-9.215 3.838-1.137 0-2.22-.187-3.218-.477-1.38 1.57-4.2 2.557-4.83 2.767a1.18 1.18 0 01-.51.05 1.17 1.17 0 01-.222-.05c-.64-.2-3.45-1.198-4.83-2.767-.998.29-2.08.477-3.218.477-5.052 0-9.047-3.682-9.215-3.838a1.174 1.174 0 010-1.715 16.5 16.5 0 015.327-3.145c-2.743-3.954-2.49-9.108-2.477-9.354a1.173 1.173 0 011.11-1.106c.202-.01 4.47-.213 8.266 1.68 1.32-3.947 4.464-6.737 4.63-6.884a1.174 1.174 0 011.546 0c.168.147 3.31 2.937 4.63 6.884 3.795-1.893 8.064-1.7 8.265-1.68a1.175 1.175 0 011.11 1.106c.014.246.266 5.4-2.477 9.354zm-8.668-5.39c0-3.39-2.368-6.38-3.632-7.737-1.264 1.36-3.635 4.362-3.635 7.737 0 3.39 2.368 6.38 3.632 7.737 1.264-1.36 3.635-4.362 3.635-7.737zm-18.566 9.39c1.346.95 3.79 2.348 6.52 2.348 1.892 0 3.648-.673 4.995-1.402-2.175-.332-4.97-1.13-7.153-3.017-1.824.455-3.383 1.38-4.36 2.07zM5.58 13.72c.095 1.818.59 5.448 2.92 7.822.027.02.07.06.128.118.515.496 2.325 2.242 6.55 2.824-2.043-2.614-3.448-5.76-3.107-9.06-2.283-1.31-4.997-1.633-6.49-1.705zm9.657 15.36c.717.496 1.767 1.01 2.762 1.37.996-.362 2.045-.875 2.763-1.37A17.22 17.22 0 0118 27.351a17.23 17.23 0 01-2.762 1.732zm15.185-15.36c-1.493.07-4.21.393-6.494 1.705.34 3.293-1.058 6.435-3.103 9.054 4.232-.587 6.034-2.325 6.547-2.82l.127-.117c2.34-2.385 2.832-6.007 2.923-7.822zm-9.005 13.05c1.348.73 3.104 1.402 4.996 1.402 2.727 0 5.173-1.398 6.52-2.348-.978-.7-2.536-1.616-4.36-2.07-2.185 1.886-4.978 2.685-7.154 3.017z" fill="#67add7"/></svg>