<svg xmlns="http://www.w3.org/2000/svg" width="36" height="30" fill="none"><path fill-rule="evenodd" d="M34.945 0c-7.1 0-13.144 4.673-15.167 11.096a3.14 3.14 0 00-.724-.367V7.88a6.54 6.54 0 013.636-5.883A1.056 1.056 0 0021.747.11 8.67 8.67 0 0018 3.735 8.67 8.67 0 0014.253.112a1.055 1.055 0 10-.943 1.887 6.54 6.54 0 013.636 5.883v2.847a3.22 3.22 0 00-.382.165c-.118.06-.232.128-.342.203C14.198 4.673 8.164 0 1.055 0 .472 0 0 .472 0 1.055c0 4.01 1.536 7.828 4.338 10.8a6.157 6.157 0 00-.05.792c0 2.2 1.127 4.14 2.834 5.273a6.327 6.327 0 003.494 11.601c2.4 0 4.51-1.355 5.578-3.342.44.74 1.027 1.232 1.805 1.232s1.364-.493 1.805-1.232a6.335 6.335 0 005.578 3.342c3.49 0 6.328-2.84 6.328-6.328 0-2.2-1.127-4.14-2.834-5.273a6.326 6.326 0 002.785-6.065C34.464 8.883 36 5.066 36 1.055 36 .472 35.528 0 34.945 0zM6.398 12.657a4.25 4.25 0 01.099-.915c.078-.352-.03-.72-.285-.975-2.377-2.37-3.795-5.394-4.058-8.614 7.087.56 12.682 6.476 12.682 13.668v1.055h-4.22a4.225 4.225 0 01-4.22-4.22zm8.437 10.547c0 2.326-1.892 4.22-4.22 4.22s-4.22-1.893-4.22-4.22 1.893-4.22 4.22-4.22h4.22v4.22zM18 25.123c-.766-1.282-.958-4.027-1.026-4.995v-.003l-.03-.337V13.71a1.056 1.056 0 012.11 0v6.076c-.01.042-.022.196-.038.427-.076 1.04-.265 3.652-1.016 4.908zm11.602-1.92c0 2.326-1.893 4.22-4.22 4.22s-4.22-1.893-4.22-4.22v-4.22h4.22a4.225 4.225 0 014.22 4.22zm.186-12.436a1.053 1.053 0 00-.285.975 4.25 4.25 0 01.099.915 4.225 4.225 0 01-4.22 4.22h-4.22V15.82c0-7.192 5.595-13.11 12.682-13.668-.263 3.22-1.68 6.245-4.058 8.614zM11.672 23.203a1.055 1.055 0 100-2.11 1.055 1.055 0 000 2.11zm13.71-1.055a1.055 1.055 0 11-2.11 0 1.055 1.055 0 012.11 0z" fill="#67add7"/></svg>