<svg width="16" height="16" fill="none" xmlns="http://www.w3.org/2000/svg"><path fill-rule="evenodd" clip-rule="evenodd" d="M9.626 1.093a3.733 3.733 0 115.279 5.28L11.51 9.766a3.732 3.732 0 01-1.73.98h-.03l-.155.033-.085.016-.184.026h-.09a.82.82 0 00-.114.01l-.076.006-.16.019h-.203a3.724 3.724 0 01-.397-.037 4.322 4.322 0 01-.323-.067l-.157-.043a2.136 2.136 0 01-.233-.078 1.844 1.844 0 01-.164-.065c-.037-.015-.075-.03-.112-.049a3.701 3.701 0 01-1.067-.746 1.067 1.067 0 010-1.504 1.093 1.093 0 011.499 0 1.6 1.6 0 002.26 0l.875-.87.022-.023 2.5-2.498a1.6 1.6 0 10-2.263-2.264L9.116 4.618a.267.267 0 01-.29.059 4.48 4.48 0 00-1.704-.334h-.099a.267.267 0 01-.195-.456l2.798-2.794zm-.491 4.64c.227.144.437.313.626.503.216.217.33.516.31.821a1.067 1.067 0 01-.31.678 1.093 1.093 0 01-1.498 0 1.6 1.6 0 00-2.261 0l-3.405 3.402A1.6 1.6 0 104.861 13.4l2.013-2.015c.076-.077.19-.1.29-.059a4.48 4.48 0 001.707.33h.106a.267.267 0 01.19.457l-2.8 2.8A3.733 3.733 0 011.091 9.63l3.391-3.395a3.733 3.733 0 014.653-.504z" fill="#4E5B67"/></svg>