<svg width="35" height="35" fill="none" stroke="#4E5B67" stroke-width="2" xmlns="http://www.w3.org/2000/svg"><path d="M17.7 17.94a2.276 2.276 0 01-2.273-2.274 2.276 2.276 0 012.273-2.272 2.276 2.276 0 012.272 2.272A2.277 2.277 0 0117.7 17.94z"/><path d="M24.912 18.391h0l-.003.007c-.198.534-.53 1.09-1.008 1.647l-.028.032-6.174 7.251-6.187-7.267h0l-.004-.005c-.483-.56-.819-1.12-1.02-1.664h0l-.003-.007c-.881-2.33-.55-4.978.902-7.08h0C12.841 9.2 15.133 8 17.7 8c2.566 0 4.858 1.201 6.312 3.305h0c1.453 2.102 1.784 4.75.9 7.086zm-14.346-7.654h-.001 0z"/></svg>