<svg width="20" height="17" fill="none" xmlns="http://www.w3.org/2000/svg"><path fill-rule="evenodd" clip-rule="evenodd" d="M1.18.96l2.495 2.405A10.624 10.624 0 00.017 8.3a1.158 1.158 0 000 .4 10.617 10.617 0 009.712 7.032h.54a10.577 10.577 0 004.863-1.327L17.822 17l.997-.96L2.176 0 1.18.96zm9.051 13.378h-.463a9.13 9.13 0 01-4.284-1.2 9.219 9.219 0 01-3.204-3.062l-.003-.003A9.026 9.026 0 011.481 8.5c.213-.547.48-1.074.796-1.572l.002-.003a9.22 9.22 0 012.43-2.564l2.16 2.083A3.551 3.551 0 006.23 8.84c.083.847.47 1.639 1.093 2.24a3.897 3.897 0 004.81.436l1.933 1.862a9.132 9.132 0 01-3.835.959zm.848-3.838a2.414 2.414 0 01-1.436.23 2.371 2.371 0 01-1.3-.634 2.226 2.226 0 01-.657-1.252c-.075-.474.008-.96.238-1.384l3.155 3.04zm8.904-2.199A10.618 10.618 0 0010.27 1.27h-.012l-.128-.001-.13-.002c-.086 0-.172 0-.258.003H9.73a10.572 10.572 0 00-3.96.88l1.107 1.068a9.093 9.093 0 012.89-.553h.014l.126-.001a4.507 4.507 0 01.312.001h.013a9.13 9.13 0 014.283 1.2 9.222 9.222 0 013.205 3.062v.003a9.01 9.01 0 01.796 1.572 9.018 9.018 0 01-.795 1.574 9.2 9.2 0 01-1.682 1.97l1.026.989A10.576 10.576 0 0019.984 8.7a1.198 1.198 0 00-.001-.399zm-6.397 1.38l-1.246-1.2a2.218 2.218 0 00-.686-1.577 2.387 2.387 0 00-1.635-.66L8.773 5.042a3.926 3.926 0 012.083-.102c.69.155 1.322.493 1.823.976a3.62 3.62 0 011.012 1.757 3.53 3.53 0 01-.105 2.007z" fill="#4E5B67"/></svg>