<svg width="21" height="15" fill="none" xmlns="http://www.w3.org/2000/svg"><path fill-rule="evenodd" clip-rule="evenodd" d="M18.973 4.96c.421.666.765 1.374 1.026 2.113a1.15 1.15 0 01-.002.401c-.26.739-.604 1.447-1.026 2.113a10.604 10.604 0 01-8.686 4.957h-.011a9.012 9.012 0 01-.442 0h-.087A10.607 10.607 0 011.06 9.587 10.424 10.424 0 01.033 7.474a1.17 1.17 0 010-.4c.26-.74.605-1.449 1.027-2.114A10.606 10.606 0 019.746.003h.011C9.844 0 9.93 0 10.016 0c.086 0 .173 0 .258.004h.012a10.607 10.607 0 018.687 4.956zm-1.236 3.898l.002-.003.001-.002c.316-.5.581-1.03.793-1.58a9.07 9.07 0 00-.797-1.58v-.002a9.243 9.243 0 00-3.204-3.08 9.094 9.094 0 00-4.284-1.205h-.012c-.085-.003-.157-.003-.22-.003l-.092.001-.127.002h-.013A9.094 9.094 0 005.5 2.612 9.24 9.24 0 002.295 5.69l-.002.003a9.07 9.07 0 00-.797 1.58c.213.55.48 1.079.797 1.58l.002.003a9.24 9.24 0 003.205 3.08 9.094 9.094 0 004.284 1.206h.463a9.095 9.095 0 004.285-1.206 9.243 9.243 0 003.205-3.078zM7.91 4.22a3.875 3.875 0 012.105-.619 3.85 3.85 0 012.678 1.075 3.613 3.613 0 011.11 2.595 3.59 3.59 0 01-.638 2.04 3.765 3.765 0 01-1.7 1.351 3.903 3.903 0 01-2.19.209 3.827 3.827 0 01-1.939-1.005A3.636 3.636 0 016.3 7.987a3.564 3.564 0 01.216-2.12A3.698 3.698 0 017.91 4.22zm.804 4.937c.385.249.838.382 1.3.382v.001c.622 0 1.217-.24 1.655-.665a2.235 2.235 0 00.686-1.604 2.22 2.22 0 00-.394-1.26 2.327 2.327 0 00-1.05-.835 2.41 2.41 0 00-1.353-.129 2.365 2.365 0 00-1.198.62c-.328.318-.55.722-.64 1.162-.091.44-.045.896.132 1.31.178.414.478.769.862 1.018z" fill="#4E5B67"/></svg>