<svg width="30" height="30" fill="none" xmlns="http://www.w3.org/2000/svg"><path fill-rule="evenodd" clip-rule="evenodd" d="M23.216 18.265a1.29 1.29 0 01-.077 1.638l-.005.006c-.77.762-1.875 1.164-3.198 1.164h-.033c-1.058-.005-2.283-.295-3.543-.839a.722.722 0 00-.185-.052 13.845 13.845 0 01-2.627-1.575.723.723 0 00-.086-.078 16.08 16.08 0 01-1.58-1.374 16.08 16.08 0 01-1.374-1.58.723.723 0 00-.078-.086 13.844 13.844 0 01-1.575-2.627.718.718 0 00-.052-.185c-.544-1.26-.834-2.485-.839-3.543v-.032c0-1.324.402-2.429 1.164-3.199l.006-.005a1.29 1.29 0 011.798.065c1.858 1.927 1.724 2.837.903 3.68l-1.331 1.34a.718.718 0 00-.146.798c.033.076.85 1.882 2.886 3.917l.047.048.048.047c2.035 2.036 3.841 2.853 3.917 2.887.27.12.588.062.798-.147l1.34-1.33c.843-.822 1.753-.956 3.68.902.053.05.1.104.142.16zm-8.91-3.535l-.046-.046c-1.274-1.275-2.025-2.454-2.367-3.06l.963-.971.004-.005c.891-.912 1.181-1.934.862-3.038-.231-.8-.79-1.64-1.756-2.643a2.717 2.717 0 00-1.869-.834 2.718 2.718 0 00-1.923.697l-.02.018a.753.753 0 00-.029.027C7.072 5.928 6.52 7.404 6.528 9.14c.015 2.951 1.637 6.327 4.339 9.029 2.702 2.702 6.078 4.325 9.03 4.34 1.736.008 3.212-.544 4.266-1.598a.703.703 0 00.026-.028l.019-.02a2.72 2.72 0 00.697-1.924 2.717 2.717 0 00-.835-1.869c-1.002-.967-1.842-1.525-2.643-1.756-1.104-.32-2.126-.03-3.038.862l-.004.004-.971.963c-.607-.342-1.786-1.092-3.06-2.367l-.047-.046z" fill="#67ADD7"/></svg>