<svg width="40" height="40" fill="none" xmlns="http://www.w3.org/2000/svg"><path fill-rule="evenodd" clip-rule="evenodd" d="M30.537 8.311c-3.077 0-8.676-.626-10.43-2.935a.794.794 0 00-1.305-.063C16.736 7.62 11.126 8.31 7.82 8.31a.822.822 0 00-.82.824v13.174c0 5.934 6.83 9.559 12.005 10.686.668.145 12.352-2.815 12.352-10.686V9.135a.822.822 0 00-.82-.824zm-.82 13.998c0 6.184-9.152 8.691-10.538 9.035C17.791 31 8.64 28.493 8.64 22.309V9.95c6.334-.146 9.493-1.971 10.75-2.96 2.53 2.238 6.955 2.883 10.325 2.96v12.36zM15.08 15.695v2.497h-.823a.822.822 0 00-.82.824v6.587c0 .455.367.823.82.823H24.1c.453 0 .82-.368.82-.823v-6.587a.822.822 0 00-.82-.824h-7.38v-2.498a2.44 2.44 0 012.483-2.442 2.441 2.441 0 012.434 2.442c0 .455.367.824.82.824.453 0 .82-.369.82-.824 0-2.255-1.827-4.09-4.074-4.09a4.085 4.085 0 00-4.123 4.09zm8.2 9.084h-8.203v-4.94h8.203v4.94zM20 22.31a.822.822 0 01-.82.824.822.822 0 01-.82-.824.821.821 0 111.64 0z" fill="#67ADD7"/></svg>