<svg width="16" height="14" fill="none" xmlns="http://www.w3.org/2000/svg"><path opacity=".6" d="M7.382 2.372a.75.75 0 001.236 0C9.31 1.365 10.375.75 11.54.75c1.975 0 3.71 1.81 3.71 4.219 0 .724-.352 1.61-1.005 2.587-.643.96-1.522 1.929-2.445 2.798a24.13 24.13 0 01-2.626 2.151c-.38.266-.705.47-.95.604-.091.05-.166.087-.223.113a3.262 3.262 0 01-.223-.114c-.245-.135-.57-.34-.95-.61A24.496 24.496 0 014.2 10.336C3.277 9.46 2.398 8.49 1.755 7.532 1.1 6.556.75 5.678.75 4.969.75 2.56 2.485.75 4.46.75c1.165 0 2.229.615 2.922 1.622zm.52 10.889a.034.034 0 010 0zm.193-.001l.005.001-.005-.001z" fill="#4E5B67" stroke="#4E5B67" stroke-width="1.5" stroke-linejoin="round"/></svg>