<svg width="40" height="40" fill="none" xmlns="http://www.w3.org/2000/svg"><path d="M7 33.654C11.437 35.287 15.587 36 19.684 36c4.096 0 8.246-.713 12.684-2.346l-7.876-11.88 2.411-5.787 1.674 1.004.964-1.607-8.92-5.352v-.568a2.818 2.818 0 001.876-2.652A2.816 2.816 0 0019.684 4a2.816 2.816 0 00-2.812 2.813h1.875a.939.939 0 011.875 0c0 .516-.42.937-.938.937h-.937v2.282l-8.92 5.351.964 1.608 1.674-1.004 2.412 5.787L7 33.654zm20.552-.475l-3.012-4.574-1.566 1.031 2.6 3.95a34.647 34.647 0 01-4.952.524v-4.672h-1.875v4.672a34.649 34.649 0 01-4.954-.524l2.6-3.95-1.565-1.03-3.012 4.573a34.527 34.527 0 01-1.917-.504l6.538-9.862h6.494l6.538 9.862c-.5.147-1.148.325-1.917.504zm-5.18-19.91a2.8 2.8 0 01-2.688 1.981 2.8 2.8 0 01-2.688-1.981l2.688-1.613 2.689 1.613zm-7.01.98a4.685 4.685 0 004.322 2.876 4.685 4.685 0 004.323-2.876l1.271.763-2.469 5.925h-6.25l-2.469-5.925 1.271-.763z" fill="#67ADD7"/></svg>