<svg width="40" height="40" fill="none" xmlns="http://www.w3.org/2000/svg"><path fill-rule="evenodd" clip-rule="evenodd" d="M16.488 6.798c1.191-.773 2.529-.99 3.919-.922 1.093.053 2.14.297 3.076.902l.006.004c.058.037.115.075.168.118.068.057.134.117.184.163l.05.044c1.061 1.06.825 2.552-.513 3.357-1.31.788-2.75.966-4.242.809-.975-.103-1.907-.357-2.721-.936-1.326-.942-1.297-2.65.073-3.54zm.957 2.039c.12.09.252.172.39.23 1.431.592 2.87.596 4.3.006.152-.063.28-.187.406-.312a3.2 3.2 0 01.18-.166 3.319 3.319 0 01-.18-.166c-.128-.123-.256-.247-.409-.311-1.395-.588-2.806-.588-4.214-.035-.129.05-.248.125-.337.18l-.083.049c-.271.252-.273.358-.053.525zM1.308 16.785c.061.006.123.012.184.012H3.55c1.905 0 3.81 0 5.715.007.231 0 .329-.08.422-.28 1.373-2.945 4.836-4.21 7.665-2.805 1.005.5 1.763 1.272 2.385 2.191.038.056.077.11.119.167l.058.081.255-.333c.177-.234.35-.461.534-.678 2.183-2.563 6.028-2.688 8.34-.24.327.347.582.763.836 1.178a17.874 17.874 0 00.336.535c.062.1.112.18.273.18 2.059-.006 4.117-.006 6.175-.007h2.023c.02 0 .04-.006.06-.012a.452.452 0 01.026-.008l.043.043-.007.303v.001c-.005.221-.01.442-.017.663-.043 1.394-.608 2.536-1.659 3.449a.518.518 0 00-.163.323c-.085 1.383-.681 2.498-1.734 3.385a.485.485 0 00-.153.298c-.235 2.614-2.121 4.341-4.75 4.336-.613 0-1.227-.003-1.84-.004-1.584-.004-3.168-.008-4.752-.005a.776.776 0 00-.463.158c-1.054.885-2.1 1.78-3.137 2.685-.168.146-.27.147-.431.007-.474-.41-.95-.816-1.425-1.223-.554-.475-1.11-.95-1.66-1.429a.755.755 0 00-.54-.209c-1.17.008-2.34.01-3.509.014h-.002c-.997.003-1.993.005-2.99.01-.86.005-1.664-.186-2.409-.619-.124-.071-.246-.146-.368-.22v-.001l-.17-.104-.774-.773a.314.314 0 01-.005-.028.127.127 0 00-.018-.056c-.572-.756-.869-1.609-.931-2.552-.007-.109-.097-.236-.185-.311-1.024-.88-1.608-1.977-1.697-3.334a.559.559 0 00-.17-.349c-1.046-.914-1.61-2.053-1.65-3.446l-.018-.654-.007-.31.043-.043.084.007zm10.393-.115c-1.022 1.524-1.121 3.155-.416 4.83.474 1.127 1.259 2.044 2.102 2.91 1.377 1.412 2.883 2.678 4.39 3.944.655.551 1.31 1.102 1.954 1.664.158.138.26.106.408-.021.61-.525 1.223-1.046 1.836-1.568h.001c.867-.738 1.734-1.475 2.593-2.221 1.164-1.01 2.282-2.067 3.191-3.323.89-1.23 1.403-2.566 1.196-4.117-.245-1.847-1.454-3.29-3.104-3.684-1.705-.409-3.291.289-4.291 1.946-.25.414-.453.857-.665 1.322-.1.219-.202.442-.312.67a32.872 32.872 0 01-.243-.01c-.203-.008-.43-.017-.658-.02h-.012c-.488-.007-.49-.007-.656-.466a7.45 7.45 0 00-1.105-2.045c-1.603-2.076-4.747-1.991-6.21.19zm18.066 6.495c.821-1.39 1.201-2.885 1.012-4.48l5.983.017c-.273.94-1.31 1.7-2.452 1.732-.604.017-1.208.012-1.812.007l-.343-.002a.675.675 0 01-.202-.045 1.205 1.205 0 00-.077-.024l-.003 1.858 3.122-.014a2.7 2.7 0 01-1.265 1.529c-.48.276-1.006.351-1.549.355-.495.003-.99.009-1.483.014l-.634.007.039 1.847 2.97-.065c-.205.905-1.145 1.77-2.177 1.805-1.22.041-2.442.019-3.667-.004h-.001c-.517-.01-1.034-.019-1.552-.024l.514-.472c.383-.351.768-.704 1.144-1.066.926-.896 1.774-1.861 2.433-2.975zM3.23 18.704c.316.985 1.338 1.713 2.5 1.736.475.01.95.008 1.425.006l.731-.002c.063 0 .126.006.171.01l.042.004.005 1.812-3.148-.002c.066.103.125.202.181.298.116.196.223.375.353.535.594.725 1.391 1.005 2.31 1 .497-.002.993.001 1.485.005l.649.003-.02 1.856-3.012-.053c.352 1.102 1.388 1.835 2.58 1.84 1.071.005 2.144 0 3.216-.005l1.279-.005c.043 0 .087-.003.137-.007l.083-.005-.028-.048a.193.193 0 00-.034-.05l-.203-.182-.18-.162c-1.169-1.064-2.316-2.148-3.233-3.449-1.059-1.503-1.647-3.145-1.463-5.012.006-.065-.007-.132-.006-.114l-5.82-.01z" fill="#67ADD7"/></svg>