<svg width="22" height="22" fill="#4E5B67" xmlns="http://www.w3.org/2000/svg"><path fill-rule="evenodd" clip-rule="evenodd" d="M16.265 1.75a3.65 3.65 0 00-3.501 4.663L9.062 8.516a3.636 3.636 0 00-2.666-1.162A3.65 3.65 0 002.75 11a3.65 3.65 0 003.646 3.646c1.052 0 2-.448 2.666-1.161l3.702 2.102a3.65 3.65 0 003.5 4.663 3.65 3.65 0 003.646-3.646 3.65 3.65 0 00-3.645-3.646c-1.052 0-2 .448-2.666 1.161l-3.702-2.101a3.63 3.63 0 000-2.035l3.701-2.102a3.636 3.636 0 002.667 1.162 3.65 3.65 0 003.645-3.647 3.65 3.65 0 00-3.645-3.646zm-1.958 3.646a1.96 1.96 0 011.958-1.958 1.96 1.96 0 011.957 1.958 1.96 1.96 0 01-1.957 1.958 1.96 1.96 0 01-1.958-1.958zM4.438 11a1.96 1.96 0 011.958-1.957A1.96 1.96 0 018.354 11a1.96 1.96 0 01-1.958 1.958A1.96 1.96 0 014.438 11zm9.87 5.604a1.96 1.96 0 011.957-1.958 1.96 1.96 0 011.957 1.958 1.96 1.96 0 01-1.957 1.958 1.96 1.96 0 01-1.958-1.958z"/></svg>