<svg width="20" height="17" fill="none" xmlns="http://www.w3.org/2000/svg"><path d="M19.692 2.77a8.417 8.417 0 01-2.326.637 4.015 4.015 0 001.776-2.232 8.07 8.07 0 01-2.56.978A4.036 4.036 0 009.6 4.913c0 .32.027.628.093.92a11.427 11.427 0 01-8.32-4.222 4.064 4.064 0 00-.554 2.04c0 1.399.72 2.638 1.794 3.356a3.987 3.987 0 01-1.824-.498v.045c0 1.962 1.4 3.591 3.234 3.966a4.02 4.02 0 01-1.058.133 3.52 3.52 0 01-.765-.069c.523 1.6 2.008 2.775 3.773 2.813a8.112 8.112 0 01-5.006 1.722c-.33 0-.648-.015-.966-.056a11.366 11.366 0 006.193 1.812c7.43 0 11.49-6.154 11.49-11.488 0-.178-.006-.35-.014-.522a8.052 8.052 0 002.023-2.096z" fill="#FEFEFE"/></svg>