<svg width="13" height="16" fill="none" xmlns="http://www.w3.org/2000/svg"><path d="M6.717 0C2.332 0 0 2.81 0 5.874 0 7.295.794 9.067 2.065 9.63c.193.087.298.05.341-.129.038-.136.205-.79.286-1.1a.283.283 0 00-.068-.278c-.422-.488-.757-1.377-.757-2.21 0-2.138 1.7-4.213 4.59-4.213 2.5 0 4.25 1.624 4.25 3.947 0 2.625-1.39 4.442-3.195 4.442-.999 0-1.743-.785-1.507-1.755.285-1.155.844-2.397.844-3.23 0-.747-.422-1.365-1.284-1.365-1.017 0-1.842 1.007-1.842 2.36 0 .858.304 1.438.304 1.438L2.834 12.36c-.316 1.285.043 3.366.074 3.545.02.099.13.13.192.049.1-.13 1.315-1.865 1.656-3.12l.633-2.31c.335.606 1.302 1.113 2.332 1.113C10.786 11.636 13 8.942 13 5.6 12.989 2.397 10.246 0 6.717 0z" fill="#fff"/></svg>