<svg xmlns="http://www.w3.org/2000/svg" width="16" height="14"><path d="M14.937 9.473L10.6 6.87a5.055 5.055 0 00-1.983-.685v-.652a1 1 0 01.55-.892 2.455 2.455 0 001.292-2.288A2.465 2.465 0 008.118.003a2.47 2.47 0 00-2.585 2.466.625.625 0 001.25 0A1.22 1.22 0 018.06 1.251c.62.03 1.13.538 1.16 1.16.022.473-.223.906-.64 1.13a2.273 2.273 0 00-1.204 1.992v.652a5.048 5.048 0 00-1.976.68L1.068 9.457A2.182 2.182 0 000 11.338a2.194 2.194 0 002.192 2.197l11.613.014A2.2 2.2 0 0016 11.356a2.207 2.207 0 00-1.063-1.883zm-1.13 2.825l-11.612-.014a.947.947 0 01-.944-.946.95.95 0 01.46-.81l4.333-2.593a3.81 3.81 0 013.923.005l4.327 2.603a.95.95 0 01.458.81.947.947 0 01-.945.944z" fill="#4e5b67"/></svg>