<svg width="24" height="24" fill="none" xmlns="http://www.w3.org/2000/svg"><path fill-rule="evenodd" clip-rule="evenodd" d="M18.064 2.005a2.78 2.78 0 113.93 3.93L18.11 9.66l3.305 9.987-3.23 3.23-5.143-8.353-3.312 3.178.443 2.693-3.162 3.162-1.705-4.866L.44 16.987l3.162-3.162 2.693.442 3.178-3.311L1.12 5.812l3.23-3.23 9.987 3.305 3.726-3.882zm2.769 1.161a1.08 1.08 0 00-1.542.016l-4.469 4.656-10.01-3.313-.967.968 8.315 5.12-5.256 5.477-2.716-.446-.632.632 3.085 1.081 1.081 3.086.633-.633-.446-2.715 5.477-5.256 5.12 8.315.967-.968-3.313-10.01 4.657-4.468a1.08 1.08 0 00.016-1.542z" fill="#67ADD7"/></svg>