<svg xmlns="http://www.w3.org/2000/svg" width="36" height="36" fill="none"><path fill-rule="evenodd" d="M35.562 17.144l-.904-.655c-1.755-1.276-3.038-2.21-5.177-3.244.855-2.457 1.103-4.225 1.4-6.337l.098-.69c.1-.696-.498-1.292-1.193-1.193l-.723.102c-2.02.28-3.832.534-6.305 1.394C21.72 4.38 20.783 3.092 19.5 1.34l-.016-.022-.638-.88C18.658.163 18.34 0 18 0s-.658.163-.856.438l-.655.903c-1.277 1.756-2.2 3.04-3.245 5.178-2.457-.855-4.225-1.103-6.336-1.4l-.692-.098c-.696-.1-1.292.498-1.193 1.193l.102.727c.282 2.024.534 3.828 1.394 6.3-2.14 1.035-3.427 1.97-5.176 3.243l-.905.656c-.584.42-.584 1.29 0 1.712l.907.657C3.1 20.79 4.382 21.722 6.52 22.756c-.855 2.458-1.103 4.226-1.4 6.338l-.097.7c-.1.696.5 1.293 1.193 1.193l.723-.102c2.02-.28 3.832-.534 6.305-1.394 1.035 2.14 1.97 3.427 3.244 5.177l.016.022.64.883c.42.584 1.29.584 1.712 0l.655-.903c1.277-1.756 2.2-3.04 3.245-5.178 2.457.855 4.225 1.103 6.336 1.4h.002l.7.097c.324.046.657-.06.895-.298s.345-.566.298-.895l-.102-.726c-.282-2.024-.534-3.83-1.394-6.3 2.14-1.036 3.428-1.972 5.177-3.244l.905-.656c.275-.198.438-.517.438-.856s-.163-.658-.438-.856zM28.69 7.31l-.03.215c-.14.998-.378 2.697-1.12 4.876a26.34 26.34 0 0 0-2.984-.957c-.26-1.018-.58-2.014-.956-2.984 2.163-.737 3.83-.972 4.9-1.123l.19-.027zM18 2.86l.282.388c.766 1.055 1.593 2.194 2.505 4.048l-1.344.64-.808.43-.198.11-.167.095-.27.157c-.905-.536-1.834-1.013-2.786-1.434.892-1.813 1.663-2.88 2.56-4.122L18 2.86zm-5.6 5.6c-.376.97-.695 1.965-.956 2.984a26.39 26.39 0 0 0-2.984.956c-.738-2.168-.975-3.847-1.122-4.9l-.028-.2.22.03c.974.136 2.687.376 4.872 1.12zM2.86 18l.386-.28c1.056-.767 2.195-1.594 4.05-2.507.42.952.898 1.882 1.434 2.786-.536.905-1.013 1.835-1.434 2.786-1.813-.892-2.88-1.664-4.123-2.56L2.86 18zM7.3 28.7c.132-.922.347-2.73 1.15-5.09.97.376 1.966.695 2.984.956.26 1.02.58 2.014.956 2.984-2.165.737-3.833.973-4.903 1.123L7.3 28.7zM18 33.14l-.28-.386c-.767-1.056-1.594-2.195-2.507-4.05.952-.42 1.882-.898 2.786-1.434.905.536 1.834 1.013 2.787 1.434-.892 1.812-1.663 2.88-2.56 4.12L18 33.14zm4.654-9.695c-.263 1.14-.605 2.25-1.02 3.325-1.056-.466-2.082-1.01-3.074-1.63-.342-.214-.777-.214-1.12 0-.992.62-2.018 1.163-3.074 1.63-.417-1.076-.76-2.185-1.02-3.325-.09-.393-.398-.7-.79-.79-1.14-.263-2.25-.605-3.325-1.02a24.35 24.35 0 0 1 1.629-3.073c.214-.342.214-.777 0-1.12a24.35 24.35 0 0 1-1.629-3.074 24.35 24.35 0 0 1 3.325-1.021c.393-.09.7-.398.79-.79a24.38 24.38 0 0 1 1.021-3.326c1.056.467 2.082 1.01 3.074 1.63.342.214.776.214 1.12 0a24.36 24.36 0 0 1 3.074-1.629 24.35 24.35 0 0 1 1.021 3.326c.09.393.398.7.79.79 1.14.263 2.25.605 3.326 1.02-.467 1.056-1.01 2.082-1.63 3.074-.214.342-.214.776 0 1.12a24.35 24.35 0 0 1 1.629 3.073 24.35 24.35 0 0 1-3.326 1.021c-.393.09-.7.398-.79.79zm.945 4.094c.376-.97.695-1.966.956-2.984 1.02-.26 2.014-.58 2.984-.956.738 2.168.975 3.848 1.122 4.9l.028.2-.216-.03c-.973-.136-2.687-.375-4.875-1.12zm5.105-6.753c-.42-.952-.898-1.882-1.434-2.786.536-.905 1.013-1.834 1.434-2.786 1.812.89 2.88 1.663 4.12 2.56l.315.227-.235.17-.15.1c-1.056.767-2.195 1.594-4.05 2.507zM18 19.055c.583 0 1.055-.472 1.055-1.055s-.472-1.055-1.055-1.055-1.055.472-1.055 1.055.472 1.055 1.055 1.055zM12.726 18a5.28 5.28 0 0 1 5.273-5.273A5.28 5.28 0 0 1 23.273 18a5.28 5.28 0 0 1-5.274 5.274A5.28 5.28 0 0 1 12.726 18zm2.1 0a3.17 3.17 0 0 0 3.164 3.164A3.17 3.17 0 0 0 21.163 18a3.17 3.17 0 0 0-3.164-3.164A3.17 3.17 0 0 0 14.835 18z" fill="#67add7"/></svg>