<svg xmlns="http://www.w3.org/2000/svg" width="35" height="35" fill="none"><path d="M.085 1.435l4.487 10.287c.003.008.008.015.01.022a1 1 0 0 0 .187.274l.017.02 5.493 5.493c-3.096 2.87-6.524 6.683-8.624 10.31-1.812 3.13-2.14 5.308-.972 6.475s3.345.84 6.474-.972c3.625-2.1 7.44-5.525 10.3-8.624l8.778 8.777c2.003 2.004 5.246 2.004 7.25 0s2.004-5.246 0-7.25l-9.803-9.802c.588-1.07.997-2.024 1.218-2.842a6.54 6.54 0 0 0 .091-.385c1.787.598 3.84.19 5.26-1.232 1.427-1.427 2.353-3.25 2.677-5.273s.017-4.04-.886-5.847C31.917.59 31.698.001 31 .001c-.566 0-1.025.46-1.025 1.025 0 1.11-.865 2.062-1.927 2.12-1.678.094-2.827.02-4.203.92a5.13 5.13 0 0 0-2.052 5.927 6.59 6.59 0 0 0-.385.092c-.818.222-1.77.63-2.842 1.218l-6.518-6.52c-.087-.087-.2-.156-.293-.204-.008-.003-.014-.008-.022-.01L1.435.086C1.048-.083.598.003.3.3s-.383.75-.215 1.135zM6.132 31.57c-2.448 1.417-3.776 1.518-3.997 1.297C2 32.73 1.82 31.652 3.432 28.87c.677-1.17 1.55-2.432 2.573-3.733l3.86 3.86c-1.3 1.024-2.563 1.896-3.733 2.573zm5.322-3.884l-4.14-4.14c.438-.508.896-1.02 1.37-1.53l4.298 4.298c-.5.475-1.02.933-1.53 1.37zM29.88 25.53l2.167 2.167c1.202 1.202 1.202 3.148 0 4.35s-3.148 1.202-4.35 0L25.53 29.88l4.35-4.35zm-2.906-2.894l1.45 1.45-4.344 4.344-1.45-1.45 4.344-4.344zM25.53 21.18l-4.35 4.35-2.34-2.34c1.45-1.678 2.74-3.368 3.764-4.936l2.927 2.927zm-.573-15.396c.843-.552 1.454-.492 3.193-.59 1.047-.058 2.024-.528 2.75-1.322.403 2.387-.342 4.917-2.087 6.66a3.08 3.08 0 1 1-3.857-4.751zm-5.723 7.49c2.567-1.464 3.63-1.4 3.778-1.292.573.78-1.925 6.28-8.553 12.907l-4.35-4.35c2.705-2.705 5.804-5.305 9.125-7.265zm-2.488-.88c-1.568 1.024-3.258 2.315-4.936 3.764l-4.85-4.85 4.35-4.35 5.435 5.435zM9.524 5.85L5.85 9.524 3.01 3.01l6.514 2.84z" fill="#67add7"/></svg>