<svg xmlns="http://www.w3.org/2000/svg" width="36" height="36" fill="none"><path fill-rule="evenodd" d="M9.422 3.077v3.077l.422.42c.232.23.422.444.422.474s.024.054.053.054c.082 0 1.424 1.358 1.424 1.44 0 .097-3.102 3.2-3.2 3.2-.072 0-1.3-1.196-1.3-1.266a3.96 3.96 0 0 0-.634-.633c-.02 0-.13-.095-.245-.21l-.207-.21H0v6.223l1.16 1.16L2.32 18c0 .02-.522.558-1.16 1.195L0 20.355v6.223h6.153l1.16-1.16 1.23-1.16c.098 0 3.2 3.102 3.2 3.2 0 .046-.405.475-1.16 1.23l-1.16 1.16V36h6.223l1.16-1.16L18 33.68c.02 0 .558.522 1.195 1.16l1.16 1.16h6.223v-6.157l-.176-.17c-.097-.094-.176-.188-.176-.21 0-.048-.585-.635-.633-.635-.07 0-1.336-1.3-1.336-1.37 0-.097 3.102-3.2 3.2-3.2.083 0 1.723 1.622 1.723 1.705 0 .03.024.053.054.053s.18.127.333.28l.278.28H36v-6.223l-1.16-1.16L33.68 18c0-.02.522-.558 1.16-1.195l1.16-1.16V9.422h-6.153l-1.16 1.16-1.23 1.16c-.046 0-.608-.538-1.635-1.564l-1.564-1.635c0-.046.405-.475 1.16-1.23l1.16-1.16V0h-6.223l-1.16 1.16L18 2.32c-.02 0-.558-.522-1.195-1.16L15.645 0H9.422v3.077zm6.205-.142l.826.897c0 .046-.54.61-1.564 1.635l-1.6 1.564c-.02 0-.423-.388-.897-.86l-.86-.86v-3.2h3.27l.826.826zm8.842.774v1.6l-.86.86-.897.86c-.02 0-.74-.704-1.6-1.564l-1.564-1.635c0-.045.296-.368.817-.894l.817-.823 3.287-.006v1.6zm-4.834 3.234l1.6 1.6-1.6 1.6-1.635 1.6c-.02 0-.755-.72-1.635-1.6l-1.6-1.6 1.59-1.597 1.635-1.6c.024-.002.764.717 1.644 1.597zM14.89 11.62l1.564 1.635c0 .074-3.094 3.2-3.167 3.2-.02 0-.1-.063-.173-.14s-.152-.14-.173-.14c-.05 0-2.534-2.484-2.534-2.533 0-.02-.08-.115-.177-.2l-.177-.172 1.592-1.598 1.636-1.6c.024-.002.748.7 1.608 1.56zm9.457.035l1.6 1.635c0 .02-.704.74-1.564 1.6l-1.635 1.564c-.097 0-3.2-3.102-3.2-3.2 0-.076 3.075-3.19 3.155-3.196.024-.002.764.717 1.643 1.597zm-18.176.738l.86.897c0 .02-.704.74-1.564 1.6l-1.635 1.564c-.045 0-.367-.296-.897-.826L2.11 14.8v-3.27h3.2l.86.86zm27.72.774V14.8l-.826.826-.897.826c-.046 0-.61-.54-1.635-1.564l-1.564-1.6c0-.02.384-.422.852-.894l.852-.858 3.217-.006v1.635zm-23.748 3.2l1.6 1.635c0 .02-.72.755-1.6 1.635l-1.6 1.6-1.6-1.6L5.344 18c0-.027 3.15-3.22 3.19-3.232.005-.002.73.717 1.608 1.597zm8.72-.774l.826.88c0 .03.024.053.053.053.058 0 1.494 1.42 1.494 1.477A106.42 106.42 0 0 1 18 21.234c-.047 0-1.265-1.22-1.265-1.266s-.586-.633-.633-.633-1.336-1.29-1.336-1.336 3.172-3.228 3.226-3.232c.024-.002.416.37.87.823zm10.195.774l1.6 1.635c0 .02-.72.755-1.6 1.635l-1.6 1.6-1.6-1.6-1.6-1.635a180.5 180.5 0 0 1 3.191-3.232 155.21 155.21 0 0 1 1.608 1.597zm-23.6 4.746l1.564 1.6c0 .02-.388.423-.86.897l-.86.86h-3.2V21.2l.817-.823.897-.826c.06-.002.473.39 1.644 1.56zm9.422 0l1.564 1.635c0 .046-.542.613-1.564 1.635l-1.6 1.564a106.76 106.76 0 0 1-3.234-3.234c0-.02.7-.738 1.556-1.597l1.635-1.564c.06-.002.473.39 1.644 1.56zm9.492 0l1.564 1.6c0 .02-.72.756-1.6 1.636l-1.6 1.6-.137-.142c-.075-.078-.154-.142-.175-.142-.05 0-2.534-2.484-2.534-2.533 0-.02-.08-.115-.176-.21s-.176-.188-.176-.21.7-.74 1.556-1.6l1.635-1.564c.06-.002.473.39 1.644 1.56zm8.684-.738l.826.826v3.27h-3.2l-.86-.86-.86-.897c0-.02.7-.738 1.556-1.597l1.635-1.564c.058-.002.297.215.905.823zm-13.43 5.484l1.6 1.6-1.6 1.6-1.635 1.6c-.02 0-.755-.72-1.635-1.6l-1.6-1.6 1.59-1.597 1.635-1.6c.024-.002.764.717 1.644 1.597zm-4.746 4.676l1.564 1.635c0 .045-.296.367-.826.897l-.826.826h-3.27v-3.2l.853-.858.897-.86c.024-.002.748.7 1.608 1.562zm8.72-.703l.86.86v3.2H21.2l-.826-.826-.826-.896c0-.076 3.075-3.19 3.155-3.197.024-.002.432.385.905.858z" fill="#67add7"/></svg>