<svg xmlns="http://www.w3.org/2000/svg" width="36" height="30" fill="none"><path fill-rule="evenodd" d="M34.945 0c-7.1 0-13.144 4.673-15.167 11.096-.223-.152-.466-.276-.724-.367V7.88a6.54 6.54 0 0 1 3.636-5.883c.52-.26.732-.894.472-1.415s-.894-.732-1.415-.472A8.67 8.67 0 0 0 18 3.735 8.67 8.67 0 0 0 14.253.112c-.52-.26-1.155-.05-1.415.472s-.05 1.155.472 1.415a6.54 6.54 0 0 1 3.636 5.883v2.847a3.22 3.22 0 0 0-.382.165c-.118.06-.232.128-.342.203C14.198 4.673 8.164 0 1.055 0 .472 0 0 .472 0 1.055c0 4.01 1.536 7.828 4.338 10.8-.017.135-.03.27-.038.405-.008.13-.012.258-.012.387 0 2.2 1.127 4.14 2.834 5.273-1.707 1.135-2.834 3.075-2.834 5.273 0 3.5 2.84 6.328 6.328 6.328 2.4 0 4.51-1.355 5.578-3.342.44.74 1.027 1.232 1.805 1.232s1.364-.493 1.805-1.232c1.068 1.987 3.168 3.342 5.578 3.342 3.49 0 6.328-2.84 6.328-6.328 0-2.2-1.127-4.14-2.834-5.273 1.707-1.134 2.834-3.075 2.834-5.273 0-.133-.004-.267-.012-.4s-.02-.262-.037-.392C34.464 8.883 36 5.066 36 1.055 36 .472 35.528 0 34.945 0zM6.398 12.657a4.25 4.25 0 0 1 .099-.915c.078-.352-.03-.72-.285-.975-2.377-2.37-3.795-5.394-4.058-8.614 7.087.56 12.682 6.476 12.682 13.668v1.055h-4.22c-2.326 0-4.22-1.892-4.22-4.22zm8.437 10.547c0 2.326-1.892 4.22-4.22 4.22s-4.22-1.893-4.22-4.22 1.893-4.22 4.22-4.22h4.22v4.22zM18 25.123c-.766-1.282-.958-4.027-1.026-4.995v-.003l-.03-.337V13.71c0-.582.473-1.055 1.055-1.055s1.055.473 1.055 1.055v6.076c-.01.042-.022.196-.038.427-.076 1.04-.265 3.652-1.016 4.908zm11.602-1.92c0 2.326-1.893 4.22-4.22 4.22s-4.22-1.893-4.22-4.22v-4.22h4.22c2.326 0 4.22 1.893 4.22 4.22zm.186-12.436c-.256.255-.363.622-.285.975a4.25 4.25 0 0 1 .099.915c0 2.326-1.893 4.22-4.22 4.22h-4.22V15.82c0-7.192 5.595-13.11 12.682-13.668-.263 3.22-1.68 6.245-4.058 8.614zM11.672 23.203c.582 0 1.055-.472 1.055-1.055s-.472-1.055-1.055-1.055-1.055.472-1.055 1.055.472 1.055 1.055 1.055zm13.71-1.055c0 .583-.472 1.055-1.055 1.055s-1.055-.472-1.055-1.055.472-1.055 1.055-1.055 1.055.472 1.055 1.055z" fill="#67add7"/></svg>