<svg xmlns="http://www.w3.org/2000/svg" width="20" height="22" fill="none"><path d="M19.827 9.758c-.067-.426-.465-.716-.888-.648a.78.78 0 0 0-.644.894c.792 4.695-2.337 9.134-6.988 9.93s-9.06-2.355-9.85-7.036 2.34-9.12 7-9.915a8.51 8.51 0 0 1 7.73 2.67L12.74 6.805c-.406.136-.626.578-.49.987s.575.63.98.495l4.655-1.562a.78.78 0 0 0 .531-.741V1.3a.78.78 0 0 0-.776-.781.78.78 0 0 0-.776.781v2.852a9.94 9.94 0 0 0-14.114.356c-3.8 4.02-3.642 10.382.354 14.206a9.94 9.94 0 0 0 14.114-.356c2.167-2.293 3.134-5.48 2.6-8.6z" fill="#4e5b67"/></svg>