<svg width="35" height="38" viewBox="0 0 35 36" fill="#fff" stroke="#4E5B67" xmlns="http://www.w3.org/2000/svg">
<path d="M16.6765 13.3791C16.8631 13.65 17.171 13.8118 17.5 13.8118C17.829 13.8118 18.1369 13.65 18.3235 13.3791C19.1298 12.2087 20.3611 11.5 21.7039 11.5C23.9777 11.5 26.0001 13.5897 26 16.4006C26 17.229 25.5954 18.259 24.8245 19.4119C24.0676 20.5439 23.0304 21.6868 21.938 22.7163C20.8485 23.7429 19.73 24.6325 18.832 25.2601C18.3818 25.5748 18.0001 25.8145 17.7144 25.9708C17.6299 26.017 17.5591 26.0531 17.5015 26.0803C17.4441 26.0529 17.3734 26.0166 17.2891 25.97C17.0033 25.8122 16.6214 25.5703 16.171 25.2529C15.2726 24.6201 14.1535 23.724 13.0634 22.6928C11.9703 21.6586 10.9323 20.5129 10.1748 19.3829C9.40234 18.2305 9 17.2099 9 16.4006C9 13.5897 11.0224 11.5 13.2961 11.5C14.6389 11.5 15.8703 12.2087 16.6765 13.3791ZM17.3505 26.1428C17.3506 26.1426 17.3539 26.1415 17.3601 26.14C17.3535 26.1421 17.3504 26.1429 17.3505 26.1428ZM17.6425 26.1405C17.6489 26.1421 17.6523 26.1433 17.6524 26.1434C17.6525 26.1436 17.6493 26.1428 17.6425 26.1405Z" stroke-width="2" stroke-linejoin="round"/>
</svg>
