<svg width="40" height="40" viewBox="0 0 40 40" fill="none" xmlns="http://www.w3.org/2000/svg">
<path d="M30.2511 8.68625C27.1887 5.66431 23.117 4 18.7861 4H17.836V6.42812C14.5113 6.65 11.4164 8.03319 9.03785 10.3804C6.43399 12.9499 5 16.3662 5 20C5 23.6338 6.43405 27.0501 9.03785 29.6196C9.19493 29.7747 9.35536 29.9252 9.51857 30.0719L7.99401 31.9777L8.73884 32.5587C11.625 34.81 15.0992 36 18.7861 36C23.117 36 27.1887 34.3357 30.2511 31.3137C33.3135 28.2917 35 24.2738 35 20.0001C35 15.7264 33.3135 11.7083 30.2511 8.68625ZM10.6809 31.6449L13.6599 27.9211H24.8663V26.0461H23.5962V21.3252L20.9104 20L23.5962 18.6748V13.954H24.8663V12.079H19.7361V5.90544C23.2021 6.128 26.4291 7.56638 28.9075 10.0121C31.6111 12.6799 33.1 16.2271 33.1 20C33.1 23.7729 31.6111 27.32 28.9075 29.9879C26.204 32.6557 22.6095 34.125 18.7861 34.125C15.8503 34.125 13.0675 33.2706 10.6809 31.6449ZM6.90008 20C6.90008 13.8481 11.7246 8.78756 17.836 8.30837V12.079H12.7058V13.954H13.9759V18.6748L16.6617 20L13.9759 21.3252V24.4999L10.7031 28.5911C8.36542 26.4477 6.90008 23.3897 6.90008 20ZM21.6962 22.484V26.0461H15.8759V22.484L18.786 21.0481L21.6962 22.484ZM18.7861 18.9518L15.876 17.5159V13.9539H21.6962V17.5159L18.7861 18.9518Z" fill="#67ADD7"/>
</svg>
