<svg width="24" height="24" viewBox="0 0 24 24" fill="none" xmlns="http://www.w3.org/2000/svg">
<path fill-rule="evenodd" clip-rule="evenodd" d="M16.2409 2.59075C17.0284 1.80265 18.3822 1.80396 19.167 2.58943L21.8942 5.31899C22.2846 5.70971 22.5 6.23004 22.5 6.78232C22.5 7.3346 22.2846 7.85489 21.8942 8.24561L21.8934 8.2464L9.56448 20.4756C9.47977 20.5597 9.37591 20.6202 9.26248 20.653L2.89817 22.4729C2.83518 22.4908 2.76941 22.4999 2.70471 22.4999C2.5203 22.4999 2.34054 22.4275 2.20646 22.2933C2.0257 22.1124 1.9568 21.8475 2.02707 21.6015L3.8452 15.2325C3.87795 15.1191 3.93852 15.0144 4.02261 14.9296L16.2409 2.59075ZM17.2386 3.60218L15.4296 5.42749L19.0725 9.07039L20.8992 7.26004C21.0223 7.13668 21.091 6.9719 21.091 6.7954C21.091 6.61895 21.0228 6.45437 20.8978 6.32944L18.1706 3.60218C17.9247 3.35634 17.4846 3.35657 17.2386 3.60218ZM14.4378 6.42826L6.21287 14.7272H6.34104C6.60813 14.7272 6.85158 14.878 6.97113 15.1163L7.44311 16.0606L15.7566 7.74709L14.4378 6.42826ZM8.4394 17.0569L9.38338 17.5287C9.62174 17.6483 9.77285 17.8919 9.77285 18.159V18.2872L18.0717 10.0622L16.7529 8.74342L8.4394 17.0569ZM8.3637 19.4459V18.5944L6.935 17.8801C6.79871 17.812 6.68797 17.7013 6.61984 17.565L5.90549 16.1362H5.05409L4.52503 17.9883L6.51173 19.9749L8.3637 19.4459ZM4.08228 19.5381L3.73052 20.7695L4.96187 20.4177L4.08228 19.5381ZM12.9532 20.7495L19.9533 20.7497L19.9531 22.2499L12.953 22.2496L12.9532 20.7495Z" fill="#67ADD7"/>
</svg>
