<svg width="30" height="30" viewBox="0 0 30 30" fill="none" xmlns="http://www.w3.org/2000/svg">
<path fill-rule="evenodd" clip-rule="evenodd" d="M22.5938 15.418V10.9615L16.4852 14.7599C16.0271 15.0448 15.5136 15.1872 15 15.1872C14.4864 15.1872 13.9729 15.0448 13.5148 14.7599L7.40625 10.9615V15.418V18.9336C7.40625 19.709 8.03709 20.3398 8.8125 20.3398H21.1875C21.9629 20.3398 22.5938 19.709 22.5938 18.9336V15.418ZM24 18.9336C24 20.4844 22.7383 21.7461 21.1875 21.7461H8.8125C7.26169 21.7461 6 20.4844 6 18.9336V15.418V10.8125C6 9.26169 7.26169 8 8.8125 8H21.1875C22.7383 8 24 9.26169 24 10.8125V15.418V18.9336ZM14.2574 13.5657C14.7154 13.8506 15.2846 13.8505 15.7426 13.5657L22.007 9.67038C21.9782 9.64961 21.9485 9.6299 21.9181 9.61133C21.705 9.48127 21.4548 9.40625 21.1875 9.40625H8.8125C8.65731 9.40625 8.50792 9.43152 8.36822 9.47815C8.26725 9.51186 8.17133 9.55673 8.08195 9.61129C8.05151 9.62987 8.02184 9.64958 7.99297 9.67034L14.2574 13.5657Z" fill="#67ADD7"/>
</svg>
