<svg xmlns="http://www.w3.org/2000/svg" width="38" height="32" fill="none"><path d="M37.71 8.55c0-.962-.38-1.837-1-2.482.62-.645 1-1.52 1-2.482A3.59 3.59 0 0 0 34.123 0H13.434a6.08 6.08 0 0 0-6.069 6.069 6.04 6.04 0 0 0 1.394 3.865H3.587A3.59 3.59 0 0 0 0 13.521c0 .962.38 1.837 1 2.482-.62.645-1 1.52-1 2.482 0 1.335.734 2.502 1.82 3.12A6.05 6.05 0 0 0 0 25.931 6.08 6.08 0 0 0 6.069 32h28.054a3.59 3.59 0 0 0 3.587-3.587c0-.962-.38-1.837-1-2.482.62-.645 1-1.52 1-2.482 0-1.335-.734-2.502-1.82-3.12a6.05 6.05 0 0 0-.004-8.658 3.59 3.59 0 0 0 1.823-3.121zM13.434 2.2h20.688A1.38 1.38 0 0 1 35.5 3.587a1.38 1.38 0 0 1-1.377 1.378H13.556v2.2h20.567A1.38 1.38 0 0 1 35.5 8.551a1.38 1.38 0 0 1-1.377 1.377H13.434c-2.128 0-3.86-1.73-3.86-3.86s1.73-3.86 3.86-3.86zM3.587 19.862a1.38 1.38 0 0 1-1.377-1.377 1.38 1.38 0 0 1 1.377-1.377H31.52v-2.2H3.587a1.38 1.38 0 0 1-1.377-1.378 1.38 1.38 0 0 1 1.377-1.377H31.64c2.128 0 3.86 1.73 3.86 3.86s-1.73 3.86-3.86 3.86H3.587zm30.536 2.2a1.38 1.38 0 0 1 1.377 1.377 1.38 1.38 0 0 1-1.377 1.377H6.2v2.21h27.933a1.38 1.38 0 0 1 1.377 1.378 1.38 1.38 0 0 1-1.377 1.377H6.07c-2.128 0-3.86-1.73-3.86-3.86s1.73-3.86 3.86-3.86h28.054z" fill="#67add7"/></svg>