<svg width="16" height="16" viewBox="0 0 16 16" fill="none" xmlns="http://www.w3.org/2000/svg">
<path fill-rule="evenodd" clip-rule="evenodd" d="M9.62559 1.09334C11.0834 -0.364446 13.4469 -0.364446 14.9047 1.09334C16.3625 2.55112 16.3625 4.91466 14.9046 6.37245L11.5105 9.76653C11.0331 10.2441 10.4351 10.5832 9.78016 10.7477H9.75082L9.59619 10.7797L9.51086 10.7957L9.32689 10.8223H9.23625C9.19606 10.8223 9.15855 10.8268 9.1227 10.8311C9.09671 10.8342 9.07159 10.8372 9.04694 10.8383L8.88697 10.857H8.87097H8.68434C8.55134 10.8517 8.41873 10.8392 8.28707 10.8197C8.17777 10.801 8.0711 10.7797 7.96446 10.753L7.80715 10.7104C7.75116 10.6944 7.69251 10.6757 7.63652 10.6544C7.61601 10.6466 7.59513 10.6391 7.57417 10.6316C7.53791 10.6187 7.50137 10.6056 7.46589 10.5904C7.44723 10.5824 7.42857 10.5747 7.4099 10.567C7.37258 10.5516 7.33525 10.5362 7.29792 10.5184C6.90111 10.3345 6.54005 10.0818 6.23144 9.77187C6.01529 9.55519 5.90266 9.25608 5.92215 8.95067C5.93931 8.69324 6.0492 8.45075 6.23144 8.26812C6.65234 7.87197 7.30892 7.87197 7.72985 8.26812C8.35443 8.89193 9.36623 8.89193 9.99081 8.26812L10.8653 7.39893L10.8867 7.37493L13.3876 4.8767C14.0127 4.25162 14.0127 3.23816 13.3876 2.61308C12.7625 1.988 11.749 1.988 11.124 2.61308L9.1163 4.61809C9.04025 4.69463 8.92552 4.71782 8.8257 4.67673C8.28494 4.45558 7.7062 4.34238 7.12198 4.34344H7.02334C6.91442 4.34554 6.81519 4.28114 6.77273 4.18082C6.72977 4.08077 6.75192 3.9647 6.82872 3.88752L9.62559 1.09334ZM9.13474 5.73237C9.36161 5.87663 9.57176 6.04563 9.76129 6.23629C9.97744 6.45294 10.0901 6.75205 10.0706 7.05746C10.0522 7.31305 9.94241 7.55344 9.76132 7.7347C9.34042 8.13085 8.68385 8.13085 8.26292 7.7347C7.63834 7.11089 6.62654 7.11089 6.00196 7.7347L2.59719 11.1368C1.9721 11.7619 1.9721 12.7753 2.59719 13.4004C3.22227 14.0255 4.23572 14.0255 4.8608 13.4004L6.87381 11.3847C6.94986 11.3082 7.06459 11.285 7.16441 11.3261C7.7062 11.5464 8.28588 11.6588 8.87078 11.6567H8.97742C9.12468 11.6559 9.24475 11.7745 9.24559 11.9218C9.246 11.9934 9.2176 12.0622 9.16673 12.1126L6.36721 14.9122C5.66839 15.6118 4.71914 16.0034 3.73031 16C1.66878 15.9987 -0.0013115 14.3264 7.72804e-07 12.2649C0.000625436 11.277 0.392872 10.3296 1.09075 9.63038L4.48218 6.23629C5.18125 5.53478 6.13137 5.14128 7.12174 5.14313C7.83527 5.14313 8.53384 5.34759 9.13474 5.73237Z" fill="#4E5B67"/>
</svg>
