<svg width="35" height="35" viewBox="0 0 35 35" fill="none" stroke="#4E5B67" stroke-width="2" xmlns="http://www.w3.org/2000/svg">
<path d="M17.6995 17.9391C16.4472 17.9391 15.4268 16.9186 15.4268 15.6663C15.4268 14.414 16.4472 13.3936 17.6995 13.3936C18.9518 13.3936 19.9723 14.414 19.9723 15.6663C19.9723 16.9186 18.9518 17.9391 17.6995 17.9391Z"/>
<path d="M24.9115 18.3914L24.9115 18.3914L24.909 18.3981C24.7113 18.9322 24.3792 19.4874 23.9005 20.0446C23.8925 20.0536 23.8831 20.0643 23.8729 20.0767L17.6992 27.328L11.5122 20.0609L11.5122 20.0608L11.5078 20.0558C11.0246 19.4958 10.689 18.9367 10.4873 18.392L10.4873 18.392L10.4849 18.3854C9.60379 16.0552 9.93468 13.4073 11.3874 11.3048L11.3874 11.3048C12.8407 9.20137 15.1333 8 17.6992 8C20.2651 8 22.5574 9.20129 24.0108 11.3048L24.0108 11.3049C25.4636 13.4071 25.7951 16.0549 24.9115 18.3914ZM10.5657 10.7371L10.5647 10.7364L10.5657 10.7371Z"/>
</svg>
