<svg xmlns="http://www.w3.org/2000/svg" width="20" height="18" fill="none"><path d="M9.17 3.047a1 1 0 0 0 1.659 0C11.69 1.768 13.002 1 14.425 1 16.833 1 19 3.27 19 6.35c0 .92-.438 2.047-1.252 3.292-.8 1.225-1.897 2.46-3.05 3.57s-2.33 2.066-3.276 2.743l-1.18.768-.24.126-.24-.127c-.303-.17-.706-.432-1.18-.775-.948-.683-2.128-1.65-3.278-2.76s-2.25-2.352-3.05-3.575C1.436 8.368 1 7.25 1 6.35 1 3.27 3.167 1 5.575 1c1.423 0 2.734.768 3.596 2.047zm.682 13.865zm.29-.002z" stroke="#4e5b67" stroke-width="2" stroke-linejoin="round"/></svg>