<svg width="20" height="17" viewBox="0 0 20 17" fill="none" xmlns="http://www.w3.org/2000/svg">
<path fill-rule="evenodd" clip-rule="evenodd" d="M1.1801 0.96003L3.67547 3.36463C1.9833 4.63174 0.711877 6.34751 0.0173127 8.30128C-0.00577089 8.36614 -0.00577089 8.63575 0.0173127 8.70023C0.277796 9.43521 0.621976 10.1401 1.04355 10.802C2.90823 13.7492 6.15597 15.6414 9.72922 15.7327H9.74096H9.99918H10.2574H10.2691C11.9792 15.6871 13.6505 15.2312 15.1316 14.4061L17.8229 17L18.8191 16.04L2.17621 0L1.1801 0.96003ZM10.2312 14.3379H10.2195H9.99958H9.78009H9.76796C8.25741 14.2958 6.78298 13.8829 5.4842 13.1384C4.17318 12.3842 3.07308 11.3329 2.2795 10.0758L2.27715 10.0728C1.96019 9.57446 1.69345 9.04806 1.48057 8.50075C1.69353 7.95361 1.96027 7.42733 2.27715 6.92911L2.2795 6.92609C2.91084 5.92882 3.73578 5.05823 4.70914 4.36199L6.8696 6.44457C6.37345 7.1474 6.1473 7.99505 6.23014 8.84136C6.31298 9.68768 6.69962 10.4796 7.3234 11.0806C7.94717 11.6816 8.76899 12.054 9.64714 12.1336C10.5253 12.2132 11.4047 11.995 12.1338 11.5166L14.0658 13.3786C12.879 13.973 11.5681 14.3009 10.2312 14.3379ZM11.079 10.5C10.6378 10.722 10.1347 10.8024 9.64272 10.7297C9.15078 10.657 8.69575 10.4349 8.34384 10.0958C7.99192 9.75659 7.76148 9.31804 7.68604 8.84393C7.61061 8.36981 7.69411 7.88487 7.9244 7.45965L11.079 10.5ZM19.9829 8.30131C19.7222 7.56639 19.3781 6.8615 18.9566 6.1995C17.092 3.25267 13.8442 1.36051 10.271 1.26926H10.2592C10.2165 1.26926 10.1736 1.26842 10.1307 1.26757C10.0876 1.26672 10.0443 1.26587 10.001 1.26587C9.91454 1.26587 9.82886 1.26587 9.74279 1.26926H9.73105C8.36327 1.30495 7.01674 1.6042 5.77085 2.14935L6.87808 3.21685C7.80254 2.87749 8.77974 2.69074 9.76861 2.66444H9.78191C9.82758 2.66444 9.8694 2.66356 9.90805 2.66276C9.94123 2.66206 9.97209 2.66142 10.001 2.66142C10.0636 2.66142 10.136 2.66142 10.2201 2.66444H10.2326C11.743 2.70645 13.2173 3.11917 14.516 3.86353C15.8269 4.6178 16.927 5.66909 17.7207 6.92612V6.92914C18.0377 7.42728 18.3045 7.95357 18.5173 8.50079C18.3055 9.04772 18.04 9.57388 17.7242 10.0721C17.7234 10.0731 17.7228 10.0742 17.7223 10.0754C17.2601 10.8049 16.6937 11.4682 16.0399 12.0457L17.0657 13.034C17.8 12.3774 18.4367 11.6262 18.9578 10.8017C19.379 10.1398 19.7231 9.43501 19.9837 8.70026C20.0056 8.63502 20.0056 8.36617 19.9829 8.30131ZM13.5856 9.68099L12.3402 8.48039C12.3346 7.88873 12.0883 7.32284 11.6541 6.90445C11.22 6.48607 10.6329 6.24863 10.019 6.24322L8.77324 5.043C9.44392 4.82214 10.1654 4.78694 10.8558 4.94139C11.5462 5.09584 12.1778 5.43374 12.679 5.91675C13.1801 6.39975 13.5307 7.0085 13.691 7.67388C13.8513 8.33926 13.8147 9.03461 13.5856 9.68099Z" fill="#4E5B67"/>
</svg>
