<svg width="21" height="15" viewBox="0 0 21 15" fill="none" xmlns="http://www.w3.org/2000/svg">
<path fill-rule="evenodd" clip-rule="evenodd" d="M18.9725 4.96013C19.394 5.62563 19.7381 6.33425 19.9988 7.07306C20.0215 7.13826 20.0215 7.4093 19.9972 7.47412C19.7366 8.21276 19.3926 8.92125 18.9713 9.58668C17.1077 12.5495 13.8595 14.452 10.2853 14.5438H10.2735C10.2309 14.5457 10.1229 14.5457 10.0153 14.5457C9.94937 14.5457 9.88346 14.545 9.83239 14.5444C9.80008 14.5441 9.77372 14.5438 9.75704 14.5438H9.74531C6.17188 14.452 2.92399 12.5499 1.05923 9.58705C0.63763 8.92163 0.293434 8.21299 0.0329385 7.47412C0.00985384 7.4093 0.00985384 7.13826 0.0329385 7.07306C0.293687 6.3341 0.638007 5.62536 1.05962 4.95975C2.92399 1.99732 6.17188 0.0951465 9.7457 0.00341163H9.75744C9.84351 0 9.9292 0 10.0157 0C10.1021 0 10.1886 0 10.2739 0.0037907H10.2856C13.8598 0.0955256 17.1077 1.9977 18.9725 4.96013ZM17.7369 8.8581L17.7388 8.85469L17.74 8.85318C18.0558 8.35236 18.3214 7.82342 18.5331 7.27359C18.3203 6.72348 18.0536 6.1944 17.7365 5.69363V5.6906C16.9428 4.42691 15.8427 3.37005 14.5317 2.61179C13.2329 1.86335 11.7586 1.44832 10.2481 1.40597H10.2356C10.1514 1.40294 10.0791 1.40294 10.0165 1.40294C9.98753 1.40294 9.95669 1.40358 9.9235 1.40428C9.88486 1.40509 9.84303 1.40597 9.79735 1.40597H9.78404C8.27342 1.44826 6.79893 1.86329 5.50008 2.61179C4.189 3.36995 3.08885 4.42683 2.29523 5.6906L2.29288 5.69363C1.97599 6.19449 1.70923 6.72355 1.49627 7.27359C1.70915 7.82379 1.97591 8.35298 2.29288 8.85393L2.29523 8.85697C3.08885 10.1207 4.189 11.1776 5.50008 11.9358C6.79893 12.6843 8.27342 13.0993 9.78404 13.1416H9.79617H10.0157H10.2356H10.2473C11.7581 13.0994 13.2327 12.6843 14.5317 11.9358C15.8427 11.1779 16.943 10.1214 17.7369 8.8581ZM7.91115 4.21966C8.53412 3.81638 9.26653 3.60113 10.0158 3.60113C11.0205 3.60113 11.984 3.9878 12.6945 4.67609C13.4049 5.36438 13.804 6.2979 13.804 7.27128C13.804 7.99717 13.5818 8.70675 13.1656 9.31031C12.7493 9.91386 12.1577 10.3843 11.4655 10.6621C10.7733 10.9398 10.0116 11.0125 9.27673 10.8709C8.54188 10.7293 7.86688 10.3798 7.33709 9.86647C6.8073 9.35319 6.4465 8.69923 6.30033 7.98729C6.15416 7.27535 6.22918 6.53741 6.5159 5.86677C6.80263 5.19614 7.28817 4.62294 7.91115 4.21966ZM8.71544 9.15672C9.10034 9.40588 9.55286 9.53888 10.0158 9.53888V9.54039C10.6366 9.53969 11.2317 9.30035 11.6705 8.87492C12.1094 8.44948 12.356 7.87273 12.3563 7.27128C12.3563 6.82279 12.2191 6.38438 11.9619 6.01147C11.7047 5.63857 11.3391 5.34792 10.9115 5.1763C10.4838 5.00467 10.0132 4.95976 9.55916 5.04726C9.10513 5.13475 8.68809 5.35072 8.36076 5.66785C8.03342 5.98498 7.81051 6.38902 7.7202 6.8289C7.62989 7.26877 7.67624 7.7247 7.85339 8.13905C8.03054 8.5534 8.33053 8.90755 8.71544 9.15672Z" fill="#4E5B67"/>
</svg>
