<svg width="30" height="30" viewBox="0 0 30 30" fill="none" xmlns="http://www.w3.org/2000/svg">
<path fill-rule="evenodd" clip-rule="evenodd" d="M23.2156 18.2653C23.5793 18.7524 23.5586 19.4356 23.1389 19.9032L23.1338 19.9089C22.3639 20.6709 21.259 21.0731 19.9355 21.0731L19.9027 21.073C18.8449 21.0677 17.6199 20.7777 16.3603 20.2344C16.2997 20.2083 16.2376 20.1912 16.1753 20.1824C15.2854 19.7803 14.3987 19.2498 13.5479 18.607C13.5217 18.5792 13.4929 18.5532 13.4616 18.5292C12.879 18.0824 12.3476 17.62 11.8823 17.1548C11.4172 16.6896 10.9548 16.1582 10.508 15.5756C10.484 15.5443 10.458 15.5155 10.4302 15.4893C9.78738 14.6385 9.25691 13.7518 8.85477 12.8618C8.84603 12.7996 8.82889 12.7374 8.80277 12.6769C8.25946 11.4173 7.96946 10.1923 7.96418 9.13443L7.96411 9.10166C7.96411 7.7782 8.36628 6.67327 9.1283 5.90335L9.13394 5.89825C9.60062 5.47938 10.282 5.45798 10.7689 5.81939C10.8261 5.86191 10.8807 5.90972 10.9319 5.96279C12.7905 7.89029 12.6559 8.80028 11.8346 9.64245L10.5038 10.9832C10.2951 11.1935 10.237 11.5104 10.3575 11.781C10.3913 11.8569 11.2086 13.6629 13.2441 15.6984L13.2915 15.7457L13.3388 15.7931C15.3743 17.8286 17.1803 18.6459 17.2562 18.6796C17.5268 18.8002 17.8437 18.742 18.054 18.5333L19.3947 17.2026C20.2369 16.3813 21.1469 16.2467 23.0744 18.1053C23.1266 18.1556 23.1736 18.2092 23.2156 18.2653ZM14.3067 14.7305L14.2599 14.6836C12.9856 13.4093 12.2348 12.2298 11.8929 11.6232L12.8562 10.6526L12.8603 10.6485C13.7513 9.73615 14.0413 8.71385 13.7223 7.61025C13.4909 6.80928 12.9328 5.96926 11.966 4.96666C11.8863 4.88401 11.8022 4.80697 11.7142 4.7358C11.2568 4.36578 10.6938 4.15388 10.0974 4.13238C9.38602 4.10671 8.70344 4.35432 8.17405 4.8295L8.15345 4.84802C8.1439 4.8566 8.13457 4.86547 8.12545 4.87455C7.0716 5.9284 6.51917 7.40373 6.52782 9.1411C6.54258 12.0925 8.16465 15.4677 10.8668 18.1698C10.8669 18.1699 10.867 18.17 10.8671 18.1701C10.8672 18.1702 10.8673 18.1703 10.8674 18.1704C13.5695 20.8725 16.9447 22.4946 19.8961 22.5094C21.6334 22.518 23.1088 21.9656 24.1626 20.9117C24.1717 20.9026 24.1806 20.8933 24.1892 20.8837L24.2077 20.8631C24.6829 20.3337 24.9305 19.6512 24.9048 18.9398C24.8833 18.3434 24.6714 17.7804 24.3014 17.323C24.2302 17.235 24.1532 17.1509 24.0705 17.0712C23.0679 16.1044 22.2279 15.5463 21.4269 15.3148C20.3233 14.9959 19.301 15.2859 18.3887 16.1769L18.3846 16.181L17.414 17.1443C16.8074 16.8024 15.6279 16.0516 14.3535 14.7772L14.3067 14.7305Z" fill="#67ADD7"/>
</svg>
