<svg width="40" height="40" viewBox="0 0 40 40" fill="none" xmlns="http://www.w3.org/2000/svg">
<path d="M7 33.6541C11.4373 35.2869 15.5869 36 19.6841 36C23.7805 36 27.9304 35.2871 32.3682 33.6541L24.4919 21.7739L26.9031 15.9871L28.5767 16.9915L29.5415 15.3835L20.6216 10.0317V9.46436C21.7129 9.07739 22.4966 8.03467 22.4966 6.8125C22.4966 5.26172 21.2349 4 19.6841 4C18.1333 4 16.8716 5.26172 16.8716 6.8125H18.7466C18.7466 6.29565 19.1672 5.875 19.6841 5.875C20.2012 5.875 20.6216 6.29565 20.6216 6.8125C20.6216 7.32935 20.2012 7.75 19.6841 7.75H18.7466V10.0317L9.8269 15.3835L10.7915 16.9915L12.4653 15.9871L14.8765 21.7739L7 33.6541ZM27.5522 33.1794L24.5403 28.6052L22.9744 29.6362L25.5745 33.5857C24.1187 33.844 22.4299 34.054 20.6216 34.1099V29.4375H18.7466V34.1099C16.9382 34.054 15.2493 33.844 13.7935 33.5857L16.3938 29.6362L14.8279 28.6052L11.8159 33.1794C11.0476 33 10.3982 32.8223 9.89868 32.6748L16.4373 22.8125H22.9309L29.4692 32.6748C28.9697 32.8223 28.3206 33 27.5522 33.1794ZM22.3726 13.2688C22.0186 14.4297 20.9465 15.25 19.6841 15.25C18.4216 15.25 17.3499 14.4297 16.9956 13.2688L19.6841 11.6558L22.3726 13.2688ZM15.3611 14.2495C16.0833 15.9719 17.772 17.125 19.6841 17.125C21.5967 17.125 23.2852 15.9714 24.0071 14.2495L25.2781 15.0122L22.8091 20.9375H16.5591L14.0901 15.0122L15.3611 14.2495Z" fill="#67ADD7"/>
</svg>
