<svg width="40" height="40" viewBox="0 0 40 40" fill="none" xmlns="http://www.w3.org/2000/svg">
<path fill-rule="evenodd" clip-rule="evenodd" d="M16.4877 6.79773C17.6793 6.02459 19.0169 5.80822 20.407 5.87594C21.5003 5.92918 22.5475 6.17291 23.4834 6.77827L23.4893 6.78207C23.5466 6.81917 23.6044 6.85656 23.6566 6.90017C23.7249 6.95717 23.7908 7.017 23.8415 7.06309L23.8417 7.06321C23.8601 7.07991 23.8765 7.0948 23.8903 7.1071C24.9522 8.16792 24.7163 9.65902 23.3779 10.4645C22.0684 11.2525 20.6279 11.4296 19.1362 11.2728C18.1612 11.1702 17.229 10.9161 16.4149 10.3373C15.0893 9.39497 15.1179 7.68651 16.4877 6.79773ZM17.4454 8.83653C17.5651 8.92699 17.6971 9.00873 17.8353 9.06607C19.2662 9.65917 20.7056 9.66292 22.1344 9.07315C22.2869 9.01015 22.4141 8.88568 22.5413 8.76123C22.6 8.7037 22.6588 8.64616 22.7201 8.59471C22.6586 8.54342 22.5995 8.48627 22.5405 8.42913C22.4127 8.30554 22.285 8.18195 22.1322 8.1176C20.7375 7.52991 19.3259 7.53028 17.9177 8.08322C17.789 8.13377 17.6695 8.20764 17.5814 8.26207C17.549 8.28205 17.5209 8.29942 17.4982 8.31204C17.2265 8.56357 17.2253 8.67029 17.4454 8.83653ZM1.30806 16.7854L1.30809 16.7854C1.3693 16.7914 1.4305 16.7975 1.49171 16.7975C2.17788 16.7977 2.86406 16.7976 3.55025 16.7974H3.55043C5.45516 16.7971 7.35991 16.7967 9.26461 16.8038C9.49617 16.8047 9.59371 16.7246 9.68696 16.5245C11.0601 13.5789 14.5228 12.3139 17.3515 13.7191C18.3572 14.2187 19.1148 14.9914 19.7371 15.91C19.7748 15.9657 19.8144 16.0202 19.8555 16.0768L19.8555 16.0769L19.8556 16.077L19.8558 16.0773C19.8749 16.1036 19.8944 16.1304 19.9141 16.158C20.001 16.0462 20.0853 15.9351 20.1687 15.8253L20.1693 15.8245L20.1694 15.8243L20.1694 15.8243L20.1695 15.8242L20.1695 15.8242C20.3462 15.5914 20.5187 15.364 20.7034 15.1471C22.8861 12.584 26.7306 12.4588 29.0433 14.9077C29.3704 15.2541 29.6247 15.6697 29.8787 16.0846C29.9795 16.2494 30.0803 16.414 30.1855 16.5741C30.1957 16.5897 30.2053 16.6051 30.2146 16.6201C30.2766 16.7198 30.327 16.8008 30.4884 16.8003C32.5467 16.7942 34.605 16.7937 36.6633 16.7933L36.6729 16.7932C37.344 16.7931 38.0151 16.7929 38.6863 16.7926C38.7059 16.7926 38.7256 16.7868 38.7452 16.7809C38.7542 16.7782 38.7632 16.7756 38.7722 16.7735L38.8152 16.8164L38.8079 17.1187L38.8078 17.1201C38.8026 17.341 38.7974 17.5619 38.7905 17.7827C38.7476 19.1773 38.1827 20.3191 37.1321 21.2318C37.0465 21.3061 36.9758 21.4431 36.9688 21.5553C36.8838 22.9384 36.2875 24.0527 35.2349 24.9397C35.1551 25.0069 35.091 25.1333 35.0816 25.2378C34.8472 27.8521 32.9607 29.5792 30.332 29.5743C29.7187 29.5731 29.1054 29.5715 28.492 29.57H28.492H28.492H28.492C26.9081 29.5659 25.3242 29.5618 23.7403 29.5652C23.5841 29.5656 23.3949 29.6244 23.2773 29.723C22.2229 30.608 21.1769 31.5033 20.1396 32.4083C19.9722 32.5543 19.8702 32.5548 19.7088 32.4152C19.2354 32.0058 18.7599 31.5988 18.2844 31.1918L18.2843 31.1917C17.7296 30.7168 17.1748 30.242 16.6235 29.7634C16.4603 29.6217 16.3036 29.5529 16.0837 29.5543C14.9142 29.5617 13.7447 29.5648 12.5752 29.568L12.573 29.5681C11.5764 29.5708 10.5797 29.5735 9.58308 29.5788C8.7232 29.5834 7.91881 29.3916 7.17416 28.9595C7.05023 28.8876 6.92793 28.8128 6.80562 28.7381L6.80557 28.7381L6.80552 28.738L6.80548 28.738L6.80544 28.738C6.74885 28.7034 6.69225 28.6688 6.63549 28.6345L5.86227 27.8613C5.8599 27.8522 5.85831 27.8426 5.85673 27.8329C5.85332 27.8121 5.84992 27.7914 5.83869 27.7766C5.26708 27.0211 4.9704 26.1682 4.90787 25.2249C4.90066 25.1164 4.81101 24.9894 4.72291 24.9138C3.69862 24.0342 3.11537 22.9367 3.02625 21.5802C3.01835 21.459 2.94641 21.311 2.8553 21.2313C1.81044 20.3169 1.24631 19.1776 1.20517 17.7852C1.19876 17.5672 1.19351 17.3492 1.18826 17.1311L1.18066 16.8206L1.22363 16.7776C1.25173 16.7798 1.27982 16.7826 1.30792 16.7854L1.30806 16.7854ZM11.7007 16.6703C10.6788 18.1945 10.58 19.8246 11.2851 21.4996C11.7595 22.6267 12.5438 23.5436 13.3875 24.4094C14.7641 25.822 16.2704 27.0882 17.7766 28.3544L17.7767 28.3545C18.4316 28.905 19.0866 29.4556 19.7308 30.0181C19.8888 30.1561 19.9907 30.1239 20.139 29.9966C20.7494 29.4721 21.3624 28.9506 21.9754 28.4292L21.9759 28.4287L21.976 28.4287L21.976 28.4286C22.843 27.6911 23.7099 26.9537 24.5694 26.2075C25.7325 25.1979 26.8509 24.1405 27.7602 22.8852C28.6508 21.6559 29.1627 20.3188 28.9565 18.7683C28.711 16.9214 27.5015 15.4788 25.8524 15.0838C24.1466 14.6751 22.5606 15.3727 21.5605 17.0301C21.3106 17.4444 21.1083 17.8874 20.8962 18.3521L20.8962 18.3521C20.7963 18.5708 20.6943 18.7944 20.584 19.0219C20.5087 19.0194 20.4272 19.0161 20.3414 19.0126C20.1382 19.0045 19.9108 18.9954 19.6834 18.9922L19.6708 18.992C19.183 18.9851 19.1804 18.9851 19.0147 18.5264C18.7484 17.7894 18.3914 17.1039 17.91 16.4807C16.307 14.4054 13.1626 14.4897 11.7007 16.6703ZM29.7665 23.1648C30.5882 21.775 30.9684 20.2802 30.7788 18.6854L36.762 18.7021C36.4891 19.6414 35.4518 20.4021 34.3099 20.4343C33.7063 20.4513 33.1021 20.4463 32.4981 20.4412H32.498H32.498H32.4979C32.3834 20.4403 32.269 20.4393 32.1545 20.4385C32.085 20.438 32.0156 20.4148 31.9529 20.3939C31.9259 20.3849 31.9001 20.3763 31.8761 20.3701L31.8726 22.2283L34.995 22.2137C34.7436 22.9371 34.3152 23.4055 33.7295 23.743C33.2499 24.0194 32.7242 24.094 32.1812 24.0975C31.6864 24.1008 31.1917 24.1065 30.6981 24.1122H30.698H30.6979C30.4864 24.1146 30.2751 24.1171 30.0641 24.1193L30.1026 25.9656L33.0723 25.9012C32.868 26.8056 31.9277 27.6714 30.8962 27.7063C29.676 27.7475 28.4538 27.725 27.2286 27.7023L27.228 27.7023C26.7113 27.6928 26.194 27.6832 25.6762 27.6785C25.8464 27.5209 26.0181 27.3636 26.1904 27.2058L26.1907 27.2055L26.1907 27.2055C26.5733 26.855 26.9584 26.5023 27.3338 26.1395C28.2604 25.2439 29.1077 24.279 29.7665 23.1648ZM3.22998 18.7038C3.54629 19.6886 4.56818 20.4174 5.72991 20.4403C6.2047 20.4497 6.67968 20.4478 7.15467 20.4459H7.15491L7.15536 20.4459C7.39906 20.4449 7.64275 20.444 7.88642 20.4445C7.94932 20.4446 8.01221 20.4504 8.05737 20.4546C8.07395 20.4561 8.08815 20.4574 8.09908 20.4582L8.10399 22.27L4.95644 22.268C5.02165 22.3711 5.08055 22.4704 5.13707 22.5658C5.25348 22.7621 5.35979 22.9414 5.49031 23.1009C6.08427 23.8264 6.88148 24.1062 7.80021 24.1014C8.29654 24.0989 8.79287 24.1023 9.28523 24.1056C9.50226 24.1071 9.71851 24.1086 9.93365 24.1095L9.91385 25.9648L6.90194 25.9116C7.25441 27.0136 8.29039 27.7468 9.48125 27.7518C10.5534 27.7565 11.6255 27.7517 12.6976 27.747C13.1239 27.7451 13.5502 27.7432 13.9766 27.7419C14.0201 27.7418 14.0637 27.7387 14.1137 27.7351H14.1137C14.1395 27.7332 14.1671 27.7313 14.1973 27.7295C14.1856 27.7108 14.1768 27.6951 14.1694 27.682C14.1566 27.6592 14.1479 27.6438 14.1355 27.6325C14.0684 27.571 14.0004 27.5105 13.9325 27.4499L13.9323 27.4498C13.8719 27.3959 13.8114 27.3421 13.7515 27.2876C12.583 26.2235 11.4356 25.1395 10.5193 23.8392C9.45998 22.3358 8.87245 20.6939 9.05567 18.8267C9.062 18.7617 9.04907 18.6949 9.05014 18.713L3.22998 18.7038Z" fill="#67ADD7"/>
</svg>
