<svg width="40" height="40" viewBox="0 0 40 40" fill="none" xmlns="http://www.w3.org/2000/svg">
<path fill-rule="evenodd" clip-rule="evenodd" d="M30.5367 8.31132C27.46 8.31132 21.8614 7.68482 20.1079 5.37575C19.8098 4.90757 19.1576 4.8659 18.8015 5.3128C16.7368 7.62127 11.1255 8.31132 7.82031 8.31132C7.36728 8.31132 7 8.67996 7 9.13475V22.3093C7 28.2429 13.8304 31.8678 19.0048 32.9949C19.673 33.1401 31.357 30.1804 31.357 22.3093V9.13475C31.357 8.68002 30.9897 8.31132 30.5367 8.31132ZM29.7163 22.3093C29.7163 28.493 20.5647 31.0001 19.1785 31.3439C17.7923 31.0001 8.64068 28.493 8.64068 22.3093V9.94877C14.9752 9.80253 18.1342 7.97789 19.3902 6.98881C21.9206 9.227 26.3461 9.87226 29.7164 9.94893V22.3093H29.7163ZM15.0795 15.6946V18.1922H14.2566C13.8036 18.1922 13.4363 18.5609 13.4363 19.0157V25.6029C13.4363 26.0577 13.8036 26.4264 14.2566 26.4264H24.1004C24.5534 26.4264 24.9207 26.0577 24.9207 25.6029V19.0156C24.9207 18.5609 24.5534 18.1922 24.1004 18.1922H16.7202V15.6945C16.7202 14.4078 17.7336 13.2517 19.2033 13.2517C20.5452 13.2517 21.6369 14.3476 21.6369 15.6945C21.6369 16.1492 22.0042 16.5179 22.4572 16.5179C22.9102 16.5179 23.2775 16.1493 23.2775 15.6945C23.2775 13.4395 21.4498 11.6049 19.2033 11.6049C16.8146 11.605 15.0795 13.5138 15.0795 15.6946ZM23.2801 24.7795H15.077V19.839H23.2801V24.7795ZM19.9988 22.3093C19.9988 22.7641 19.6315 23.1327 19.1785 23.1327C18.7255 23.1327 18.3582 22.7641 18.3582 22.3093C18.3582 21.8545 18.7255 21.4859 19.1785 21.4859C19.6315 21.4859 19.9988 21.8545 19.9988 22.3093Z" fill="#67ADD7"/>
</svg>
