<svg width="22" height="22" viewBox="0 0 22 22" fill="#4E5B67" xmlns="http://www.w3.org/2000/svg">
<path fill-rule="evenodd" clip-rule="evenodd" d="M16.2647 1.75C14.2541 1.75 12.6188 3.38524 12.6188 5.39577C12.6188 5.74873 12.6696 6.09011 12.7638 6.41323L9.06191 8.51564C8.39646 7.80206 7.44789 7.35435 6.3964 7.35435C4.38561 7.35435 2.75 8.98956 2.75 11.0002C2.75 13.0108 4.38561 14.646 6.3964 14.646C7.44791 14.646 8.3964 14.1983 9.06184 13.4847L12.7638 15.5866C12.6696 15.9098 12.6187 16.2512 12.6187 16.6042C12.6187 18.6148 14.254 20.25 16.2646 20.25C18.275 20.25 19.9101 18.6147 19.9101 16.6042C19.9102 14.5935 18.2751 12.9577 16.2647 12.9577C15.2129 12.9577 14.2643 13.4056 13.5988 14.1194L9.89682 12.0175C9.99097 11.6945 10.0419 11.3532 10.0419 11.0003C10.0419 10.6474 9.99097 10.3061 9.89682 9.98306L13.5984 7.88075C14.2639 8.59472 15.2127 9.04273 16.2645 9.04273C18.275 9.04273 19.9101 7.40691 19.9101 5.39587C19.9102 3.38527 18.2751 1.75 16.2647 1.75ZM14.3071 5.39577C14.3071 4.31664 15.1855 3.4383 16.2647 3.4383C17.3437 3.4383 18.2219 4.3166 18.2219 5.39577C18.2219 6.47569 17.3435 7.35435 16.2647 7.35435C15.1856 7.35435 14.3071 6.47565 14.3071 5.39577ZM4.43838 11.0003C4.43838 9.92112 5.31696 9.04273 6.39648 9.04273C7.47543 9.04273 8.35363 9.92101 8.35363 11.0003C8.35363 12.0794 7.47536 12.9577 6.39648 12.9577C5.31696 12.9577 4.43838 12.0793 4.43838 11.0003ZM14.3071 16.6043C14.3071 15.5247 15.1855 14.646 16.2647 14.646C17.3436 14.646 18.2219 15.5247 18.2219 16.6043C18.2219 17.6834 17.3437 18.5618 16.2647 18.5618C15.1855 18.5618 14.3071 17.6834 14.3071 16.6043Z"/>
</svg>
