<svg xmlns="http://www.w3.org/2000/svg" width="18" height="12" fill="none"><path d="M15.492 7.63l1.763 2.09c.236.336.46.683.632 1.072.243.554.023 1.164-.4 1.197l-2.622-.001c-.676.066-1.216-.255-1.67-.8l-1.048-1.35c-.143-.184-.293-.357-.472-.494-.358-.274-.67-.2-.873.25-.208.447-.256.943-.276 1.44-.028.727-.215.92-.835.952-1.326.074-2.584-.163-3.752-.95-1.03-.694-1.83-1.675-2.525-2.785C2.06 6.09 1.023 3.716.09 1.275-.12.725.035.43.55.42L3.117.417c.348.006.578.24.712.628.463 1.34 1.03 2.616 1.74 3.798.19.315.382.63.657.85.304.245.536.164.68-.235.09-.253.13-.526.15-.797.068-.932.077-1.863-.042-2.792-.073-.58-.35-.955-.84-1.065C5.922.75 5.96.64 6.08.472 6.29.18 6.5 0 6.885 0h2.964c.467.108.57.355.634.908l.002 3.878c-.005.214.09.85.418.99.262.1.435-.146.592-.342.7-.887 1.216-1.936 1.668-3.02l.54-1.47c.124-.368.32-.548.67-.54l2.852.003a1.28 1.28 0 0 1 .252.018c.48.096.612.34.464.893-.234.867-.69 1.6-1.134 2.317L15.352 5.94c-.433.712-.4 1.07.14 1.7z" fill="#fff"/></svg>