<svg width="13" height="16" viewBox="0 0 13 16" fill="none" xmlns="http://www.w3.org/2000/svg">
<path d="M6.7173 0C2.3321 0 0 2.81013 0 5.87426C0 7.29533 0.794036 9.06741 2.06509 9.62943C2.2581 9.71644 2.36311 9.67943 2.40611 9.50043C2.44411 9.36442 2.61112 8.70939 2.69212 8.40038C2.71712 8.30137 2.70412 8.21537 2.62412 8.12236C2.2021 7.63434 1.86708 6.7453 1.86708 5.91127C1.86708 3.77417 3.56616 1.69908 6.45729 1.69908C8.9574 1.69908 10.7065 3.32315 10.7065 5.64625C10.7065 8.27137 9.31742 10.0875 7.51234 10.0875C6.51329 10.0875 5.76926 9.30342 6.00527 8.33337C6.29028 7.17832 6.84931 5.93627 6.84931 5.10323C6.84931 4.3562 6.42729 3.73817 5.56525 3.73817C4.5482 3.73817 3.72317 4.74521 3.72317 6.09727C3.72317 6.95631 4.02718 7.53634 4.02718 7.53634C4.02718 7.53634 3.02114 11.6005 2.83413 12.3596C2.51811 13.6446 2.87713 15.7257 2.90813 15.9047C2.92713 16.0037 3.03814 16.0347 3.10014 15.9537C3.19914 15.8237 4.4152 14.0886 4.75621 12.8346C4.88022 12.3776 5.38924 10.5245 5.38924 10.5245C5.72426 11.1295 6.6913 11.6365 7.72135 11.6365C10.7855 11.6365 12.9996 8.9434 12.9996 5.60125C12.9886 2.39711 10.2465 0 6.7173 0Z" fill="white"/>
</svg>
