<svg width="20" height="17" viewBox="0 0 20 17" fill="none" xmlns="http://www.w3.org/2000/svg">
<path d="M19.6923 2.76915C18.96 3.09038 18.1797 3.30331 17.3662 3.40669C18.2031 2.907 18.8418 2.12177 19.1422 1.17531C18.3618 1.64054 17.5003 1.96915 16.5822 2.15254C15.8412 1.36362 14.7852 0.875 13.6332 0.875C11.3982 0.875 9.59877 2.68915 9.59877 4.91315C9.59877 5.23315 9.62585 5.54085 9.69231 5.83377C6.336 5.67008 3.36615 4.06146 1.37108 1.611C1.02277 2.21531 0.818462 2.907 0.818462 3.65162C0.818462 5.04977 1.53846 6.28915 2.61169 7.00669C1.96308 6.99438 1.32677 6.80608 0.787692 6.50946C0.787692 6.52177 0.787692 6.53777 0.787692 6.55377C0.787692 8.51562 2.18708 10.1452 4.02215 10.5205C3.69354 10.6104 3.33538 10.6535 2.96369 10.6535C2.70523 10.6535 2.44431 10.6387 2.19938 10.5845C2.72246 12.1833 4.20677 13.3587 5.97169 13.3968C4.59815 14.4713 2.85415 15.1187 0.966154 15.1187C0.635077 15.1187 0.317538 15.1039 0 15.0633C1.78831 16.2165 3.90769 16.875 6.19323 16.875C13.6222 16.875 17.6837 10.7212 17.6837 5.387C17.6837 5.20854 17.6775 5.03623 17.6689 4.86515C18.4702 4.29654 19.1434 3.58638 19.6923 2.76915Z" fill="#FEFEFE"/>
</svg>
