<svg width="24" height="24" viewBox="0 0 24 24" fill="none" xmlns="http://www.w3.org/2000/svg">
<path fill-rule="evenodd" clip-rule="evenodd" d="M18.0642 2.00476C19.1425 0.88115 20.9335 0.862766 22.0347 1.9639C23.1358 3.06508 23.1174 4.85606 21.9938 5.93437L18.1113 9.66016L21.4163 19.6471L18.1861 22.8773L13.0429 14.5242L9.73131 17.7021L10.1735 20.3955L7.01181 23.5572L5.30745 18.6911L0.441406 16.9868L3.60309 13.8251L6.29646 14.2673L9.47445 10.9557L1.12126 5.81248L4.35144 2.58225L14.3384 5.8873L18.0642 2.00476ZM20.8326 3.16598C20.4049 2.73839 19.7095 2.74556 19.2908 3.18185C19.2908 3.18185 19.2908 3.18184 19.2908 3.18185L14.8224 7.83815L4.8124 4.52547L3.84484 5.49304L12.1598 10.6127L6.9037 16.0897L4.1884 15.6439L3.55595 16.2764L6.64146 17.3571L7.72218 20.4426L8.35464 19.8102L7.90886 17.0949L13.3859 11.8389L18.5055 20.1537L19.4731 19.1862L16.1605 9.17614L20.8167 4.7078C21.253 4.28908 21.2602 3.59362 20.8326 3.16598Z" fill="#67ADD7"/>
</svg>
