<svg display="none">
	<defs>
		<g id="img-search">
			<path xmlns="http://www.w3.org/2000/svg" fill="#4E5B67" d="M18.9062 18.0187L15.8395 14.7402C17.1993 13.1236 17.9444 11.0897 17.9444 8.97221C17.9444 4.02501 13.9194 0 8.97221 0C4.02501 0 0 4.02501 0 8.97221C0 13.9194 4.02501 17.9444 8.97221 17.9444C10.8295 17.9444 12.5993 17.3843 14.1125 16.3208L17.2194 19.6411C17.4421 19.8724 17.7417 20 18.0628 20C18.3667 20 18.6549 19.8841 18.8738 19.6735C19.3388 19.226 19.3536 18.4841 18.9062 18.0187ZM8.97221 2C12.629 2 16 5.34324 16 9C16 12.6568 12.629 16 8.97221 16C5.31545 16 2 12.629 2 8.97221C2 5.31545 5.31545 2 8.97221 2Z"/>
		</g>
		<g id="img-cart">
			<path xmlns="http://www.w3.org/2000/svg" stroke="#4E5B67" stroke-width="2" d="M2.09597 6.93953C2.12795 6.4117 2.56534 6 3.09414 6H16.9059C17.4347 6 17.872 6.4117 17.904 6.93953L18.8733 22.9395C18.9082 23.5145 18.4512 24 17.8752 24H2.12483C1.54877 24 1.09183 23.5145 1.12666 22.9395L2.09597 6.93953Z"/><path xmlns="http://www.w3.org/2000/svg" stroke="#4E5B67" stroke-width="2" d="M14 10.8421V5C14 2.79086 12.2091 1 10 1V1C7.79086 1 6 2.79086 6 5V10.8421"/>
		</g>
		<g id="img-following">
			<path xmlns="http://www.w3.org/2000/svg" stroke="#4E5B67" stroke-linejoin="round" stroke-width="2" d="M9.17061 3.04707C9.35646 3.32297 9.66733 3.48839 9.99998 3.48839C10.3326 3.4884 10.6435 3.32298 10.8294 3.04709C11.6909 1.76814 13.0023 1 14.4251 1C16.8333 1 19.0001 3.26936 19 6.35124C19 7.27156 18.5621 8.3987 17.7481 9.64356C16.9472 10.8684 15.8514 12.1027 14.6996 13.2126C13.5506 14.3198 12.371 15.2791 11.4237 15.9561C10.9488 16.2955 10.5454 16.5546 10.2427 16.724C10.1459 16.7781 10.0656 16.8196 10.0015 16.8502C9.93749 16.8193 9.85744 16.7776 9.7608 16.723C9.45803 16.552 9.05448 16.2905 8.57934 15.9483C7.63163 15.2656 6.45146 14.2993 5.30182 13.1872C4.14933 12.0723 3.05273 10.835 2.25127 9.61245C1.43573 8.36838 1 7.25125 1 6.35126C1 3.26934 3.16676 1 5.57487 1C6.99773 1 8.30913 1.76815 9.17061 3.04707ZM9.85246 16.9122C9.85255 16.9121 9.8556 16.9111 9.86137 16.9096C9.85525 16.9116 9.85237 16.9124 9.85246 16.9122ZM10.1412 16.9101C10.1472 16.9117 10.1504 16.9127 10.1505 16.9129C10.1506 16.913 10.1476 16.9122 10.1412 16.9101Z"/>
		</g>
		<g id="img-lk">
			<circle xmlns="http://www.w3.org/2000/svg" cx="10" cy="5" r="4" stroke="#4E5B67" stroke-width="2"/><path xmlns="http://www.w3.org/2000/svg" stroke="#4E5B67" stroke-width="2" d="M2.35322 16.1026C3.1699 13.6526 5.46273 12 8.04531 12H11.9547C14.5373 12 16.8301 13.6526 17.6468 16.1026L18.1738 17.6838C18.3897 18.3313 17.9077 19 17.2251 19H2.77485C2.09229 19 1.61032 18.3313 1.82617 17.6838L2.35322 16.1026Z"/>
		</g>
		<g id="img-call-us">
			<path xmlns="http://www.w3.org/2000/svg" fill="#4E5B67" fill-rule="evenodd" d="M4.21875 7.13672H2.82941C2.9407 5.6197 3.60133 4.25288 4.61267 3.23491C5.75334 2.09176 7.32491 1.40625 9 1.40625C10.6751 1.40625 12.2467 2.09177 13.3873 3.23493C14.3987 4.2529 15.0593 5.61971 15.1706 7.13672H13.7813C13.3929 7.13672 13.0781 7.45151 13.0781 7.83984V12.6563V14.4492V15.1875C13.0781 15.5752 12.7627 15.8906 12.375 15.8906H10.2305V15.9129C9.99063 15.4804 9.52959 15.1875 9 15.1875C8.22336 15.1875 7.59375 15.8171 7.59375 16.5938C7.59375 17.3704 8.22336 18 9 18C9.52959 18 9.99063 17.7071 10.2305 17.2746V17.2969H12.375C13.5381 17.2969 14.4844 16.3506 14.4844 15.1875V15.1523H15.1875C16.7383 15.1523 18 13.8907 18 12.3398V9.94922C18 9.84018 17.9938 9.73257 17.9816 9.62672C17.8781 8.72374 17.3452 7.9494 16.5928 7.51361C16.5776 6.03928 16.1451 4.63172 15.351 3.42653C14.9506 2.8164 14.4629 2.26629 13.8994 1.79115C12.5355 0.635695 10.8257 0.00431197 9.01854 2.20672e-05C9.01236 7.35676e-06 9.00618 0 9 0C8.98942 0 8.97885 2.14795e-05 8.96828 6.44179e-05C7.16603 0.00738531 5.46116 0.638504 4.10061 1.79115C3.53714 2.26626 3.04947 2.81633 2.64907 3.42643C1.85473 4.63189 1.42219 6.03983 1.4072 7.51454C0.566894 8.00146 0 8.91011 0 9.94922V12.3398C0 13.8907 1.26169 15.1523 2.8125 15.1523H4.21875C4.60709 15.1523 4.92188 14.8376 4.92188 14.4492V7.83984C4.92188 7.45151 4.60709 7.13672 4.21875 7.13672ZM3.51563 13.7461H2.8125C2.03709 13.7461 1.40625 13.1153 1.40625 12.3398V9.94922C1.40625 9.17381 2.03709 8.54297 2.8125 8.54297H3.51563V13.7461ZM16.5938 12.3398C16.5938 13.1153 15.9629 13.7461 15.1875 13.7461H14.4844V12.6563V8.54297H15.1875C15.9629 8.54297 16.5938 9.17381 16.5938 9.94922V12.3398Z" clip-rule="evenodd"/>
		</g>
		<g id="img-primerka">
			<path xmlns="http://www.w3.org/2000/svg" fill="#4E5B67" d="M14.9366 9.47323L10.61 6.87033C10.0022 6.50473 9.32617 6.27267 8.62671 6.18539V5.53341C8.62671 5.1661 8.83704 4.82418 9.17554 4.64096C10.0166 4.18576 10.5118 3.30905 10.4678 2.35287C10.4095 1.08639 9.38562 0.0608799 8.11755 0.00265233C6.69604 -0.062167 5.53296 1.06955 5.53296 2.46872C5.53296 2.81393 5.81287 3.09372 6.15796 3.09372C6.50317 3.09372 6.78296 2.81393 6.78296 2.46872C6.78296 1.77682 7.35803 1.21896 8.06006 1.25131C8.6814 1.27987 9.19055 1.78903 9.21912 2.41037C9.24097 2.88327 8.99622 3.31674 8.58044 3.54171C7.83801 3.94357 7.37671 4.70675 7.37671 5.53341V6.18502C6.68018 6.27145 6.00659 6.50155 5.40051 6.86422L1.06775 9.45712H1.06763C0.410036 9.85067 0.000855871 10.5713 1.37775e-06 11.3377C-0.0013414 12.5506 0.979005 13.5334 2.19202 13.5349L13.8027 13.5484H13.8054C15.0143 13.5484 15.9985 12.5655 16 11.3563C16.0009 10.5899 15.5934 9.86825 14.9366 9.47323ZM13.8054 12.2984C13.8051 12.2984 13.8046 12.2984 13.8043 12.2984L2.1936 12.2849C1.67261 12.2843 1.24939 11.8601 1.25 11.3392C1.25037 11.0092 1.42651 10.6991 1.7096 10.5296H1.70947L6.04236 7.93685C7.24988 7.2142 8.75842 7.2153 9.96558 7.94137L14.2924 10.5443C14.575 10.7143 14.7504 11.025 14.75 11.3548C14.7494 11.8753 14.3258 12.2984 13.8054 12.2984Z"/>
		</g>
		<g id="img-freeship">
			<path xmlns="http://www.w3.org/2000/svg" fill="#4E5B67" d="M17.0343 3.83072C17.0343 3.60237 16.8963 3.39661 16.6851 3.30981L8.73114 0.0422358C8.59401 -0.0140786 8.44027 -0.0140786 8.30315 0.0422358L0.34915 3.30981C0.137935 3.39657 0 3.60237 0 3.83072V14.1693C0 14.3976 0.1379 14.6034 0.34915 14.6902L8.30315 17.9578C8.43879 18.0135 8.59127 18.0147 8.73043 17.9577C8.73723 17.9555 8.43608 18.079 16.6851 14.6902C16.8964 14.6034 17.0343 14.3976 17.0343 14.1693V3.83072ZM8.51714 6.53684L5.5864 5.33287L11.9201 2.56991L15.0468 3.85441L8.51714 6.53684ZM1.12629 4.71824L3.65484 5.75699V8.6876C3.65484 8.99859 3.90699 9.25074 4.21799 9.25074C4.52899 9.25074 4.78113 8.99859 4.78113 8.6876V6.21969L7.954 7.52312V16.5967L1.12629 13.7918V4.71824ZM8.51714 1.17194L10.4694 1.97393L4.1357 4.73689L1.98748 3.85437L8.51714 1.17194ZM9.08029 7.52312L15.908 4.71824V13.7918L9.08029 16.5967V7.52312Z"/>
		</g>
		<g id="img-city-select">
			<path xmlns="http://www.w3.org/2000/svg" fill="#4E5B67" fill-rule="evenodd" d="M8.83333 0L5 3.83333L1.16667 0L0 1.16667L5 6.16667L10 1.16667L8.83333 0Z" clip-rule="evenodd" opacity=".6"/>
		</g>
	</defs>
</svg>